<mxfile modified="2022-07-21T02:49:39.780Z" host="app.diagrams.net" agent="5.0 (Macintosh; Intel Mac OS X 10_15_7) AppleWebKit/537.36 (KHTML, like Gecko) Chrome/103.0.5060.114 Safari/537.36 Edg/103.0.1264.62" etag="Bgw3ntX7u2jQMGPo64nI" version="20.0.4" type="github">
  <diagram id="Ht1M8jgEwFfnCIfOTk4-" name="Page-1">
    <mxGraphModel dx="1406" dy="925" grid="1" gridSize="10" guides="1" tooltips="1" connect="1" arrows="1" fold="1" page="1" pageScale="1" pageWidth="827" pageHeight="1169" math="0" shadow="0">
      <root>
        <mxCell id="0" />
        <mxCell id="1" parent="0" />
        <mxCell id="jZVaUwOg5UY3L9NAnvdq-71" value="AWS Cloud" style="points=[[0,0],[0.25,0],[0.5,0],[0.75,0],[1,0],[1,0.25],[1,0.5],[1,0.75],[1,1],[0.75,1],[0.5,1],[0.25,1],[0,1],[0,0.75],[0,0.5],[0,0.25]];outlineConnect=0;gradientColor=none;html=1;whiteSpace=wrap;fontSize=12;fontStyle=0;shape=mxgraph.aws4.group;grIcon=mxgraph.aws4.group_aws_cloud_alt;strokeColor=#232F3E;fillColor=none;verticalAlign=top;align=left;spacingLeft=30;fontColor=#232F3E;dashed=0;labelBackgroundColor=none;container=1;pointerEvents=0;collapsible=0;recursiveResize=0;" parent="1" vertex="1">
          <mxGeometry x="263" y="125" width="1097" height="757" as="geometry" />
        </mxCell>
        <mxCell id="jZVaUwOg5UY3L9NAnvdq-109" style="edgeStyle=elbowEdgeStyle;rounded=0;orthogonalLoop=1;jettySize=auto;html=1;endArrow=open;endFill=0;strokeColor=#545B64;strokeWidth=2;fontSize=14;" parent="1" target="jZVaUwOg5UY3L9NAnvdq-72" edge="1">
          <mxGeometry relative="1" as="geometry">
            <mxPoint x="240" y="382" as="sourcePoint" />
            <Array as="points">
              <mxPoint x="339" y="322" />
            </Array>
          </mxGeometry>
        </mxCell>
        <mxCell id="jZVaUwOg5UY3L9NAnvdq-110" style="edgeStyle=elbowEdgeStyle;rounded=0;orthogonalLoop=1;jettySize=auto;html=1;endArrow=open;endFill=0;strokeColor=#545B64;strokeWidth=2;fontSize=14;" parent="1" target="jZVaUwOg5UY3L9NAnvdq-74" edge="1">
          <mxGeometry relative="1" as="geometry">
            <mxPoint x="240" y="418" as="sourcePoint" />
          </mxGeometry>
        </mxCell>
        <mxCell id="jZVaUwOg5UY3L9NAnvdq-111" value="" style="edgeStyle=elbowEdgeStyle;rounded=0;orthogonalLoop=1;jettySize=auto;html=1;endArrow=open;endFill=0;strokeColor=#545B64;strokeWidth=2;fontSize=14;" parent="1" source="jZVaUwOg5UY3L9NAnvdq-74" target="jZVaUwOg5UY3L9NAnvdq-75" edge="1">
          <mxGeometry relative="1" as="geometry" />
        </mxCell>
        <mxCell id="jZVaUwOg5UY3L9NAnvdq-112" value="" style="edgeStyle=elbowEdgeStyle;rounded=0;orthogonalLoop=1;jettySize=auto;html=1;endArrow=open;endFill=0;strokeColor=#545B64;strokeWidth=2;fontSize=14;" parent="1" source="jZVaUwOg5UY3L9NAnvdq-75" target="jZVaUwOg5UY3L9NAnvdq-80" edge="1">
          <mxGeometry relative="1" as="geometry" />
        </mxCell>
        <mxCell id="jZVaUwOg5UY3L9NAnvdq-116" value="" style="edgeStyle=elbowEdgeStyle;rounded=0;orthogonalLoop=1;jettySize=auto;html=1;endArrow=open;endFill=0;strokeColor=#545B64;strokeWidth=2;fontSize=14;" parent="1" source="jZVaUwOg5UY3L9NAnvdq-77" target="jZVaUwOg5UY3L9NAnvdq-76" edge="1">
          <mxGeometry relative="1" as="geometry" />
        </mxCell>
        <mxCell id="jZVaUwOg5UY3L9NAnvdq-117" value="" style="edgeStyle=elbowEdgeStyle;rounded=0;orthogonalLoop=1;jettySize=auto;html=1;endArrow=open;endFill=0;strokeColor=#545B64;strokeWidth=2;fontSize=14;" parent="1" source="jZVaUwOg5UY3L9NAnvdq-77" target="jZVaUwOg5UY3L9NAnvdq-78" edge="1">
          <mxGeometry relative="1" as="geometry" />
        </mxCell>
        <mxCell id="jZVaUwOg5UY3L9NAnvdq-119" value="" style="edgeStyle=elbowEdgeStyle;rounded=0;orthogonalLoop=1;jettySize=auto;html=1;endArrow=open;endFill=0;strokeColor=#545B64;strokeWidth=2;fontSize=14;" parent="1" source="jZVaUwOg5UY3L9NAnvdq-78" target="jZVaUwOg5UY3L9NAnvdq-91" edge="1">
          <mxGeometry relative="1" as="geometry">
            <Array as="points">
              <mxPoint x="1170" y="232" />
            </Array>
          </mxGeometry>
        </mxCell>
        <mxCell id="jZVaUwOg5UY3L9NAnvdq-123" value="" style="edgeStyle=orthogonalEdgeStyle;rounded=0;orthogonalLoop=1;jettySize=auto;html=1;endArrow=open;endFill=0;strokeColor=#545B64;strokeWidth=2;fontSize=14;" parent="1" source="jZVaUwOg5UY3L9NAnvdq-78" target="jZVaUwOg5UY3L9NAnvdq-93" edge="1">
          <mxGeometry relative="1" as="geometry">
            <Array as="points">
              <mxPoint x="1170" y="272" />
              <mxPoint x="1170" y="295" />
            </Array>
          </mxGeometry>
        </mxCell>
        <mxCell id="jZVaUwOg5UY3L9NAnvdq-113" value="" style="edgeStyle=elbowEdgeStyle;rounded=0;orthogonalLoop=1;jettySize=auto;html=1;endArrow=open;endFill=0;strokeColor=#545B64;strokeWidth=2;fontSize=14;" parent="1" source="jZVaUwOg5UY3L9NAnvdq-80" target="jZVaUwOg5UY3L9NAnvdq-81" edge="1">
          <mxGeometry relative="1" as="geometry" />
        </mxCell>
        <mxCell id="jZVaUwOg5UY3L9NAnvdq-114" value="" style="edgeStyle=elbowEdgeStyle;rounded=0;orthogonalLoop=1;jettySize=auto;html=1;endArrow=open;endFill=0;strokeColor=#545B64;strokeWidth=2;fontSize=14;" parent="1" source="jZVaUwOg5UY3L9NAnvdq-81" target="jZVaUwOg5UY3L9NAnvdq-82" edge="1">
          <mxGeometry relative="1" as="geometry" />
        </mxCell>
        <mxCell id="jZVaUwOg5UY3L9NAnvdq-115" value="" style="edgeStyle=elbowEdgeStyle;rounded=0;orthogonalLoop=1;jettySize=auto;html=1;endArrow=open;endFill=0;strokeColor=#545B64;strokeWidth=2;fontSize=14;" parent="1" source="jZVaUwOg5UY3L9NAnvdq-81" target="jZVaUwOg5UY3L9NAnvdq-77" edge="1">
          <mxGeometry relative="1" as="geometry" />
        </mxCell>
        <mxCell id="jZVaUwOg5UY3L9NAnvdq-128" value="" style="edgeStyle=elbowEdgeStyle;rounded=0;orthogonalLoop=1;jettySize=auto;html=1;endArrow=open;endFill=0;strokeColor=#545B64;strokeWidth=2;fontSize=14;" parent="1" source="jZVaUwOg5UY3L9NAnvdq-81" target="jZVaUwOg5UY3L9NAnvdq-89" edge="1">
          <mxGeometry relative="1" as="geometry" />
        </mxCell>
        <mxCell id="jZVaUwOg5UY3L9NAnvdq-126" value="" style="edgeStyle=elbowEdgeStyle;rounded=0;orthogonalLoop=1;jettySize=auto;html=1;endArrow=open;endFill=0;strokeColor=#545B64;strokeWidth=2;fontSize=14;" parent="1" source="jZVaUwOg5UY3L9NAnvdq-82" target="jZVaUwOg5UY3L9NAnvdq-97" edge="1">
          <mxGeometry relative="1" as="geometry">
            <Array as="points">
              <mxPoint x="1079" y="602" />
            </Array>
          </mxGeometry>
        </mxCell>
        <mxCell id="jZVaUwOg5UY3L9NAnvdq-138" value="" style="edgeStyle=elbowEdgeStyle;rounded=0;orthogonalLoop=1;jettySize=auto;html=1;endArrow=open;endFill=0;strokeColor=#545B64;strokeWidth=2;fontSize=14;elbow=vertical;" parent="1" source="jZVaUwOg5UY3L9NAnvdq-84" edge="1">
          <mxGeometry relative="1" as="geometry">
            <mxPoint x="240" y="757" as="targetPoint" />
          </mxGeometry>
        </mxCell>
        <mxCell id="jZVaUwOg5UY3L9NAnvdq-132" value="" style="edgeStyle=elbowEdgeStyle;rounded=0;orthogonalLoop=1;jettySize=auto;html=1;endArrow=open;endFill=0;strokeColor=#545B64;strokeWidth=2;fontSize=14;" parent="1" source="jZVaUwOg5UY3L9NAnvdq-85" target="jZVaUwOg5UY3L9NAnvdq-87" edge="1">
          <mxGeometry relative="1" as="geometry" />
        </mxCell>
        <mxCell id="jZVaUwOg5UY3L9NAnvdq-140" value="" style="edgeStyle=elbowEdgeStyle;rounded=0;orthogonalLoop=1;jettySize=auto;html=1;endArrow=open;endFill=0;strokeColor=#545B64;strokeWidth=2;fontSize=14;" parent="1" edge="1">
          <mxGeometry relative="1" as="geometry">
            <mxPoint x="472" y="756" as="sourcePoint" />
            <mxPoint x="240" y="681" as="targetPoint" />
            <Array as="points">
              <mxPoint x="410" y="721" />
            </Array>
          </mxGeometry>
        </mxCell>
        <mxCell id="jZVaUwOg5UY3L9NAnvdq-160" value="" style="edgeStyle=elbowEdgeStyle;rounded=0;orthogonalLoop=1;jettySize=auto;html=1;endArrow=open;endFill=0;strokeColor=#545B64;strokeWidth=2;fontSize=14;" parent="1" edge="1">
          <mxGeometry relative="1" as="geometry">
            <mxPoint x="472" y="756.5" as="sourcePoint" />
            <mxPoint x="378" y="756.5" as="targetPoint" />
          </mxGeometry>
        </mxCell>
        <mxCell id="jZVaUwOg5UY3L9NAnvdq-136" value="" style="edgeStyle=elbowEdgeStyle;rounded=0;orthogonalLoop=1;jettySize=auto;html=1;endArrow=open;endFill=0;strokeColor=#545B64;strokeWidth=2;fontSize=14;" parent="1" source="jZVaUwOg5UY3L9NAnvdq-87" target="jZVaUwOg5UY3L9NAnvdq-75" edge="1">
          <mxGeometry relative="1" as="geometry" />
        </mxCell>
        <mxCell id="jZVaUwOg5UY3L9NAnvdq-142" value="" style="edgeStyle=elbowEdgeStyle;rounded=0;orthogonalLoop=1;jettySize=auto;html=1;endArrow=open;endFill=0;strokeColor=#545B64;strokeWidth=2;fontSize=14;" parent="1" source="jZVaUwOg5UY3L9NAnvdq-88" target="jZVaUwOg5UY3L9NAnvdq-86" edge="1">
          <mxGeometry relative="1" as="geometry" />
        </mxCell>
        <mxCell id="jZVaUwOg5UY3L9NAnvdq-144" value="" style="edgeStyle=elbowEdgeStyle;rounded=0;orthogonalLoop=1;jettySize=auto;html=1;endArrow=open;endFill=0;strokeColor=#545B64;strokeWidth=2;fontSize=14;" parent="1" source="jZVaUwOg5UY3L9NAnvdq-90" target="jZVaUwOg5UY3L9NAnvdq-88" edge="1">
          <mxGeometry relative="1" as="geometry">
            <mxPoint x="848" y="912" as="targetPoint" />
          </mxGeometry>
        </mxCell>
        <mxCell id="jZVaUwOg5UY3L9NAnvdq-121" value="" style="edgeStyle=elbowEdgeStyle;rounded=0;orthogonalLoop=1;jettySize=auto;html=1;endArrow=open;endFill=0;strokeColor=#545B64;strokeWidth=2;fontSize=14;" parent="1" source="jZVaUwOg5UY3L9NAnvdq-91" target="jZVaUwOg5UY3L9NAnvdq-92" edge="1">
          <mxGeometry relative="1" as="geometry" />
        </mxCell>
        <mxCell id="jZVaUwOg5UY3L9NAnvdq-147" value="" style="edgeStyle=elbowEdgeStyle;rounded=0;orthogonalLoop=1;jettySize=auto;html=1;endArrow=open;endFill=0;strokeColor=#545B64;strokeWidth=2;fontSize=14;" parent="1" source="jZVaUwOg5UY3L9NAnvdq-97" target="jZVaUwOg5UY3L9NAnvdq-98" edge="1">
          <mxGeometry relative="1" as="geometry" />
        </mxCell>
        <mxCell id="jZVaUwOg5UY3L9NAnvdq-155" value="" style="edgeStyle=elbowEdgeStyle;rounded=0;orthogonalLoop=1;jettySize=auto;html=1;endArrow=open;endFill=0;strokeColor=#545B64;strokeWidth=2;fontSize=14;" parent="1" source="jZVaUwOg5UY3L9NAnvdq-97" target="jZVaUwOg5UY3L9NAnvdq-96" edge="1">
          <mxGeometry relative="1" as="geometry">
            <mxPoint x="1390" y="504" as="targetPoint" />
          </mxGeometry>
        </mxCell>
        <mxCell id="jZVaUwOg5UY3L9NAnvdq-146" value="" style="edgeStyle=elbowEdgeStyle;rounded=0;orthogonalLoop=1;jettySize=auto;html=1;endArrow=open;endFill=0;strokeColor=#545B64;strokeWidth=2;fontSize=14;" parent="1" source="jZVaUwOg5UY3L9NAnvdq-98" target="jZVaUwOg5UY3L9NAnvdq-90" edge="1">
          <mxGeometry relative="1" as="geometry" />
        </mxCell>
        <mxCell id="jZVaUwOg5UY3L9NAnvdq-151" value="" style="edgeStyle=elbowEdgeStyle;rounded=0;orthogonalLoop=1;jettySize=auto;html=1;endArrow=open;endFill=0;strokeColor=#545B64;strokeWidth=2;fontSize=14;" parent="1" source="jZVaUwOg5UY3L9NAnvdq-99" target="jZVaUwOg5UY3L9NAnvdq-97" edge="1">
          <mxGeometry relative="1" as="geometry" />
        </mxCell>
        <mxCell id="jZVaUwOg5UY3L9NAnvdq-149" value="" style="rounded=0;orthogonalLoop=1;jettySize=auto;html=1;endArrow=open;endFill=0;strokeColor=#545B64;strokeWidth=2;fontSize=14;" parent="1" source="jZVaUwOg5UY3L9NAnvdq-100" target="jZVaUwOg5UY3L9NAnvdq-97" edge="1">
          <mxGeometry relative="1" as="geometry" />
        </mxCell>
        <mxCell id="jZVaUwOg5UY3L9NAnvdq-124" value="" style="edgeStyle=elbowEdgeStyle;rounded=0;orthogonalLoop=1;jettySize=auto;html=1;endArrow=open;endFill=0;strokeColor=#545B64;strokeWidth=2;fontSize=14;" parent="1" source="jZVaUwOg5UY3L9NAnvdq-78" target="jZVaUwOg5UY3L9NAnvdq-94" edge="1">
          <mxGeometry relative="1" as="geometry">
            <mxPoint x="1108" y="281.5" as="sourcePoint" />
            <mxPoint x="1490.2117381489843" y="345" as="targetPoint" />
            <Array as="points">
              <mxPoint x="1170" y="332" />
            </Array>
          </mxGeometry>
        </mxCell>
        <mxCell id="jZVaUwOg5UY3L9NAnvdq-129" style="edgeStyle=elbowEdgeStyle;rounded=0;orthogonalLoop=1;jettySize=auto;html=1;endArrow=open;endFill=0;strokeColor=#545B64;strokeWidth=2;fontSize=14;exitX=1;exitY=0.5;exitDx=0;exitDy=0;elbow=vertical;" parent="1" source="jZVaUwOg5UY3L9NAnvdq-62" target="jZVaUwOg5UY3L9NAnvdq-83" edge="1">
          <mxGeometry relative="1" as="geometry">
            <mxPoint x="220" y="462" as="sourcePoint" />
            <mxPoint x="482" y="428" as="targetPoint" />
          </mxGeometry>
        </mxCell>
        <mxCell id="jZVaUwOg5UY3L9NAnvdq-130" style="edgeStyle=elbowEdgeStyle;rounded=0;orthogonalLoop=1;jettySize=auto;html=1;endArrow=open;endFill=0;strokeColor=#545B64;strokeWidth=2;fontSize=14;" parent="1" target="jZVaUwOg5UY3L9NAnvdq-85" edge="1">
          <mxGeometry relative="1" as="geometry">
            <mxPoint x="240" y="452" as="sourcePoint" />
            <mxPoint x="482" y="428" as="targetPoint" />
            <Array as="points">
              <mxPoint x="410" y="512" />
            </Array>
          </mxGeometry>
        </mxCell>
        <mxCell id="jZVaUwOg5UY3L9NAnvdq-158" style="edgeStyle=elbowEdgeStyle;rounded=0;orthogonalLoop=1;jettySize=auto;html=1;endArrow=open;endFill=0;strokeColor=#545B64;strokeWidth=2;fontSize=14;" parent="1" target="jZVaUwOg5UY3L9NAnvdq-73" edge="1">
          <mxGeometry relative="1" as="geometry">
            <mxPoint x="240" y="382" as="sourcePoint" />
            <mxPoint x="349" y="290" as="targetPoint" />
            <Array as="points">
              <mxPoint x="430" y="312" />
            </Array>
          </mxGeometry>
        </mxCell>
        <mxCell id="-QjtrjUzRDEMRZ5MF8oH-46" value="" style="rounded=0;whiteSpace=wrap;html=1;fillColor=#EAEDED;fontSize=22;fontColor=#FFFFFF;strokeColor=none;labelBackgroundColor=none;" parent="1" vertex="1">
          <mxGeometry x="1544.5" y="37" width="539" height="1080" as="geometry" />
        </mxCell>
        <mxCell id="-QjtrjUzRDEMRZ5MF8oH-36" value="1" style="rounded=1;whiteSpace=wrap;html=1;fillColor=#007CBD;strokeColor=none;fontColor=#FFFFFF;fontStyle=1;fontSize=22;labelBackgroundColor=none;" parent="1" vertex="1">
          <mxGeometry x="1563" y="49.5" width="40" height="38" as="geometry" />
        </mxCell>
        <mxCell id="-QjtrjUzRDEMRZ5MF8oH-37" value="2" style="rounded=1;whiteSpace=wrap;html=1;fillColor=#007CBD;strokeColor=none;fontColor=#FFFFFF;fontStyle=1;fontSize=22;labelBackgroundColor=none;" parent="1" vertex="1">
          <mxGeometry x="1561.5" y="171.5" width="40" height="38" as="geometry" />
        </mxCell>
        <mxCell id="-QjtrjUzRDEMRZ5MF8oH-38" value="3" style="rounded=1;whiteSpace=wrap;html=1;fillColor=#007CBD;strokeColor=none;fontColor=#FFFFFF;fontStyle=1;fontSize=22;labelBackgroundColor=none;" parent="1" vertex="1">
          <mxGeometry x="1561.5" y="291.5" width="40" height="38" as="geometry" />
        </mxCell>
        <mxCell id="-QjtrjUzRDEMRZ5MF8oH-39" value="4" style="rounded=1;whiteSpace=wrap;html=1;fillColor=#007CBD;strokeColor=none;fontColor=#FFFFFF;fontStyle=1;fontSize=22;labelBackgroundColor=none;" parent="1" vertex="1">
          <mxGeometry x="1561.5" y="405.5" width="40" height="38" as="geometry" />
        </mxCell>
        <mxCell id="-QjtrjUzRDEMRZ5MF8oH-40" value="5" style="rounded=1;whiteSpace=wrap;html=1;fillColor=#007CBD;strokeColor=none;fontColor=#FFFFFF;fontStyle=1;fontSize=22;labelBackgroundColor=none;" parent="1" vertex="1">
          <mxGeometry x="1563" y="522.5" width="40" height="38" as="geometry" />
        </mxCell>
        <mxCell id="-QjtrjUzRDEMRZ5MF8oH-41" value="6" style="rounded=1;whiteSpace=wrap;html=1;fillColor=#007CBD;strokeColor=none;fontColor=#FFFFFF;fontStyle=1;fontSize=22;labelBackgroundColor=none;" parent="1" vertex="1">
          <mxGeometry x="1564" y="637.5" width="40" height="38" as="geometry" />
        </mxCell>
        <mxCell id="-QjtrjUzRDEMRZ5MF8oH-42" value="7" style="rounded=1;whiteSpace=wrap;html=1;fillColor=#007CBD;strokeColor=none;fontColor=#FFFFFF;fontStyle=1;fontSize=22;labelBackgroundColor=none;" parent="1" vertex="1">
          <mxGeometry x="1563.5" y="753.5" width="40" height="38" as="geometry" />
        </mxCell>
        <mxCell id="-QjtrjUzRDEMRZ5MF8oH-43" value="8" style="rounded=1;whiteSpace=wrap;html=1;fillColor=#007CBD;strokeColor=none;fontColor=#FFFFFF;fontStyle=1;fontSize=22;labelBackgroundColor=none;" parent="1" vertex="1">
          <mxGeometry x="1564" y="871.5" width="40" height="38" as="geometry" />
        </mxCell>
        <mxCell id="-QjtrjUzRDEMRZ5MF8oH-44" value="9" style="rounded=1;whiteSpace=wrap;html=1;fillColor=#007CBD;strokeColor=none;fontColor=#FFFFFF;fontStyle=1;fontSize=22;labelBackgroundColor=none;" parent="1" vertex="1">
          <mxGeometry x="1562" y="991.5" width="40" height="38" as="geometry" />
        </mxCell>
        <mxCell id="-QjtrjUzRDEMRZ5MF8oH-47" value="Title text&lt;br&gt;" style="text;html=1;resizable=0;points=[];autosize=1;align=left;verticalAlign=top;spacingTop=-4;fontSize=30;fontStyle=1;labelBackgroundColor=none;" parent="1" vertex="1">
          <mxGeometry x="36.5" y="26.5" width="130" height="40" as="geometry" />
        </mxCell>
        <mxCell id="-QjtrjUzRDEMRZ5MF8oH-48" value="Sub-title text&lt;br style=&quot;font-size: 16px&quot;&gt;" style="text;html=1;resizable=0;points=[];autosize=1;align=left;verticalAlign=top;spacingTop=-4;fontSize=16;labelBackgroundColor=none;" parent="1" vertex="1">
          <mxGeometry x="36.5" y="76.5" width="100" height="20" as="geometry" />
        </mxCell>
        <mxCell id="SCVMTBWpLvtzJIhz15lM-1" value="" style="line;strokeWidth=2;html=1;fontSize=14;labelBackgroundColor=none;" parent="1" vertex="1">
          <mxGeometry x="32.5" y="101.5" width="1060" height="10" as="geometry" />
        </mxCell>
        <mxCell id="AmXLDjNfCaVPL390mNVF-44" value="" style="edgeStyle=orthogonalEdgeStyle;orthogonalLoop=1;jettySize=auto;html=1;fontFamily=Helvetica;fontSize=11;fontColor=default;endArrow=classic;" edge="1" parent="1" source="SCVMTBWpLvtzJIhz15lM-6" target="jZVaUwOg5UY3L9NAnvdq-92">
          <mxGeometry relative="1" as="geometry" />
        </mxCell>
        <mxCell id="SCVMTBWpLvtzJIhz15lM-6" value="&lt;span&gt;Lorem ipsum dolor sit amet, consectetur adipiscing elit, sed do eiusmod tempor incididunt ut labore et dolore magna aliqua. Ut enim ad minim veniam, quis nostrud exercitation ullamco laboris nisi ut aliquip ex ea commodo consequat. Duis aute irure dolor in reprehenderit in voluptate velit esse cillum dolore eu fugiat nulla pariatur. Excepteur sint occaecat cupidatat non proident, sunt in culpa qui officia deserunt mollit anim id est laborum.&lt;/span&gt;&lt;br&gt;" style="text;html=1;align=left;verticalAlign=top;spacingTop=-4;fontSize=14;labelBackgroundColor=none;whiteSpace=wrap;" parent="1" vertex="1">
          <mxGeometry x="1614.5" y="49" width="449" height="118" as="geometry" />
        </mxCell>
        <mxCell id="SCVMTBWpLvtzJIhz15lM-7" value="&lt;span&gt;Lorem ipsum dolor sit amet, consectetur adipiscing elit, sed do eiusmod tempor incididunt ut labore et dolore magna aliqua. Ut enim ad minim veniam, quis nostrud exercitation ullamco laboris nisi ut aliquip ex ea commodo consequat. Duis aute irure dolor in reprehenderit in voluptate velit esse cillum dolore eu fugiat nulla pariatur. Excepteur sint occaecat cupidatat non proident, sunt in culpa qui officia deserunt mollit anim id est laborum.&lt;/span&gt;&lt;br&gt;" style="text;html=1;align=left;verticalAlign=top;spacingTop=-4;fontSize=14;labelBackgroundColor=none;whiteSpace=wrap;" parent="1" vertex="1">
          <mxGeometry x="1613.5" y="172" width="450" height="115" as="geometry" />
        </mxCell>
        <mxCell id="SCVMTBWpLvtzJIhz15lM-9" value="&lt;span&gt;Lorem ipsum dolor sit amet, consectetur adipiscing elit, sed do eiusmod tempor incididunt ut labore et dolore magna aliqua. Ut enim ad minim veniam, quis nostrud exercitation ullamco laboris nisi ut aliquip ex ea commodo consequat. Duis aute irure dolor in reprehenderit in voluptate velit esse cillum dolore eu fugiat nulla pariatur. Excepteur sint occaecat cupidatat non proident, sunt in culpa qui officia deserunt mollit anim id est laborum.&lt;/span&gt;&lt;br&gt;" style="text;html=1;align=left;verticalAlign=top;spacingTop=-4;fontSize=14;labelBackgroundColor=none;whiteSpace=wrap;" parent="1" vertex="1">
          <mxGeometry x="1613.5" y="290" width="450" height="117" as="geometry" />
        </mxCell>
        <mxCell id="SCVMTBWpLvtzJIhz15lM-10" value="&lt;span&gt;Lorem ipsum dolor sit amet, consectetur adipiscing elit, sed do eiusmod tempor incididunt ut labore et dolore magna aliqua. Ut enim ad minim veniam, quis nostrud exercitation ullamco laboris nisi ut aliquip ex ea commodo consequat. Duis aute irure dolor in reprehenderit in voluptate velit esse cillum dolore eu fugiat nulla pariatur. Excepteur sint occaecat cupidatat non proident, sunt in culpa qui officia deserunt mollit anim id est laborum.&lt;/span&gt;&lt;br&gt;" style="text;html=1;align=left;verticalAlign=top;spacingTop=-4;fontSize=14;labelBackgroundColor=none;whiteSpace=wrap;" parent="1" vertex="1">
          <mxGeometry x="1613.5" y="406" width="450" height="121" as="geometry" />
        </mxCell>
        <mxCell id="SCVMTBWpLvtzJIhz15lM-11" value="&lt;span&gt;Lorem ipsum dolor sit amet, consectetur adipiscing elit, sed do eiusmod tempor incididunt ut labore et dolore magna aliqua. Ut enim ad minim veniam, quis nostrud exercitation ullamco laboris nisi ut aliquip ex ea commodo consequat. Duis aute irure dolor in reprehenderit in voluptate velit esse cillum dolore eu fugiat nulla pariatur. Excepteur sint occaecat cupidatat non proident, sunt in culpa qui officia deserunt mollit anim id est laborum.&lt;/span&gt;&lt;br&gt;" style="text;html=1;align=left;verticalAlign=top;spacingTop=-4;fontSize=14;labelBackgroundColor=none;whiteSpace=wrap;" parent="1" vertex="1">
          <mxGeometry x="1614.5" y="523" width="449" height="114" as="geometry" />
        </mxCell>
        <mxCell id="SCVMTBWpLvtzJIhz15lM-12" value="&lt;span&gt;Lorem ipsum dolor sit amet, consectetur adipiscing elit, sed do eiusmod tempor incididunt ut labore et dolore magna aliqua. Ut enim ad minim veniam, quis nostrud exercitation ullamco laboris nisi ut aliquip ex ea commodo consequat. Duis aute irure dolor in reprehenderit in voluptate velit esse cillum dolore eu fugiat nulla pariatur. Excepteur sint occaecat cupidatat non proident, sunt in culpa qui officia deserunt mollit anim id est laborum.&lt;/span&gt;&lt;br&gt;" style="text;html=1;align=left;verticalAlign=top;spacingTop=-4;fontSize=14;labelBackgroundColor=none;whiteSpace=wrap;" parent="1" vertex="1">
          <mxGeometry x="1614.5" y="639" width="450" height="118" as="geometry" />
        </mxCell>
        <mxCell id="SCVMTBWpLvtzJIhz15lM-13" value="&lt;span&gt;Lorem ipsum dolor sit amet, consectetur adipiscing elit, sed do eiusmod tempor incididunt ut labore et dolore magna aliqua. Ut enim ad minim veniam, quis nostrud exercitation ullamco laboris nisi ut aliquip ex ea commodo consequat. Duis aute irure dolor in reprehenderit in voluptate velit esse cillum dolore eu fugiat nulla pariatur. Excepteur sint occaecat cupidatat non proident, sunt in culpa qui officia deserunt mollit anim id est laborum.&lt;/span&gt;&lt;br&gt;" style="text;html=1;align=left;verticalAlign=top;spacingTop=-4;fontSize=14;labelBackgroundColor=none;whiteSpace=wrap;" parent="1" vertex="1">
          <mxGeometry x="1614.5" y="754" width="449" height="113" as="geometry" />
        </mxCell>
        <mxCell id="SCVMTBWpLvtzJIhz15lM-14" value="&lt;span&gt;Lorem ipsum dolor sit amet, consectetur adipiscing elit, sed do eiusmod tempor incididunt ut labore et dolore magna aliqua. Ut enim ad minim veniam, quis nostrud exercitation ullamco laboris nisi ut aliquip ex ea commodo consequat. Duis aute irure dolor in reprehenderit in voluptate velit esse cillum dolore eu fugiat nulla pariatur. Excepteur sint occaecat cupidatat non proident, sunt in culpa qui officia deserunt mollit anim id est laborum.&lt;/span&gt;&lt;br&gt;" style="text;html=1;align=left;verticalAlign=top;spacingTop=-4;fontSize=14;labelBackgroundColor=none;whiteSpace=wrap;" parent="1" vertex="1">
          <mxGeometry x="1614.5" y="873" width="449" height="124" as="geometry" />
        </mxCell>
        <mxCell id="SCVMTBWpLvtzJIhz15lM-15" value="&lt;span&gt;Lorem ipsum dolor sit amet, consectetur adipiscing elit, sed do eiusmod tempor incididunt ut labore et dolore magna aliqua. Ut enim ad minim veniam, quis nostrud exercitation ullamco laboris nisi ut aliquip ex ea commodo consequat. Duis aute irure dolor in reprehenderit in voluptate velit esse cillum dolore eu fugiat nulla pariatur. Excepteur sint occaecat cupidatat non proident, sunt in culpa qui officia deserunt mollit anim id est laborum.&lt;/span&gt;&lt;br&gt;" style="text;html=1;align=left;verticalAlign=top;spacingTop=-4;fontSize=14;labelBackgroundColor=none;whiteSpace=wrap;" parent="1" vertex="1">
          <mxGeometry x="1614.5" y="992" width="449" height="115" as="geometry" />
        </mxCell>
        <mxCell id="jZVaUwOg5UY3L9NAnvdq-59" value="Actors" style="swimlane;fontSize=14;align=center;swimlaneFillColor=#f4f4f4;fillColor=#f4f4f4;startSize=33;container=1;pointerEvents=0;collapsible=0;recursiveResize=0;" parent="1" vertex="1">
          <mxGeometry x="30" y="125" width="210" height="177" as="geometry" />
        </mxCell>
        <mxCell id="jZVaUwOg5UY3L9NAnvdq-61" value="Payers" style="outlineConnect=0;fontColor=#232F3E;gradientColor=none;fillColor=#232F3E;strokeColor=none;dashed=0;verticalLabelPosition=bottom;verticalAlign=top;align=center;html=1;fontSize=12;fontStyle=0;aspect=fixed;pointerEvents=1;shape=mxgraph.aws4.corporate_data_center;labelBackgroundColor=none;" parent="jZVaUwOg5UY3L9NAnvdq-59" vertex="1">
          <mxGeometry x="130" y="54" width="53" height="78" as="geometry" />
        </mxCell>
        <mxCell id="jZVaUwOg5UY3L9NAnvdq-62" value="Channels" style="swimlane;fontSize=14;align=center;swimlaneFillColor=#f4f4f4;fillColor=#f4f4f4;startSize=33;container=1;pointerEvents=0;collapsible=0;recursiveResize=0;" parent="1" vertex="1">
          <mxGeometry x="30" y="302" width="210" height="580" as="geometry" />
        </mxCell>
        <mxCell id="jZVaUwOg5UY3L9NAnvdq-65" value="Mobile / Web" style="outlineConnect=0;fontColor=#232F3E;gradientColor=none;strokeColor=none;fillColor=#277116;dashed=0;verticalLabelPosition=bottom;verticalAlign=top;align=center;html=1;fontSize=12;fontStyle=0;shape=mxgraph.aws4.mobile_client;labelBackgroundColor=none;" parent="jZVaUwOg5UY3L9NAnvdq-62" vertex="1">
          <mxGeometry x="67.5" y="57.5" width="53" height="100" as="geometry" />
        </mxCell>
        <mxCell id="jZVaUwOg5UY3L9NAnvdq-69" value="Wearables" style="outlineConnect=0;fontColor=#232F3E;gradientColor=none;fillColor=#277116;strokeColor=none;dashed=0;verticalLabelPosition=bottom;verticalAlign=top;align=center;html=1;fontSize=12;fontStyle=0;aspect=fixed;pointerEvents=1;shape=mxgraph.aws4.medical_emergency;labelBackgroundColor=none;" parent="jZVaUwOg5UY3L9NAnvdq-62" vertex="1">
          <mxGeometry x="63" y="310" width="78" height="78" as="geometry" />
        </mxCell>
        <mxCell id="jZVaUwOg5UY3L9NAnvdq-70" value="Echo" style="outlineConnect=0;fontColor=#232F3E;gradientColor=none;fillColor=#277116;strokeColor=none;dashed=0;verticalLabelPosition=bottom;verticalAlign=top;align=center;html=1;fontSize=12;fontStyle=0;aspect=fixed;pointerEvents=1;shape=mxgraph.aws4.echo;labelBackgroundColor=none;" parent="jZVaUwOg5UY3L9NAnvdq-62" vertex="1">
          <mxGeometry x="84" y="427" width="41" height="78" as="geometry" />
        </mxCell>
        <mxCell id="jZVaUwOg5UY3L9NAnvdq-95" value="API" style="outlineConnect=0;fontColor=#232F3E;gradientColor=none;fillColor=#277116;strokeColor=none;dashed=0;verticalLabelPosition=bottom;verticalAlign=top;align=center;html=1;fontSize=12;fontStyle=0;aspect=fixed;pointerEvents=1;shape=mxgraph.aws4.external_sdk;labelBackgroundColor=none;" parent="jZVaUwOg5UY3L9NAnvdq-62" vertex="1">
          <mxGeometry x="73" y="208.5" width="68" height="78" as="geometry" />
        </mxCell>
        <mxCell id="jZVaUwOg5UY3L9NAnvdq-101" value="1" style="rounded=1;whiteSpace=wrap;html=1;fillColor=#007CBD;strokeColor=none;fontColor=#FFFFFF;fontStyle=1;fontSize=22;labelBackgroundColor=none;" parent="jZVaUwOg5UY3L9NAnvdq-62" vertex="1">
          <mxGeometry x="143" y="61" width="40" height="38" as="geometry" />
        </mxCell>
        <mxCell id="-QjtrjUzRDEMRZ5MF8oH-28" value="4" style="rounded=1;whiteSpace=wrap;html=1;fillColor=#007CBD;strokeColor=none;fontColor=#FFFFFF;fontStyle=1;fontSize=22;labelBackgroundColor=none;" parent="1" vertex="1">
          <mxGeometry x="559" y="352" width="40" height="38" as="geometry" />
        </mxCell>
        <mxCell id="jZVaUwOg5UY3L9NAnvdq-72" value="Amazon Lex" style="outlineConnect=0;fontColor=#232F3E;gradientColor=#4AB29A;gradientDirection=north;fillColor=#116D5B;strokeColor=#ffffff;dashed=0;verticalLabelPosition=bottom;verticalAlign=top;align=center;html=1;fontSize=12;fontStyle=0;aspect=fixed;shape=mxgraph.aws4.resourceIcon;resIcon=mxgraph.aws4.lex;labelBackgroundColor=#ffffff;spacingTop=8;" parent="1" vertex="1">
          <mxGeometry x="300" y="202" width="78" height="78" as="geometry" />
        </mxCell>
        <mxCell id="jZVaUwOg5UY3L9NAnvdq-73" value="Amazon S3" style="outlineConnect=0;fontColor=#232F3E;gradientColor=#60A337;gradientDirection=north;fillColor=#277116;strokeColor=#ffffff;dashed=0;verticalLabelPosition=bottom;verticalAlign=top;align=center;html=1;fontSize=12;fontStyle=0;aspect=fixed;shape=mxgraph.aws4.resourceIcon;resIcon=mxgraph.aws4.s3;labelBackgroundColor=none;" parent="1" vertex="1">
          <mxGeometry x="476" y="179" width="78" height="78" as="geometry" />
        </mxCell>
        <mxCell id="jZVaUwOg5UY3L9NAnvdq-74" value="Amazon API&lt;br&gt;Gateway&lt;br&gt;" style="outlineConnect=0;fontColor=#232F3E;gradientColor=#945DF2;gradientDirection=north;fillColor=#5A30B5;strokeColor=#ffffff;dashed=0;verticalLabelPosition=bottom;verticalAlign=top;align=center;html=1;fontSize=12;fontStyle=0;aspect=fixed;shape=mxgraph.aws4.resourceIcon;resIcon=mxgraph.aws4.api_gateway;labelBackgroundColor=none;" parent="1" vertex="1">
          <mxGeometry x="472" y="378.99999999999994" width="78" height="78" as="geometry" />
        </mxCell>
        <mxCell id="jZVaUwOg5UY3L9NAnvdq-75" value="Amazon Kinesis&lt;br&gt;Data Streams&lt;br&gt;" style="outlineConnect=0;fontColor=#232F3E;gradientColor=#945DF2;gradientDirection=north;fillColor=#5A30B5;strokeColor=#ffffff;dashed=0;verticalLabelPosition=bottom;verticalAlign=top;align=center;html=1;fontSize=12;fontStyle=0;aspect=fixed;shape=mxgraph.aws4.resourceIcon;resIcon=mxgraph.aws4.kinesis_data_streams;labelBackgroundColor=#ffffff;spacingTop=5;" parent="1" vertex="1">
          <mxGeometry x="609" y="378.99999999999994" width="78" height="78" as="geometry" />
        </mxCell>
        <mxCell id="jZVaUwOg5UY3L9NAnvdq-76" value="Amazon&lt;br&gt;ElasticSearch&lt;br&gt;" style="outlineConnect=0;fontColor=#232F3E;gradientColor=#945DF2;gradientDirection=north;fillColor=#5A30B5;strokeColor=#ffffff;dashed=0;verticalLabelPosition=bottom;verticalAlign=top;align=center;html=1;fontSize=12;fontStyle=0;aspect=fixed;shape=mxgraph.aws4.resourceIcon;resIcon=mxgraph.aws4.elasticsearch_service;labelBackgroundColor=none;" parent="1" vertex="1">
          <mxGeometry x="744" y="232.5" width="78" height="78" as="geometry" />
        </mxCell>
        <mxCell id="jZVaUwOg5UY3L9NAnvdq-77" value="DynamoDB&lt;br&gt;Streams&lt;br&gt;" style="outlineConnect=0;fontColor=#232F3E;gradientColor=#4D72F3;gradientDirection=north;fillColor=#3334B9;strokeColor=#ffffff;dashed=0;verticalLabelPosition=bottom;verticalAlign=top;align=center;html=1;fontSize=12;fontStyle=0;aspect=fixed;shape=mxgraph.aws4.resourceIcon;resIcon=mxgraph.aws4.dynamodb;labelBackgroundColor=#ffffff;spacingTop=6;" parent="1" vertex="1">
          <mxGeometry x="923.0000000000002" y="232.5" width="78" height="78" as="geometry" />
        </mxCell>
        <mxCell id="jZVaUwOg5UY3L9NAnvdq-78" value="Subscriber&lt;br&gt;Processor&lt;br&gt;" style="outlineConnect=0;fontColor=#232F3E;gradientColor=none;fillColor=#D05C17;strokeColor=none;dashed=0;verticalLabelPosition=bottom;verticalAlign=top;align=center;html=1;fontSize=12;fontStyle=0;aspect=fixed;pointerEvents=1;shape=mxgraph.aws4.lambda_function;labelBackgroundColor=none;" parent="1" vertex="1">
          <mxGeometry x="1040" y="232.5" width="78" height="78" as="geometry" />
        </mxCell>
        <mxCell id="jZVaUwOg5UY3L9NAnvdq-80" value="Request&lt;br&gt;Processor&lt;br&gt;" style="outlineConnect=0;fontColor=#232F3E;gradientColor=none;fillColor=#D05C17;strokeColor=none;dashed=0;verticalLabelPosition=bottom;verticalAlign=top;align=center;html=1;fontSize=12;fontStyle=0;aspect=fixed;pointerEvents=1;shape=mxgraph.aws4.lambda_function;labelBackgroundColor=#ffffff;spacingTop=7;" parent="1" vertex="1">
          <mxGeometry x="744" y="378.9999999999999" width="78" height="78" as="geometry" />
        </mxCell>
        <mxCell id="jZVaUwOg5UY3L9NAnvdq-81" value="Amazon&lt;br&gt;DynamoDB&lt;br&gt;" style="outlineConnect=0;fontColor=#232F3E;gradientColor=#4D72F3;gradientDirection=north;fillColor=#3334B9;strokeColor=#ffffff;dashed=0;verticalLabelPosition=bottom;verticalAlign=top;align=center;html=1;fontSize=12;fontStyle=0;aspect=fixed;shape=mxgraph.aws4.resourceIcon;resIcon=mxgraph.aws4.dynamodb;labelBackgroundColor=#ffffff;" parent="1" vertex="1">
          <mxGeometry x="923.0000000000003" y="378.99999999999994" width="78" height="78" as="geometry" />
        </mxCell>
        <mxCell id="jZVaUwOg5UY3L9NAnvdq-82" value="ERL Function" style="outlineConnect=0;fontColor=#232F3E;gradientColor=none;fillColor=#D05C17;strokeColor=none;dashed=0;verticalLabelPosition=bottom;verticalAlign=top;align=center;html=1;fontSize=12;fontStyle=0;aspect=fixed;pointerEvents=1;shape=mxgraph.aws4.lambda_function;labelBackgroundColor=#ffffff;spacingTop=2;" parent="1" vertex="1">
          <mxGeometry x="1040" y="378.99999999999994" width="78" height="78" as="geometry" />
        </mxCell>
        <mxCell id="jZVaUwOg5UY3L9NAnvdq-83" value="Amazon Cognito" style="outlineConnect=0;fontColor=#232F3E;gradientColor=#F54749;gradientDirection=north;fillColor=#C7131F;strokeColor=#ffffff;dashed=0;verticalLabelPosition=bottom;verticalAlign=top;align=center;html=1;fontSize=12;fontStyle=0;aspect=fixed;shape=mxgraph.aws4.resourceIcon;resIcon=mxgraph.aws4.cognito;labelBackgroundColor=none;" parent="1" vertex="1">
          <mxGeometry x="300" y="556" width="78" height="78" as="geometry" />
        </mxCell>
        <mxCell id="jZVaUwOg5UY3L9NAnvdq-84" value="Amazon Polly" style="outlineConnect=0;fontColor=#232F3E;gradientColor=#4AB29A;gradientDirection=north;fillColor=#116D5B;strokeColor=#ffffff;dashed=0;verticalLabelPosition=bottom;verticalAlign=top;align=center;html=1;fontSize=12;fontStyle=0;aspect=fixed;shape=mxgraph.aws4.resourceIcon;resIcon=mxgraph.aws4.polly;labelBackgroundColor=none;" parent="1" vertex="1">
          <mxGeometry x="300" y="717.5" width="78" height="78" as="geometry" />
        </mxCell>
        <mxCell id="jZVaUwOg5UY3L9NAnvdq-85" value="AWS IoT Core" style="outlineConnect=0;fontColor=#232F3E;gradientColor=#60A337;gradientDirection=north;fillColor=#277116;strokeColor=#ffffff;dashed=0;verticalLabelPosition=bottom;verticalAlign=top;align=center;html=1;fontSize=12;fontStyle=0;aspect=fixed;shape=mxgraph.aws4.resourceIcon;resIcon=mxgraph.aws4.iot_core;labelBackgroundColor=none;" parent="1" vertex="1">
          <mxGeometry x="472" y="560.5" width="78" height="78" as="geometry" />
        </mxCell>
        <mxCell id="jZVaUwOg5UY3L9NAnvdq-86" value="Amazon Pinpoint" style="outlineConnect=0;fontColor=#232F3E;gradientColor=#F54749;gradientDirection=north;fillColor=#C7131F;strokeColor=#ffffff;dashed=0;verticalLabelPosition=bottom;verticalAlign=top;align=center;html=1;fontSize=12;fontStyle=0;aspect=fixed;shape=mxgraph.aws4.resourceIcon;resIcon=mxgraph.aws4.pinpoint;labelBackgroundColor=none;" parent="1" vertex="1">
          <mxGeometry x="472" y="717.4999999999999" width="78" height="78" as="geometry" />
        </mxCell>
        <mxCell id="jZVaUwOg5UY3L9NAnvdq-87" value="IoT Rule" style="outlineConnect=0;fontColor=#232F3E;gradientColor=none;fillColor=#277116;strokeColor=none;dashed=0;verticalLabelPosition=bottom;verticalAlign=top;align=center;html=1;fontSize=12;fontStyle=0;aspect=fixed;pointerEvents=1;shape=mxgraph.aws4.rule;labelBackgroundColor=none;" parent="1" vertex="1">
          <mxGeometry x="625" y="560.5" width="46" height="78" as="geometry" />
        </mxCell>
        <mxCell id="jZVaUwOg5UY3L9NAnvdq-88" value="Users&lt;br&gt;" style="outlineConnect=0;fontColor=#232F3E;gradientColor=none;fillColor=#232F3E;strokeColor=none;dashed=0;verticalLabelPosition=bottom;verticalAlign=top;align=center;html=1;fontSize=12;fontStyle=0;aspect=fixed;pointerEvents=1;shape=mxgraph.aws4.users;labelBackgroundColor=none;" parent="1" vertex="1">
          <mxGeometry x="687" y="717.4999999999999" width="78" height="78" as="geometry" />
        </mxCell>
        <mxCell id="jZVaUwOg5UY3L9NAnvdq-89" value="Amazon&lt;br&gt;Comprehend&lt;br&gt;Medical&lt;br&gt;" style="outlineConnect=0;fontColor=#232F3E;gradientColor=#4AB29A;gradientDirection=north;fillColor=#116D5B;strokeColor=#ffffff;dashed=0;verticalLabelPosition=bottom;verticalAlign=top;align=center;html=1;fontSize=12;fontStyle=0;aspect=fixed;shape=mxgraph.aws4.resourceIcon;resIcon=mxgraph.aws4.comprehend;labelBackgroundColor=none;" parent="1" vertex="1">
          <mxGeometry x="923.0000000000001" y="556" width="78" height="78" as="geometry" />
        </mxCell>
        <mxCell id="jZVaUwOg5UY3L9NAnvdq-90" value="Amazon Personalize" style="outlineConnect=0;fontColor=#232F3E;gradientColor=#4AB29A;gradientDirection=north;fillColor=#116D5B;strokeColor=#ffffff;dashed=0;verticalLabelPosition=bottom;verticalAlign=top;align=center;html=1;fontSize=12;fontStyle=0;aspect=fixed;shape=mxgraph.aws4.resourceIcon;resIcon=mxgraph.aws4.personalize;labelBackgroundColor=none;" parent="1" vertex="1">
          <mxGeometry x="923.0000000000001" y="717.5" width="78" height="78" as="geometry" />
        </mxCell>
        <mxCell id="jZVaUwOg5UY3L9NAnvdq-91" value="Amazon&lt;br&gt;Pinpoint&lt;br&gt;" style="outlineConnect=0;fontColor=#232F3E;gradientColor=#F54749;gradientDirection=north;fillColor=#C7131F;strokeColor=#ffffff;dashed=0;verticalLabelPosition=bottom;verticalAlign=top;align=center;html=1;fontSize=12;fontStyle=0;aspect=fixed;shape=mxgraph.aws4.resourceIcon;resIcon=mxgraph.aws4.pinpoint;labelBackgroundColor=none;" parent="1" vertex="1">
          <mxGeometry x="1210.5" y="147.5" width="78" height="78" as="geometry" />
        </mxCell>
        <mxCell id="jZVaUwOg5UY3L9NAnvdq-92" value="User" style="outlineConnect=0;fontColor=#232F3E;gradientColor=none;fillColor=#232F3E;strokeColor=none;dashed=0;verticalLabelPosition=bottom;verticalAlign=top;align=center;html=1;fontSize=12;fontStyle=0;aspect=fixed;pointerEvents=1;shape=mxgraph.aws4.user;labelBackgroundColor=none;" parent="1" vertex="1">
          <mxGeometry x="1431.5000000000002" y="147.5" width="78" height="78" as="geometry" />
        </mxCell>
        <mxCell id="jZVaUwOg5UY3L9NAnvdq-93" value="API" style="outlineConnect=0;fontColor=#232F3E;gradientColor=none;fillColor=#232F3E;strokeColor=none;dashed=0;verticalLabelPosition=bottom;verticalAlign=top;align=center;html=1;fontSize=12;fontStyle=0;aspect=fixed;pointerEvents=1;shape=mxgraph.aws4.external_sdk;labelBackgroundColor=none;" parent="1" vertex="1">
          <mxGeometry x="1436.5000000000002" y="256" width="68" height="78" as="geometry" />
        </mxCell>
        <mxCell id="jZVaUwOg5UY3L9NAnvdq-94" value="API&lt;br&gt;" style="outlineConnect=0;fontColor=#232F3E;gradientColor=none;fillColor=#232F3E;strokeColor=none;dashed=0;verticalLabelPosition=bottom;verticalAlign=top;align=center;html=1;fontSize=12;fontStyle=0;aspect=fixed;pointerEvents=1;shape=mxgraph.aws4.external_sdk;labelBackgroundColor=none;" parent="1" vertex="1">
          <mxGeometry x="1436.5000000000002" y="359.5" width="68" height="78" as="geometry" />
        </mxCell>
        <mxCell id="jZVaUwOg5UY3L9NAnvdq-97" value="AWS Lake&lt;br&gt;Formation&lt;br&gt;" style="outlineConnect=0;fontColor=#232F3E;gradientColor=#945DF2;gradientDirection=north;fillColor=#5A30B5;strokeColor=#ffffff;dashed=0;verticalLabelPosition=bottom;verticalAlign=top;align=center;html=1;fontSize=12;fontStyle=0;aspect=fixed;shape=mxgraph.aws4.resourceIcon;resIcon=mxgraph.aws4.lake_formation;labelBackgroundColor=#ffffff;" parent="1" vertex="1">
          <mxGeometry x="1210" y="556" width="78" height="78" as="geometry" />
        </mxCell>
        <mxCell id="jZVaUwOg5UY3L9NAnvdq-98" value="Execute Model" style="outlineConnect=0;fontColor=#232F3E;gradientColor=none;fillColor=#D05C17;strokeColor=none;dashed=0;verticalLabelPosition=bottom;verticalAlign=top;align=center;html=1;fontSize=12;fontStyle=0;aspect=fixed;pointerEvents=1;shape=mxgraph.aws4.lambda_function;labelBackgroundColor=none;" parent="1" vertex="1">
          <mxGeometry x="1210" y="717.4999999999999" width="78" height="78" as="geometry" />
        </mxCell>
        <mxCell id="jZVaUwOg5UY3L9NAnvdq-99" value="Related &quot;Casual&quot;&lt;br&gt;Data&lt;br&gt;" style="outlineConnect=0;fontColor=#232F3E;gradientColor=none;fillColor=#BE0917;strokeColor=none;dashed=0;verticalLabelPosition=bottom;verticalAlign=top;align=center;html=1;fontSize=12;fontStyle=0;aspect=fixed;pointerEvents=1;shape=mxgraph.aws4.fleet_management;labelBackgroundColor=none;" parent="1" vertex="1">
          <mxGeometry x="1431" y="556" width="78" height="78" as="geometry" />
        </mxCell>
        <mxCell id="jZVaUwOg5UY3L9NAnvdq-100" value="Research&lt;br&gt;" style="outlineConnect=0;fontColor=#232F3E;gradientColor=none;fillColor=#116D5B;strokeColor=none;dashed=0;verticalLabelPosition=bottom;verticalAlign=top;align=center;html=1;fontSize=12;fontStyle=0;aspect=fixed;pointerEvents=1;shape=mxgraph.aws4.sagemaker_notebook;labelBackgroundColor=none;" parent="1" vertex="1">
          <mxGeometry x="1436" y="738" width="68" height="78" as="geometry" />
        </mxCell>
        <mxCell id="jZVaUwOg5UY3L9NAnvdq-102" value="2" style="rounded=1;whiteSpace=wrap;html=1;fillColor=#007CBD;strokeColor=none;fontColor=#FFFFFF;fontStyle=1;fontSize=22;labelBackgroundColor=none;" parent="1" vertex="1">
          <mxGeometry x="319" y="507.5" width="40" height="38" as="geometry" />
        </mxCell>
        <mxCell id="jZVaUwOg5UY3L9NAnvdq-103" value="3" style="rounded=1;whiteSpace=wrap;html=1;fillColor=#007CBD;strokeColor=none;fontColor=#FFFFFF;fontStyle=1;fontSize=22;labelBackgroundColor=none;" parent="1" vertex="1">
          <mxGeometry x="491" y="674.5" width="40" height="38" as="geometry" />
        </mxCell>
        <mxCell id="jZVaUwOg5UY3L9NAnvdq-104" value="5" style="rounded=1;whiteSpace=wrap;html=1;fillColor=#007CBD;strokeColor=none;fontColor=#FFFFFF;fontStyle=1;fontSize=22;labelBackgroundColor=none;" parent="1" vertex="1">
          <mxGeometry x="880" y="218" width="40" height="38" as="geometry" />
        </mxCell>
        <mxCell id="jZVaUwOg5UY3L9NAnvdq-105" value="6" style="rounded=1;whiteSpace=wrap;html=1;fillColor=#007CBD;strokeColor=none;fontColor=#FFFFFF;fontStyle=1;fontSize=22;labelBackgroundColor=none;" parent="1" vertex="1">
          <mxGeometry x="880" y="363" width="40" height="38" as="geometry" />
        </mxCell>
        <mxCell id="jZVaUwOg5UY3L9NAnvdq-106" value="7" style="rounded=1;whiteSpace=wrap;html=1;fillColor=#007CBD;strokeColor=none;fontColor=#FFFFFF;fontStyle=1;fontSize=22;labelBackgroundColor=none;" parent="1" vertex="1">
          <mxGeometry x="880" y="539" width="40" height="38" as="geometry" />
        </mxCell>
        <mxCell id="jZVaUwOg5UY3L9NAnvdq-107" value="8" style="rounded=1;whiteSpace=wrap;html=1;fillColor=#007CBD;strokeColor=none;fontColor=#FFFFFF;fontStyle=1;fontSize=22;labelBackgroundColor=none;" parent="1" vertex="1">
          <mxGeometry x="880" y="695" width="40" height="38" as="geometry" />
        </mxCell>
        <mxCell id="jZVaUwOg5UY3L9NAnvdq-108" value="9" style="rounded=1;whiteSpace=wrap;html=1;fillColor=#007CBD;strokeColor=none;fontColor=#FFFFFF;fontStyle=1;fontSize=22;labelBackgroundColor=none;" parent="1" vertex="1">
          <mxGeometry x="1130" y="525" width="40" height="38" as="geometry" />
        </mxCell>
        <mxCell id="jZVaUwOg5UY3L9NAnvdq-96" value="Amazon&lt;br&gt;SageMaker&lt;br&gt;" style="outlineConnect=0;fontColor=#232F3E;gradientColor=#4AB29A;gradientDirection=north;fillColor=#116D5B;strokeColor=#ffffff;dashed=0;verticalLabelPosition=bottom;verticalAlign=top;align=center;html=1;fontSize=12;fontStyle=0;aspect=fixed;shape=mxgraph.aws4.resourceIcon;resIcon=mxgraph.aws4.sagemaker;labelBackgroundColor=#ffffff;spacingTop=7;" parent="1" vertex="1">
          <mxGeometry x="1210" y="416.49999999999983" width="78" height="78" as="geometry" />
        </mxCell>
        <mxCell id="jZVaUwOg5UY3L9NAnvdq-163" value="" style="group" parent="1" vertex="1" connectable="0">
          <mxGeometry x="252.50000000000006" y="743.5" width="21" height="26" as="geometry" />
        </mxCell>
        <mxCell id="jZVaUwOg5UY3L9NAnvdq-162" value="" style="rounded=0;whiteSpace=wrap;html=1;labelBackgroundColor=#ffffff;fontSize=14;align=center;strokeColor=none;" parent="jZVaUwOg5UY3L9NAnvdq-163" vertex="1">
          <mxGeometry width="21" height="26" as="geometry" />
        </mxCell>
        <mxCell id="jZVaUwOg5UY3L9NAnvdq-161" value="" style="outlineConnect=0;fontColor=#232F3E;gradientColor=none;fillColor=#B3B3B3;strokeColor=none;dashed=0;verticalLabelPosition=bottom;verticalAlign=top;align=center;html=1;fontSize=12;fontStyle=0;aspect=fixed;pointerEvents=1;shape=mxgraph.aws4.encrypted_data;labelBackgroundColor=#ffffff;" parent="jZVaUwOg5UY3L9NAnvdq-163" vertex="1">
          <mxGeometry width="21" height="26" as="geometry" />
        </mxCell>
        <mxCell id="jZVaUwOg5UY3L9NAnvdq-164" value="" style="group" parent="1" vertex="1" connectable="0">
          <mxGeometry x="253.00000000000006" y="667.5" width="21" height="26" as="geometry" />
        </mxCell>
        <mxCell id="jZVaUwOg5UY3L9NAnvdq-165" value="" style="rounded=0;whiteSpace=wrap;html=1;labelBackgroundColor=#ffffff;fontSize=14;align=center;strokeColor=none;" parent="jZVaUwOg5UY3L9NAnvdq-164" vertex="1">
          <mxGeometry width="21" height="26" as="geometry" />
        </mxCell>
        <mxCell id="jZVaUwOg5UY3L9NAnvdq-166" value="" style="outlineConnect=0;fontColor=#232F3E;gradientColor=none;fillColor=#B3B3B3;strokeColor=none;dashed=0;verticalLabelPosition=bottom;verticalAlign=top;align=center;html=1;fontSize=12;fontStyle=0;aspect=fixed;pointerEvents=1;shape=mxgraph.aws4.encrypted_data;labelBackgroundColor=#ffffff;" parent="jZVaUwOg5UY3L9NAnvdq-164" vertex="1">
          <mxGeometry width="21" height="26" as="geometry" />
        </mxCell>
        <mxCell id="jZVaUwOg5UY3L9NAnvdq-167" value="" style="group" parent="1" vertex="1" connectable="0">
          <mxGeometry x="253.00000000000006" y="579" width="21" height="26" as="geometry" />
        </mxCell>
        <mxCell id="jZVaUwOg5UY3L9NAnvdq-168" value="" style="rounded=0;whiteSpace=wrap;html=1;labelBackgroundColor=#ffffff;fontSize=14;align=center;strokeColor=none;" parent="jZVaUwOg5UY3L9NAnvdq-167" vertex="1">
          <mxGeometry width="21" height="26" as="geometry" />
        </mxCell>
        <mxCell id="jZVaUwOg5UY3L9NAnvdq-169" value="" style="outlineConnect=0;fontColor=#232F3E;gradientColor=none;fillColor=#B3B3B3;strokeColor=none;dashed=0;verticalLabelPosition=bottom;verticalAlign=top;align=center;html=1;fontSize=12;fontStyle=0;aspect=fixed;pointerEvents=1;shape=mxgraph.aws4.encrypted_data;labelBackgroundColor=#ffffff;" parent="jZVaUwOg5UY3L9NAnvdq-167" vertex="1">
          <mxGeometry width="21" height="26" as="geometry" />
        </mxCell>
        <mxCell id="jZVaUwOg5UY3L9NAnvdq-170" value="" style="group" parent="1" vertex="1" connectable="0">
          <mxGeometry x="253.00000000000006" y="439.5" width="21" height="26" as="geometry" />
        </mxCell>
        <mxCell id="jZVaUwOg5UY3L9NAnvdq-171" value="" style="rounded=0;whiteSpace=wrap;html=1;labelBackgroundColor=#ffffff;fontSize=14;align=center;strokeColor=none;" parent="jZVaUwOg5UY3L9NAnvdq-170" vertex="1">
          <mxGeometry width="21" height="26" as="geometry" />
        </mxCell>
        <mxCell id="jZVaUwOg5UY3L9NAnvdq-172" value="" style="outlineConnect=0;fontColor=#232F3E;gradientColor=none;fillColor=#B3B3B3;strokeColor=none;dashed=0;verticalLabelPosition=bottom;verticalAlign=top;align=center;html=1;fontSize=12;fontStyle=0;aspect=fixed;pointerEvents=1;shape=mxgraph.aws4.encrypted_data;labelBackgroundColor=#ffffff;" parent="jZVaUwOg5UY3L9NAnvdq-170" vertex="1">
          <mxGeometry width="21" height="26" as="geometry" />
        </mxCell>
        <mxCell id="jZVaUwOg5UY3L9NAnvdq-173" value="" style="group" parent="1" vertex="1" connectable="0">
          <mxGeometry x="252.50000000000006" y="404.5" width="21" height="26" as="geometry" />
        </mxCell>
        <mxCell id="jZVaUwOg5UY3L9NAnvdq-174" value="" style="rounded=0;whiteSpace=wrap;html=1;labelBackgroundColor=#ffffff;fontSize=14;align=center;strokeColor=none;" parent="jZVaUwOg5UY3L9NAnvdq-173" vertex="1">
          <mxGeometry width="21" height="26" as="geometry" />
        </mxCell>
        <mxCell id="jZVaUwOg5UY3L9NAnvdq-175" value="" style="outlineConnect=0;fontColor=#232F3E;gradientColor=none;fillColor=#B3B3B3;strokeColor=none;dashed=0;verticalLabelPosition=bottom;verticalAlign=top;align=center;html=1;fontSize=12;fontStyle=0;aspect=fixed;pointerEvents=1;shape=mxgraph.aws4.encrypted_data;labelBackgroundColor=#ffffff;" parent="jZVaUwOg5UY3L9NAnvdq-173" vertex="1">
          <mxGeometry width="21" height="26" as="geometry" />
        </mxCell>
        <mxCell id="jZVaUwOg5UY3L9NAnvdq-176" value="" style="group" parent="1" vertex="1" connectable="0">
          <mxGeometry x="253.00000000000006" y="369" width="21" height="26" as="geometry" />
        </mxCell>
        <mxCell id="jZVaUwOg5UY3L9NAnvdq-177" value="" style="rounded=0;whiteSpace=wrap;html=1;labelBackgroundColor=#ffffff;fontSize=14;align=center;strokeColor=none;" parent="jZVaUwOg5UY3L9NAnvdq-176" vertex="1">
          <mxGeometry width="21" height="26" as="geometry" />
        </mxCell>
        <mxCell id="jZVaUwOg5UY3L9NAnvdq-178" value="" style="outlineConnect=0;fontColor=#232F3E;gradientColor=none;fillColor=#B3B3B3;strokeColor=none;dashed=0;verticalLabelPosition=bottom;verticalAlign=top;align=center;html=1;fontSize=12;fontStyle=0;aspect=fixed;pointerEvents=1;shape=mxgraph.aws4.encrypted_data;labelBackgroundColor=#ffffff;" parent="jZVaUwOg5UY3L9NAnvdq-176" vertex="1">
          <mxGeometry width="21" height="26" as="geometry" />
        </mxCell>
        <mxCell id="jZVaUwOg5UY3L9NAnvdq-179" value="" style="group" parent="1" vertex="1" connectable="0">
          <mxGeometry x="1350" y="384.5" width="21" height="26" as="geometry" />
        </mxCell>
        <mxCell id="jZVaUwOg5UY3L9NAnvdq-180" value="" style="rounded=0;whiteSpace=wrap;html=1;labelBackgroundColor=#ffffff;fontSize=14;align=center;strokeColor=none;" parent="jZVaUwOg5UY3L9NAnvdq-179" vertex="1">
          <mxGeometry width="21" height="26" as="geometry" />
        </mxCell>
        <mxCell id="jZVaUwOg5UY3L9NAnvdq-181" value="" style="outlineConnect=0;fontColor=#232F3E;gradientColor=none;fillColor=#B3B3B3;strokeColor=none;dashed=0;verticalLabelPosition=bottom;verticalAlign=top;align=center;html=1;fontSize=12;fontStyle=0;aspect=fixed;pointerEvents=1;shape=mxgraph.aws4.encrypted_data;labelBackgroundColor=#ffffff;" parent="jZVaUwOg5UY3L9NAnvdq-179" vertex="1">
          <mxGeometry width="21" height="26" as="geometry" />
        </mxCell>
        <mxCell id="jZVaUwOg5UY3L9NAnvdq-182" value="" style="group" parent="1" vertex="1" connectable="0">
          <mxGeometry x="1350" y="282" width="21" height="26" as="geometry" />
        </mxCell>
        <mxCell id="jZVaUwOg5UY3L9NAnvdq-183" value="" style="rounded=0;whiteSpace=wrap;html=1;labelBackgroundColor=#ffffff;fontSize=14;align=center;strokeColor=none;" parent="jZVaUwOg5UY3L9NAnvdq-182" vertex="1">
          <mxGeometry width="21" height="26" as="geometry" />
        </mxCell>
        <mxCell id="jZVaUwOg5UY3L9NAnvdq-184" value="" style="outlineConnect=0;fontColor=#232F3E;gradientColor=none;fillColor=#B3B3B3;strokeColor=none;dashed=0;verticalLabelPosition=bottom;verticalAlign=top;align=center;html=1;fontSize=12;fontStyle=0;aspect=fixed;pointerEvents=1;shape=mxgraph.aws4.encrypted_data;labelBackgroundColor=#ffffff;" parent="jZVaUwOg5UY3L9NAnvdq-182" vertex="1">
          <mxGeometry width="21" height="26" as="geometry" />
        </mxCell>
        <mxCell id="jZVaUwOg5UY3L9NAnvdq-185" value="" style="group" parent="1" vertex="1" connectable="0">
          <mxGeometry x="1350" y="581.5" width="21" height="26" as="geometry" />
        </mxCell>
        <mxCell id="jZVaUwOg5UY3L9NAnvdq-186" value="" style="rounded=0;whiteSpace=wrap;html=1;labelBackgroundColor=#ffffff;fontSize=14;align=center;strokeColor=none;" parent="jZVaUwOg5UY3L9NAnvdq-185" vertex="1">
          <mxGeometry width="21" height="26" as="geometry" />
        </mxCell>
        <mxCell id="jZVaUwOg5UY3L9NAnvdq-187" value="" style="outlineConnect=0;fontColor=#232F3E;gradientColor=none;fillColor=#B3B3B3;strokeColor=none;dashed=0;verticalLabelPosition=bottom;verticalAlign=top;align=center;html=1;fontSize=12;fontStyle=0;aspect=fixed;pointerEvents=1;shape=mxgraph.aws4.encrypted_data;labelBackgroundColor=#ffffff;" parent="jZVaUwOg5UY3L9NAnvdq-185" vertex="1">
          <mxGeometry width="21" height="26" as="geometry" />
        </mxCell>
        <mxCell id="jZVaUwOg5UY3L9NAnvdq-188" value="" style="group" parent="1" vertex="1" connectable="0">
          <mxGeometry x="1350" y="672" width="21" height="26" as="geometry" />
        </mxCell>
        <mxCell id="jZVaUwOg5UY3L9NAnvdq-189" value="" style="rounded=0;whiteSpace=wrap;html=1;labelBackgroundColor=#ffffff;fontSize=14;align=center;strokeColor=none;" parent="jZVaUwOg5UY3L9NAnvdq-188" vertex="1">
          <mxGeometry width="21" height="26" as="geometry" />
        </mxCell>
        <mxCell id="jZVaUwOg5UY3L9NAnvdq-190" value="" style="outlineConnect=0;fontColor=#232F3E;gradientColor=none;fillColor=#B3B3B3;strokeColor=none;dashed=0;verticalLabelPosition=bottom;verticalAlign=top;align=center;html=1;fontSize=12;fontStyle=0;aspect=fixed;pointerEvents=1;shape=mxgraph.aws4.encrypted_data;labelBackgroundColor=#ffffff;" parent="jZVaUwOg5UY3L9NAnvdq-188" vertex="1">
          <mxGeometry width="21" height="26" as="geometry" />
        </mxCell>
        <mxCell id="hp-zWktDtnVuOCw3ZCTB-7" value="" style="edgeStyle=orthogonalEdgeStyle;rounded=0;orthogonalLoop=1;jettySize=auto;html=1;fillColor=#d5e8d4;strokeColor=#82b366;strokeWidth=2;" parent="1" source="jZVaUwOg5UY3L9NAnvdq-60" edge="1">
          <mxGeometry relative="1" as="geometry">
            <mxPoint x="410" y="1215" as="targetPoint" />
            <Array as="points">
              <mxPoint x="400" y="1215" />
              <mxPoint x="400" y="1215" />
            </Array>
          </mxGeometry>
        </mxCell>
        <mxCell id="jZVaUwOg5UY3L9NAnvdq-60" value="Developer" style="outlineConnect=0;fontColor=#232F3E;gradientColor=none;fillColor=#232F3E;strokeColor=none;dashed=0;verticalLabelPosition=bottom;verticalAlign=top;align=center;html=1;fontSize=12;fontStyle=0;aspect=fixed;pointerEvents=1;shape=mxgraph.aws4.user;labelBackgroundColor=none;" parent="1" vertex="1">
          <mxGeometry x="230" y="1179" width="90" height="90" as="geometry" />
        </mxCell>
        <mxCell id="AmXLDjNfCaVPL390mNVF-1" value="Gitlab" style="shape=image;verticalLabelPosition=bottom;labelBackgroundColor=default;verticalAlign=top;aspect=fixed;imageAspect=0;image=data:image/png,iVBORw0KGgoAAAANSUhEUgAAAfQAAAH0CAYAAADL1t+KAAAAAXNSR0IArs4c&#xa;6QAAQABJREFUeAHtvQmYJFd153sjt8rKWrqqq6v3pfbWxioZjAEDkhDIQkLq&#xa;6gKZzSCMAEmNtlavEmhmkBBiEbaHGY89zzOeeePPwwA2fvbHG4+xh8HYBgs/&#xa;ZhAW6qrW1uqlupbeu6oyMyLeOdWdUmVWLhGRsdx743+/L6syIu5y7u9Gxok4&#xa;cc89QiCBAAiAAAiAAAiAAAiAAAiAAAiAAAiAAAiAAAiAAAiAAAiAAAiAAAiA&#xa;AAiAAAiAAAiAAAiAAAiAAAiAAAiAAAiAAAiAAAiAAAiAAAiAAAiAAAiAAAiA&#xa;AAiAAAiAAAiAAAiAAAiAAAiAAAiAAAiAAAiAAAiAAAiAAAiAAAiAAAiAAAiA&#xa;AAiAAAiAAAiAAAiAAAiAAAiAAAiAAAiAAAiAAAiAAAiAAAiAAAiAAAiAAAiA&#xa;AAiAAAiAAAiAAAiAAAiAAAiAAAiAAAiAAAiAAAiAAAiAAAiAAAiAAAiAAAiA&#xa;AAiAAAiAAAiAAAjUI2DUO4hjwRE4NCZas2LoDdbC6V+s+bPjk8G1hJpBAARA&#xa;IHgCR8eGLktZyVzvt575CbVmB98iWqgkAIVeSSTA7altg++wzdTX8/PGkF0U&#xa;KVsYi/yTKdtMpsV0usX6Ys+3DjwRoAioGgRAAAR8IcAPJS3Frf/aXDDGigXR&#xa;blsXrmeGYduJlFhIZ+3vF+ziJzZ85+AhXxpEJQ0JQKE3RNR8hpdu2dCTKrb/&#xa;uHDe6C8p8Vq1plvsM5lccXvPNyf+slYe7AcBEACBKAnMbh95dO5M8gGTHkzq&#xa;yWEkbLulw/7z1d9+5qZ6+XDMHwJQ6P5wrFnL89u2rGuZzz5dWEisqJmp4kAy&#xa;aZstHdb2Vd868KcVh7AJAiAAApESmNq29XfnTxm3N3o4WSpkS7v14zXfeeaN&#xa;S/fhu/8EEv5XiRpLBL4hRLJlvvUZN8qcy5qmkZw/k/jW7Pb+t5bqwn8QAAEQ&#xa;iJrAzOjIV9wqc5Z54WziDcdv3vqDqOXXvX0o9ABH+OrRrb9TWDA6vDRhmUai&#xa;kM/8By9lUQYEQAAE/CZw7DrRNn82+Rk3T+ZLZVg4Y7x5ZtvQLy/dh+/+EoBC&#xa;95fny7WNXy9a5s8av/nyDg9f8ueMgeO3DL7bQ1EUAQEQAAFfCSTbR/59o3fm&#xa;9RrkGwHTTP5BvTw41hwBKPTm+NUs3dU68ttW0UjXzODgAP8A7GLq6w6yIgsI&#xa;gAAIBEaAXx/mzyW3N9vAwlnjkumxkTc0Ww/KVycAhV6dS9N7i3njlqYroQrI&#xa;xa2fTV1+1IU6QAAEQMALgWtGRz7TzNN5qc3FhxTT2Fvaxn9/CUCh+8tzsTae&#xa;2V6cN1b5UTX7dmY6tuIH4AdM1AECIOCJQLGY+JinglUK0bXx6iq7scsHAlDo&#xa;PkCsrKJNZD9n2xcWWag85mW7UBC3eimHMiAAAiDgBwFSwpf6UQ/XUVwQHUdu&#xa;HLnEr/pQzysEoNBfYeHbN7Ng+LqIQoHM7k9eKZp6H+9b51ARCIBArAjMjo7c&#xa;7oe5vQSNze7ptPhcaRv//SMAhe4fy8WaXrhhc3dhTqz1s1p2YevrG97lZ52o&#xa;CwRAAAScECBz++1O8rnJU1xIXOcmP/I6IwCF7oyT41y5bPYhP83tpYatQuJD&#xa;pe/4DwIgAAJhEcjPi1f73VZxXnSfuLWvz+96414fFLrPZ4CVT4z6XOVidWR2&#xa;H2bXkSDqRp0gAAIgUI3A7PuGPtSs+221ehd90hcyD1c7hn3eCUChe2e3rCS7&#xa;l+XnxKZlB3zYwcvBsuuID1WhChAAARBwRKCYT93hKKOHTMVC4tc8FEOROgSg&#xa;0OvAcXso1TmyPwhze0kOP11HSnXiPwiAAAjUIlCYF6+vdazZ/VT3KnbxbbYe&#xa;lH+FABT6Kyya/kZxgd/fdCV1KvDTdaROMzgEAiAAAmJ6+/A28thpCQoFP/yw&#xa;i29Q9cexXih0n0ad126nQCx9PlVXtRp2HZndPvzJqgexEwRAAAR8JGAXkzt8&#xa;rK5qVX67+FZtJEY7odB9GuyVbcO72L3Mp+pqVlMsJD9R8yAOgAAIgIBPBGh2&#xa;e+CR0djF99C7Nq70SeTYVxO4AooLYTOf/GAYfQ3ChSQMudEGCICAOgSmxobe&#xa;Rk/P2aAlZrN7tj33YNDtxKV+KHQfRprdyWiCx5APVTWsgl1IpseGPtwwIzKA&#xa;AAiAgEcCdiEZWvwIM280HcXNYze1KwaF7sOQXjM2cje7lflQlaMqrELq044y&#xa;IhMIgAAIeCBA0SLf6qGYpyKFOWPj1Ju3dngqjEJlBKDQy3B42yjm/YtE5ESC&#xa;IF1JnLSPPCAAAvoSmBrdepW5IFrD6iGb3ZPr7NAsAmH1K4p2oNCbp26QO1mo&#xa;kYPYlYRdSpoXHTWAAAiAQDkB2xaf5ZXcyvcGu0UeQoG6/AYrvTy1Q6E3ORaz&#xa;o0Of8jMSkVNxLDOJVeOcwkI+EAABxwTMeePtjjP7lJFdftn116fqYlsNFHqT&#xa;Q180U7/ZZBWeihfnxBs9FUQhEAABEKhBYGZ06HKKV95e43Bgu9nll11/A2sg&#xa;JhVDoTc50KRYX9VkFZ6KF8mlZGr70Ns9FUYhEAABEKhCwLSSnwvb3F4SIyzX&#xa;31J7Ov6HQm9iVE9sH/lIkdzImqiiqaK2mcJEkqYIojAIgMBSAuRCdu3S7TC/&#xa;0xobiCjZJHAo9CYAFgqJSN3HKKbwW5oQH0VBAARA4GUCk+/fNEjXlK6Xd4T8&#xa;hc3u12wfvjfkZrVqDgq9ieEsLIjXNVG86aLkK5qbHht5Q9MVoQIQAIHYE0gU&#xa;cpGZ20vwaWnr3yh9x3/3BKDQ3TNbLDEztnV7kJGInIpFd7VYNtEpLOQDARCo&#xa;SYAeEK6veTCkA7TGxqXUVKgucyF1LZRmoNA9YjaLRuCRiJyIRiFb3+4kH/KA&#xa;AAiAQC0Ch94zsoEm+PbUOh7WflraOsmuwGG1p1s7UOgeR5SiBEnhNkbvvNpn&#xa;bxm8wmM3UAwEQAAERLYlEbm5vTQMUbkCl9pX+T8UuofRmx7berUM5nYWnV1M&#xa;LJH6rIduoAgIgAAILBKgpV5vlAVFVK7AsvS/GTmg0D3QI7PQHg/FAiuSz4t3&#xa;BlY5KgYBENCawNHr1/bSu+s1snSSXYHZJVgWeVSSAwrdw2jRSkpv9lAssCK0&#xa;VOOK42MbQwnfGlgnUDEIgEAkBNK5FQ9ygJRIGq/RaNQuwTXEkn43FLrLIZrZ&#xa;NvTLxQUj57JYoNnZ7G4U2z4XaCOoHARAQEsC5H4rXaAnkun1WsIOuFNQ6C4B&#xa;m3Ziv8sioWSnpWDfHUpDaAQEQEAbAjPXD3VStMgNsnWI5ihlZrZvHZNNLtnl&#xa;gUJ3OULmQuJtLouEkp1dTg6/d3BTKI2hERAAAS0I2G3J/bKZ20tgTdO4q/Qd&#xa;/50RgEJ3xmkx1+Qt/a+JIhKRExHZ7J5JYra7E1bIAwIgcIEALSbzPllZyOIa&#xa;LCufanJBoVejUmMfqcyHoopEVEOkst3045TG9aRMMGyAAAhIR+DQmGildSw2&#xa;SyfYRYHYNZhdhGWVT0a5oNBdjIq1IK5xkT30rPTjXM0uKKE3jAZBAASUI5Cz&#xa;R3ZxQBSZBZfNRVhmViyb1IMpE7ypWwZGCuQeJpNMlbLwu7B0W+dDlfuxDQIg&#xa;AAKVBIr5xAcr98m2LZuLsGx8KuWBQq8kUmvbSH9WZnN7SWzySb+l9B3/QQAE&#xa;QKAagSevFGlaTGaw2jGZ9rGLMLsKyySTzLJAoTscHXo/rYRbWJ5cUA6ODUht&#xa;SXCIHNlAAAQCIjAwsPUe2c3tpa6bdgoRJUswGvyHQm8AiA8fuXFgM7mFrXSQ&#xa;NfIsbHZfYaf3RS4IBAABEJCWAEVpVCbuOM0NktJVWMbBhUJ3MCrptBrm9lJX&#xa;ZHZFKcmI/yAAApERMPIL4pLIWnfZsJkXbewy7LJYLLNDoTsYdjNvvMdBNmmy&#xa;sCsKu6RIIxAEAQEQkIbA7OjInSbFHZdGoAaCLC5tTS7DDbLhMBGAQm9wGkze&#xa;tHoNTR5Z3SCbVIf53Ri5pOyWSigIAwIgIAUBimb2cSkEcSGE7C7DLroSaFYo&#xa;9AZ4jXTXQ7IujVhPdHJJ+UC94zgGAiAQTwKF+cQVqvWcXYbZdVg1ucOWFwq9&#xa;AXFrwbi5QRYpD7NLCrumSCkchAIBEIiEwMzo1tvMokhF0ngTjS66DJPrcBNV&#xa;xKIoFHqdYWb3L7ozXF8ni7SH2Oze17/1PmkFhGAgAAKhEygWxSdDb9SnBlVx&#xa;Hfapu56qgUKvg63LSksbiaiO2C8fosl8H3l5A19AAARiT4AWanmtqhDYdXiW&#xa;XIhVlT8MuaHQ61CmGONKx+OlZRO3UveMOl3EIRAAgZgQmNk28n6OM65qd9ns&#xa;XkylP6eq/GHIDYVeg/Kx60Rbfk5sqXFYid3smsIuKkoICyFBAAQCJWBa6scX&#xa;twrGDYFCUrxyKPQaA5hsH95tW4byT7cquqjUGBLsBgEQaIJAcd64qoniUhRl&#xa;F2J2JZZCGAmFgEKvMShWMfnrNQ4ptVtFFxWlAENYEFCAwNTo0I30CjGrgKh1&#xa;RWQXYnYlrpspxgeh0KsM/sVIRANVDim3i11U2FVFOcEhMAiAgH8EzOTd/lUW&#xa;bU2quhKHQQ0KvQrlgb6R+1WJRFRF/GW7TFN8atlO7AABEIgNgcKC8Su6dJZd&#xa;iV+4YXO3Lv3xsx9Q6FVo0ntnrdy96AeAwAZVxhm7QCAOBGa3Db6ZfLi1ie3A&#xa;Zvf2bOveOIyd2z5CoVcQ+4YQycKcodUSg+yqMrt95NaKrmITBEAgBgSKVkq7&#xa;cMqFvPG+GAyd6y5CoVcgu3p0+E7TVCcSUYX4NTfJ6gD3tZp0cAAE9CVAN/S/&#xa;qlvvaLb7ZnYt1q1fzfYHCr2CoFVI3FaxS4tNHVxWtBgIdAIEQiQwdfPglRRO&#xa;WTvFxy7F6fatiChZcS5BoVcAKSwkLq/YpcUmu6zMvm/oRi06g06AAAg4ImAb&#xa;yf2LgU0c5VYrE1kdtXAt9pM6FPoSmjOjI59QMRLRki7U/Wrmk/fUzYCDIAAC&#xa;WhGwFhJXa9WhJZ0hs/vA+PWiZcmu2H+FQl9yCtBSqbcv2dTuK00keZN2nUKH&#xa;QAAEqhI4OjZ0WWFBdFY9qMFOdi3uyY3cq0FXfOsCFPoSlHnN3bso0lLr7Pb+&#xa;ty7pMr6CAAhoSiBVTDyoq7m9NGS6uRiX+uX1PxT6RXJTY8MfsIpG2itIVcoV&#xa;ixn4b6oyWJATBJogUMwn3tVEcSWKsosxuxorIWwIQkKhX4Rs5xN3hMA78ibM&#xa;BQNP6JGPAgQAgWAJnLi1r49mt2u/mhq7GF8ztvWuYGmqUzsU+sWxoqURlY9E&#xa;5OS0K+ZFG7uyOMmLPCAAAmoSMPMtn9Xd3F4ameKCuK30Pe7/odDpDJjePvRe&#xa;WnwhFrMl+UfOrixxP/HRfxDQmQBNhnuPzv1b2rfiQuKypdtx/g6FTqNvaRSJ&#xa;yMnJbC4krnGSD3lAAATUI/D8ti3raALsKvUk9ybxhYiSI5/wVlqvUlDoNJ40&#xa;sSJW7lxkoupglxa9TmX0BgRAgAm0G9mHOIBJnGjo7nLsdCxjr9CnxobeRub2&#xa;rFNgOuRjs3vKTDykQ1/QBxAAgXICZt54b/ke/bd0dzl2OoKxV+h2MbnHKSyd&#xa;8tF7p+t06g/6AgIgIMRLt2zoyc+JdXFjwS7H7Hoct35X9jf2Cp2ClsTSjYtd&#xa;WiZHNw9UnhDYBgEQUJdAa6JtX9zM7aXRiovrcam/1f7HWqFPv3/kl8y8yFUD&#xa;o/s+Nrsn7SzM7roPNPoXKwKFfGJ7rDq8pLNxcT1e0uVlX2Ot0O2CsS8uvprL&#xa;Rp520A/ghmr7sQ8EQEA9AlNv3tpRmBOb1JPcH4nZ9Xh6dORmf2pTs5ZYK3Qy&#xa;t1+t5rD5IzW7thx6z8gGf2pDLSAAAlESMNbYe+Jqbi9xpzjpnyl9j+P/2Cr0&#xa;mdGhy9l9K46DXuoz//izLcaDpW38BwEQUJdAsWDcqq70/kiej5kLciW12Cp0&#xa;00rEZmnEykFfuh1HF5el/cd3ENCBAMcFJ4tbnw59aaYP7II8tW3wHc3UoXLZ&#xa;+Cr0fOKdKg+cX7LTO7e17OriV32oBwRAIHwC3bnhnRwfPPyW5WvRtlO75JMq&#xa;HIlieQJMvn/TILltdYWDWO5W2OzekmjD2u5yDxOkA4G6BKxC4kN1M8ToYFxd&#xa;kXmIY6nQk/nWh+I8u73yt23lE6OV+7ANAiCgBoFvUDxwWiltRA1pg5eSXZGn&#xa;x0beEHxL8rUQS4VeLCR+Tb6hiE4iWllqE7u8RCcBWgYBEPBK4JrRkc/A3P4K&#xa;PX5Yo7XdY2l1jJ1CZzctem8cm0hEr5zmtb+x2Z1dXmrnwBEQAAFZCRSLiY/J&#xa;KltUclkLxtujajvKdmOn0LMZA+b2KmccXF6qQMEuEJCfgFGYF4icWDFO7JI8&#xa;Ozbwqord2m/GTqGTW8NN2o+qhw6yywu7vngoiiIgAAIREZgaHf4kBSZJRtS8&#xa;tM2y2b1YTMVujY1YKfSj16/tZTctac/CCAXjd3DdbcMPRCgCmgYBEHBJgKJF&#xa;/qbLIrHJbsbQNTlWCj2d69gf96UR6/2a6QcA15d6gHAMBCQjQO63r5ZMJGnE&#xa;Ydfk42Mbh6QRKARBYqXQi/nEthCYKttEYd4YZhcYZTsAwUEgRgSmx4Y+XKQ4&#xa;4DHqsquustk9UczFyuweG4V+cGxgRWHO2OjqjIhZZja7XzM2cnfMuo3ugoCS&#xa;BKxC6tNKCh6i0HFzUY6NQu+2U7thbm/8SyKz+0cb50IOEACBqAnQ7PYro5ZB&#xa;9vbZRfnwewdjE1I2NgqdYn+/X/aTTwb58hdcYAwZZIEMIAAC1QlMbx/eRh47&#xa;mepHsbdEgM3umWQyNmb3WCj0Q2OilRR6X2mQ8b82AXaBYVeY2jlwBARAIGoC&#xa;tpmMddxvN/zJ6hgbV+VYKPScvRWRiFz8Auhi8QkX2ZEVBEAgZAJkSn5jyE0q&#xa;2xy9mljDLsvKdsCF4LFQ6LQKGtyxXJwUxTkjdissucCDrCAQKYHp0ZFr6ZqW&#xa;jVQIhRrnuVPssqyQyJ5F1V6hP3mlSNPdbKx8ET2fDRcLFosiPb198CPN1oPy&#xa;IAAC/hOwrAQWgHKJNS4uy9or9P7+4bsRicjl2U/ZrUIaLjHusaEECAROgBZM&#xa;eUvgjWjWALsss+uyZt1a1h3tFXqxkPyNZb3GjoYECgvi9Q0zIQMIgECoBCa3&#xa;D/5KMW/kQm1Ug8bY7M6uyxp0pW4XdFfoBt3NXlqXAA5WJcAuMTOjw6NVD2In&#xa;CIBAJAQMK4Uwxx7JF/LGrR6LKlNMa4U+Ozr0KQp0j6VMPZ6OlpXc4bEoioEA&#xa;CARAwIxpnG8/UNLS1lvYhdmPumStQ2uFTuHz4H7VxJkH15gm4KEoCPhMYPKW&#xa;/teQxbHd52pjUx3PpcpZI1pPKNRaodMdGdyvmvi5smsMu8g0UQWKggAI+ETA&#xa;EJkHeeUzn6qLZTXFYuKDOndcW4U+PTb8UbMoUjoPXhh9IxeZXWG0gzZAAATq&#xa;EyjmBW6u6yNqeJRdmNmVuWFGRTNoq9DNfPJTio6JVGIXF8SbpRIIwoBADAlM&#xa;3dS/1Zw3tHe7Cnpo2ezOrsxBtxNV/doqdFJEr4sKqk7tFheMHLvK6NQn9AUE&#xa;lCOQhLndrzHT2ZVZS4U+s33rGCIR+XX6C2GYyb3+1YaaQAAE3BKg+SzvdlsG&#xa;+asTuOjKrOVcBC0Vumkad1UfSuz1QsBcSLzNSzmUAQEQaJ7A7I0Dm4tzoqf5&#xa;mlADE2BXZprse4eONLRU6HC38vdUpdcX7cdHt+AVhr9YURsIOCJgptMPYXa7&#xa;I1SOM1nFxMcdZ1Yoo3YKfWZ06F1kbm9RaAykF3XxYmJl90kvKAQEAQ0JmHnj&#xa;Rg27FWmXdHVp1k6hW2ZqZ6RniqaNW3CZ0XRk0S2ZCUzetHoNxfNeLbOMKsrG&#xa;Ls3s2qyi7PVk1k6hU1ARzMiuN+Iej9Ed7YojN45c4rE4ioEACHggkMx07efA&#xa;Ih6KokgDAjq6Nmul0GfHBt6CSEQNzmKPh9nsnskY+z0WRzEQAAEPBMj3/BYP&#xa;xVDEAQEdXZu1UujFYgaRiBycyF6zFBaM672WRTkQAAF3BF64YXN3ft7Y4K4U&#xa;cjslsBhRklycneZXIZ9eCn1ewL0qwLOOXGdWntjWvyXAJlA1CIDARQJtra17&#xa;YG4P9nTQzcVZG4U+dfPglWZetAU7/PGunc3uRQoQEW8K6D0IhEOAXh++L5yW&#xa;4tuKbi7O2ih0O5HaC1/N4H+YcKEJnjFaAIFj14k2UjawhgV8KrCL8/FbBrVZ&#xa;hU8bhW7OIxJRwOf+YvXsQvP8ti3rwmgLbYBAXAmkO0Z22RZmt4cx/oadvj+M&#xa;dsJoQwuFfnRs6DIKItIZBrC4t8Hv9NqNFiwyE/cTAf0PlIBZSPx6oA2g8pcJ&#xa;6OTqrIVCT5nJ/TC3v3x+Bv6Fbp7gShM4ZTQQVwLj14uW/LwYjGv/w+43uzrP&#xa;bu9/a9jtBtGeFgqdBuRdQcBBndUJ0CIz69mlpvpR7AUBEGiGQHfb1ns4bncz&#xa;daCsOwJFs2W3uxJy5lb+pDlxa18fu1PJiVdPqRbN7tlWhFTVc3jRq4gJ0MTT&#xa;j0QsQuyap5CqWrg8K6/QCwstiEQUwc+P4jNrtSBDBAjRJAgsI/ANIZKkXLYu&#xa;O4AdgRJgl2d2fQ60kRAqV16hWwXjhhA4oYkKAvnzYgu71lTsxiYIgEATBK4d&#xa;Hfk0LXaSbKIKFPVAgOdg2UZS+cm+Sit0dp9CJCIPZ68PRdjszq41PlSFKkAA&#xa;BC4SKBYNLeN0qzDA5oJxjQpy1pNRaYVO7lOIRFRvdAM+BteagAGj+rgRMArz&#xa;iSvi1mlZ+suuz+wCLYs8XuRQWqHT5JGbvXQaZfwhwK417GLjT22oBQTiTWBm&#xa;29bbOE53vClE13s2u7MLdHQSNN+ysgr9pVs29OTnjPXNI0ANXgmwa013buRe&#xa;r+VRDgRA4BUCpiU++coWvkVBQHUXaGUVeqvRtheRiKI45cvbNIuJD5fvwRYI&#xa;gIAXAvSA8lov5VDGPwLsAj05unnAvxrDrUlZhV4oJLaHiwqtVSNAP4Ct7GpT&#xa;7Rj2gQAIOCMwu33kVqtopJ3lRq6gCLDZ3bBalTW7K6nQp968tYMiEW0OalBR&#xa;r3MC7GJz9ejwnc5LICcIgEAlAZrdjt9QJZSItlV2hVZSoSfWiAdgbo/obK/S&#xa;LM12v63KbuwCARBwSICWU/4lh1mRLWAC7Ap96D0jGwJuJpDqlVTodDeLSESB&#xa;nA7eKi0uJC6nkoa30igFAvEmMPu+oRs5Lne8KcjTe35YbMkIJReZUU6hs5sU&#xa;3UENyDP8kIRdbdjlBiRAAATcEzDzyXvcl0KJIAmQ2V1Jl2jlFHp328h9iEQU&#xa;5KnsrW643HjjhlIgUFgw3gQKchEozBnr2DVaLqkaS6OcQqc7J7hJNR7X0HPA&#xa;5SZ05GhQAwJT2wbfQb7PrRp0RasusNmdXaNV65RSCp3do0hxIBKRhGcZu9zM&#xa;jg5jboOEYwOR5CVgW6kH5JUu3pKp6BqtlEK/ZmzrXTC3y/sjKxYTcL2Rd3gg&#xa;mYQEKCDIWyUUCyIRAXaNZhdplWAopdCLC+I2leDGTVZ6F3hV3PqM/oKAVwLT&#xa;YyNvKOSNdq/lUS5YAmx2ZxfpYFvxt3aVFLpBCoPdo5AkJcCuNyfGhm6SVDyI&#xa;BQJSEbCKYo9UAkGYZQSKRfGBZTsl3qGMQp8ZHflNek+LJUYlPplYtGIhebfk&#xa;IkI8EJCCgLmQUD7+thQgAxSCFvzpVymipDIK3Swatwc4bqjaJwJwwfEJJKrR&#xa;msDs2MCr6BWiUu9ntR6QGp1bjCjZNnJ/jcPS7VZGoRfnjddIRw8CLSPALjjT&#xa;Y1uvXnYAO0AABF4mYJqpfRwI5OUd+CItAXKV/pC0wlUIpoRCn90+9EFa7hWR&#xa;iCoGT9ZNejeo1EQSWTlCLn0J0HLJ1+nbO716xq7SqkSUVEKhF4vJO/Q6RfTu&#xa;DVlT4Iqj9xCjd00QOD62cag4L7qbqAJFQyTAZnd2mQ6xSc9NKaHQaWIC3KE8&#xa;D3H4Bcns3jazbeiXw28ZLYKA/AQSZm4/zO3yj9NSCVVxmZZeoU+PjtxM7lCZ&#xa;pXDxXX4Clkjull9KSAgC4ROgiaM3hN8qWmyGwEWXaennPEiv0G3L+EwzA4Gy&#xa;0RAgs/vV0bSMVkFAXgKH3zu4iX4bq+SVEJJVI8Au07OjI5+odkymfdIrdJqQ&#xa;gEhEMp0xDmVhl5zZ0f5XO8yObCAQCwKZFGa3qzrQtLS19K7TUit0MrdfS+b2&#xa;rKonQJzl5neEpp1WLlpRnMcMfQ+egJk33ht8K2ghCAJkWZH+AUVqhU6zC3cG&#xa;MTCoMxwChYXEu8JpCa2AgPwEjl6/tpcCfqyVX1JIWI0ALQObZhfqasdk2Se1&#xa;Qqe72bfIAgpyuCdgzouuqVsGRtyXRAkQ0I9AKte5lwN+6Nez+PRIdhdqaRX6&#xa;5PbBX6GZhW3xOVX06ymb3W2R2qdfz9AjEHBPwMonRt2XQgmZCMjuQi2tQhdm&#xa;Cm5PMp3JHmWxColf81gUxUBAGwIHxwZW5OfEJm06FNOOsAs1u1LL2n1pFbq1&#xa;YLxdVmiQyzkBeme4il11nJdAThDQj8AKM7UL5nY9xlVmV2opFfrxsb7XIhKR&#xa;Jic/md0zydR+PXqDXoCANwLFgnGrt5IoJRsBmV2ppVToopjZi6URZTuNvctD&#xa;ZqqbvJdGSRBQm8ChMdFaXDD61O4FpC8RYFdqdqkubcv0X0qFbuYT75QJEmRp&#xa;jgC76kzetHpNc7WgNAioSSBnD+/kAB9qSg+pqxGQ1aVaupNs6qb+rRSJqKsa&#xa;ROxTkwC/O0xkVuxRU3pIDQLNETDzSal9l5vrXTxLy+pSLZ1CN1It+2Bu1+9H&#xa;Yi7AZUe/UUWPGhF48kqRzs+L4Ub5cFwtAuxSza7VskktnUIv5AXcnGQ7S3yQ&#xa;pzBnbGTXHR+qQhUgoAyB/oGRHTC3KzNc7gSV0LVaKoU+e+PA5uKc6HFHFblV&#xa;IMBm924bawuoMFaQ0T8CNB/oo/7VhppkIiCja7VUCt1Mp/bD3C7TKeuvLGSm&#xa;er+/NaI2EJCagFGYF5dJLSGE80yAXauPj255necKAigol0LPJ+DeFMAgy1Jl&#xa;ft7oP3adwHK+sgwI5AiUwNTo8CdNiqMdaCOoPDICiw+fVlaqiJLSKHR2a6K7&#xa;Wbg2RXZ6Bt8wrbBkpDuH7wu+JbQAAtETsM3kJ6KXAhIESYBmu0vljy6NQk+m&#xa;uxGJKMgzT5K64cIjyUBAjMAJ0ERQ6eNnBw5B8wbYxfrIjSOXyNJNaRR6oSAQ&#xa;iUiWsyJAOdiFh115AmwCVYNA5ARObB/5iFkUqcgFgQCBEmCzeyadkMbsLoVC&#xa;f+GGzd3F88aGQMmjcikIsAtPf//IZ6QQBkKAQEAECoXEpwOqGtVKRkAmV2sp&#xa;FHpbtnU3IhFJdpYGKE6xAFeeAPGiagkIFBbE6yUQAyKEQIBdrdnlOoSmGjYh&#xa;hUI3C+J9DSVFBm0I0HunS78hBGb/ajOi6MhSAjOjw6McN3vpPnzXlwCb3dnl&#xa;WoYeRq7Q2Y2JwtH1yQADMoRDgF15rh0duj2c1tAKCIRLwLKSO8JtEa1FTYAW&#xa;EJLC5TpyhZ7uGLmf3ZmiHhC0Hy6Bopn6zXBbRGsgEA4Bii74xnBaQiuyEGCX&#xa;6+e3bVkXtTyRK/RiMYFIRFGfBRG0D5eeCKCjycAJzIwNvrtI8bIDbwgNSEWA&#xa;54C1G9nII0pG6lYxvkO05OasLdl2PKBLdXaGI0zq9AdH/s/c2QQGPxzeaCUE&#xa;AplWqyu11gqhJTQhG4HkCvtdUcsUqUIf2Dy40+4WLeIpWwgzahRoP2wCZKZ6&#xa;1clj0Odhc0d7wRFYuVEII0HXM6R4EWin7m61R05v3NDTue/wTFSdj9bknk1+&#xa;iNS5EINRdR/tRkkgxWOPBAKaEMh2WKTMNekMuuGcAD8WD9EnaRitmdZIZ7tH&#xa;dvp9Y0wk7TZ7ZJFaF/3FsjKLKOL0h6dC5rphnozTmOvc17aVeDLXeXxr9o2V&#xa;+UUnxUTOiHTF08gU+i1vGLpbpJfcz64nKCtqIsMBTQnkunAR1HRoY9etTGvs&#xa;uowO83Iyna9gsHNi09SurR2v7An3W2QKPZFNfLSsq/wqlU3vWI6hDIvuG2nM&#xa;B9Z9iGPRv5Y2mNtjMdBLO9lNG2uX7qDvZHbvWm1GNts9KoVukLn9sgoUYjGU&#xa;wTDtxTypZWh03cFm99YumN11Hd+49KutB5amuIz1Yj/5QWSgeo+NrHFr9SPB&#xa;741Eoee/OPBJMrdXX/qzjTrdF3zH0YI8BNpgdpdnMCCJJwItOU/FUEhFAqw1&#xa;+cGzugYTok30HfqqiOQFTCQKPdnaYJWwXoLFH6RYEIDZPRbDrG0nU1mY27Ud&#xa;3God4yfzeuo6ZSTWmsM7qxUNel8kCt1uE69u2LEtlIOf1pG0J8BTI9nlBwkE&#xa;VCTQ2Qtzu4rj5klmfme+0kHJViOSFVBDV+j5Lw59mCa+pRsiYcnYHYB9/JC0&#xa;JwCXH+2HWNsOZvDgoe3YlnWM565vKttTc8PI2cNP3u5Az9WswduB0BU6TRi4&#xa;w7GoWHTGMSrVM8LlR/URjKf8qQyZ2zGJV//B50dQfsB0Otbkkv264aHQo+6F&#xa;r9DbjNe7Gn32TaflFJH0JsBmd3b9QQIBlQh0rOZo2CpJDFldE+DxZWXe2K5c&#xa;XnWla3b50UC2QlXoxS8MjNJSr+49zTkoHa8mh6Q1Abj+aD28WnauBeZ2Lce1&#xa;rFO8eIyHpWIuumaHersXqkIXuaQ3EwQjGaAP1v4uO89024Drj24jqnd/EinM&#xa;btd7hKl3PAFujcdekmv2oou2x+JeioWs0MUbvQi5WIYnx7HvX7gSexYXBd0T&#xa;YLM7uwAhgYAKBDrXwNyuwjh5lpFd0/o9l14saLQmP9FcDe5Kh6YeC18YuFZk&#xa;jeYW+uTFG/rcdRC51SIAFyC1xivO0mZhbtd3+Fkz8gNkrcVjHPbcaDNe5TCr&#xa;L9lCU+hGLvmALxKvolq8mkB8EQCVBEkALkBB0kXdfhFYNLc3ebH3SxbUEwCB&#xa;QaqzucfPC0KRi3bx8cGPBCBh1SpDU+i0ss5bqkrgZSf7AnJAeSTtCPCMYXYF&#xa;QgIBmQl00GIymN0u8wg1IRtPwubAKz4lO5v4tE9VNawmFIV+/rHBXxGthn+r&#xa;HbPU7EbA79WRtCLAF0l2BUICAZkJZD3Mepa5P5DtIgEOheqzm7SRc+mq3cRg&#xa;hKLQMy0J/8PJsfMbK3Uk7QjAFUi7IdWqQ0bCEgmY27Ua08XOsE5hUzs9VPia&#xa;yFV70WXb10qrVxaKQhc54+3Vm29yL99NOVyKr8mWUDxEAjzbPZGG2T1E5GjK&#xa;BYFOLCbjgpYiWVmJ8wOi28VjnHbPq8u20/ov5gtcoee/sOV1IhfgG2+f33e4&#xa;5IfsARBgsztfNJFAQEYCMLfLOCpNysTBwIKcl5VrwmXbRdcCV+hGNrOP5PHb&#xa;iFHexQHa9GNGYnmt2IqQAFyCIoSPpmsTYHM75u7U5qPiEfacWh2w4OSyXfhC&#xa;/3UBtxL8Mi1Gq7g26E4s+gpi0ZnAMYfZgEHvKNk1CAkEZCLQ2UtPJ8E+nsjU&#xa;Xf1lCXFtE6M1FXiM9ECf0Bce7ruEYppzeJXgkw+r+gQvJFpwSgCz3Z2SQr4w&#xa;CWQ78CooTN6BtsUTG/m9eaBacEkPcuLNS7YC+RpoV4zOzP5Q72d7iBEHoEfS&#xa;gkA2yHdaWhBCJ8IlYIlkUJOmwu0IWmMCPKM9zFe15LpdeHQwUKUeqEJPtIrr&#xa;Qz9zsOhM6MiDapBdgxL0zhIJBGQg0A5zuwzD4I8MG6iaKCJ4ZgNw4V5CJDCF&#xa;PvfwwGbRZnOsmnBT0O4H4fYm1q3B7B7r4Zeu87kVMLdLNyheBOKXwOu9FGy+&#xa;DK3t/rbma6ldQ2AKPd2Reohmj0QzfQSLztQeccWOwEVIsQHTVlyY27UY2qAW&#xa;j3EKh1y4F125neZ3mS8whS5y9o0uZfE3Oy/NuNnfKlFb+AQWXYRgdg8fPFos&#xa;I9BO83MiejwpkwMbTRDgx0v2horW7dC46MrdREdqFw1EoZ99ZPUamt0etGdf&#xa;7V6VjvAEufCN/qXW8d8HAnwRZVchJBCIkkBrF8ztUfL3pe0+qkWCkLcU1SQw&#xa;V+5AFHo2u2J/ZOb2ypHvpx3s0oakLAG4Cik7dJoIblEEQE26Etdu8EOBLA8G&#xa;ObFi0aU7gLEIRKGTK8AtAcjqrcqwfQ29SYlSdQhccBXCbPc6iHAoQAJtZOWD&#xa;uT1AwEFXzU/lW4JuxE39NLlsRfpBNyWc5vVdoZ/cs7mb1sRlpwB5Ej+hD8gj&#xa;DiRxR4Avph2y3F27Ex25NSCQg7ld3VHk9+VhLh7jkFQia7zbYVZX2XxX6G2r&#xa;WvaKhIT3s/wunQO5IClJoBUuQ0qOmw5Cp1p06EVM+8CLx8g4fuTSPfeFvj6/&#xa;R8V3hW60GmN+C+lbfRy4nme/IylHAGZ35YZMC4FbuyyY21UdSb7eh7PwuHtC&#xa;ZHVPZ3glVX+Trwr92E6aQ9hmS/W2ogwXmW4DjXlb1hg2/CTANh92HUICgTAJ&#xa;tHVjdnuYvH1ri1eBk90iG4Brt68KvWftyC6RlNDcvvQs4bWY2ReRlTuSUgTg&#xa;OqTUcGkhbFpGc60WZAPsBI/ZAH1kv8aTa/e5R1b5etvhq0JPtNi/HuAw+Vc1&#xa;B/2Q147gXz81q+mC6xBmu2s2rNJ2p7WTzO2+XiGl7ao+gvF4Rb94jDOeZHZv&#xa;ae3a5yyzs1y+na7jO0SL3b4Yv8ZZy1Hn4mVvYMKNehRctc+2H3YhQgKBMAjk&#xa;VsLcHgZnX9voo9o4xrkqKWv46uLtm0Lv2zx0j0gpdj/bT6OORWdUOfUX5YQL&#xa;kVLDpbSwmTBDaypNShLh15AcqySRxakYbWL9oqu30/wN8vmm0EXW+EiDtuQ7&#xa;XDLP8OIzSEoQgAuREsOkvJAtHTC3KzWIvHgMh85WLZGLdwe7evuUfFHo3xij&#xa;qXDtYqtPMoVbDd+FD4TbJFrzToDN7jlyJUICgSAJtMPcHiRef+vmxWP4vbkv&#xa;2sxf0RzV5qOrty8IRn9p+A4yt6v7nNtN2COKj+towJGpjEAOrkRlPLDhP4EM&#xa;XsX5DzWoGnklOIXX2rfJ1XvR5dsHPr4odCsrPu6DLNFWwYvVyroIQbRkpGs9&#xa;jXeb0o2JTgKlW2FuV2Y82czeqYy01QUlV+9Fl+/qR13t9UOhG0abcbmrVmXM&#xa;zD6LA/RR+E5PRqxByMRmd3YpQgKBIAh09GJ2exBcfa+TLau+enH7LqHjCv1y&#xa;+W5aoRe/OHQbKUF+i6F+wqIzyowhXIqUGSrlBM2o5PakHF2fBNZs7hO7fLPr&#xa;d7N0mlbodtb4ZLNCSFWeZ0v2SSURhKlCAC5FVaBgV9MEUlmY25uGGHQFrLV4&#xa;Epy6s7aWEyKX74FNQ/cuP+BuT9MKncztr3XXpAK5OVQnwnVKPVC84gG7FiGB&#xa;gJ8EOlbZ0q8Y6md/layrn6TWcNKi1dq863dTCr342OCtZCRgQ7V+iZeGhelN&#xa;6nGFa5HUw6OkcC1soUOSl8BaEk3TFT7J9XuEXcCbgd+UQidz+13NNC51WSbD&#xa;Zh09ZgdIjdqrcHAt8koO5aoRSGVgbq/GRZp9HINDxcVjnAIk1++brxq+02n2&#xa;avmaUuhkbr+qWqXa7CtF7dGmQ3p1hM3u7GKEBAJ+EODZ7ZLHivSjm2rWwXZg&#xa;9jdnbySNk9Eqbmume54VOs1uv4mWe216Vl4zwodSluPqso86kpQE4GIk5bAo&#xa;KVQLPwEiyUlA8cVjnEK96ALu+bbFs0Knd+d3OxVS+Xy8ihwrdiTpCMDFSLoh&#xa;UVKgRArmdmkHbjNJ1iGtdP4KRi7gi67gHmv1rtBzxps8tqleMb5fGqCP/vYI&#xa;5caGze7saoQEAs0Q6FwNc3sz/AIry+GSeSJcnFKrd1dwTwp97pHBd4hWsvbH&#xa;KfHkOJ4k59kYEidY4fWVh4NdjZBAoBkCMLc3Qy+gsqxh+gOqW+Zqc95dwT0p&#xa;9HTOeEBmHoHJxm5scTzBAgPqT8VwNfKHY1xrYXN7oilnobiSC7DfrJn4vXkc&#xa;x4VcwRceG/6AF7qeFLrIJd7qpTEtyqyiXqzWoifadGLR7E4uR0gg4IUAZrd7&#xa;oRZwmQGqP1424DKgyax9R9kOhxuuFXr+0eE30oIr8Z4PypM0sACFw1Ms+Gzs&#xa;aoTZ7sFz1rWFbFwmXKkygBxwhd+dxzm1JTy5hLtW6EarvSfOnBf7ztSw6IxU&#xa;pwHegUo1HMoIYyRgbpdqsPjmaqNUEkUjTFa0LLqGu2zdg0I3rnbZhp7ZOcwq&#xa;v+NBkoIAm935XSgSCLghAHO7G1oB543J4jGOKXpwDXel0BceG3gVmZphoCqN&#xa;SCd90XkpwlI/FfjPZnd2PUICATcEWvk3jBQ9Afr9Llo9WakjXSDgwTXclUJP&#xa;ZpP7yG+L0SOVCPD7nu7SBv5HSQBm9yjpK9g2m9vZHRUpegI8LyneM7OWjwG5&#xa;hhe+MOjKIu5KodNSr9ctbxV7xAAxyIJD1ATY9Qhm96hHQZ32O8hjBY8nEowX&#xa;R09bI4EcEopgtLpzEXes0Ocf3zgs2mw8i1YbdPaV5PfpjmlWqwT7miWA2e7N&#xa;EoxX+dZOvKKJfMTjuniMU/AuXcQdq6BUshXm9nqDgEVn6tEJ7RhckEJDrXhD&#xa;lkjifW20Y8gPQuwt5FgLRStuJK23irb854d+2WnbzlG2ihucVhrbfDAdRT70&#xa;bHZnVyQkEKhHoB3m9np4wjk2QM3gVWVD1ok2sbthposZHCn0858f3EQTFniN&#xa;NKRGBDC5oxGhQI/D7B4oXm0qz62AuT3SweQIlniB62wIWp27ijtS6KnWxH6a&#xa;PYLZ7U7wMyV+nw5znhNageSBK1IgWDWqlMztvI4EUjQE2FVwQzRNK9kquYrn&#xa;H+t/jRPZHSn0RKtxk5PKkOciASw6E+mpsOiKBLN7pGMgc+Pt9GoMjycRjRBf&#xa;Gwfpg8dDFwNgGIlsytEKrQ0V+pm9a3tFux23iLQuYNfIysvvsPkdKXQCi2Z3&#xa;vCAKnbsqDbZ2wdweyVixEudJcLBeusffYrzLSaGGCj3b074X5nYnKKvk4dug&#xa;uAcZqIIljF1wSQqDsoptWCIFc3s0A7eFmkVQK2/s2+2u+Uc3jDQq3FChJ3LG&#xa;aKNKcLwOgX46hpmcdQAFc+iCSxJmuwdDV91aczQRC+b2CMavl9pE2OkmwBtG&#xa;Kpsj1/H6qa5Cn31sYIXdhtXK6yNscBS+lg0ABXOYL9rsmoQEAksJ5GBuX4oj&#xa;nO+8Rgc/nSM1R6BV/FqjCuoq9I5kYrdI4H62EcSGx3k1pIGGuZDBZwJwTfIZ&#xa;qAbVpWEtC3cU8UDjH+82sWru4YG6M7PqKnQjZ7zfP2liXhO/S8fUwlBPgguu&#xa;STC7hwpd4sZauyyY28MeH57R3hJ2o5q2R67jyQ4OkFY71VToh74qaNE5wW+A&#xa;kfwiwKFWEXzWL5oN61k0u/PqfUggQATaYG4P9zxgX/OucJvUvbVGLuQ1Ffpa&#xa;c3inSMLc7usJwm4bWHTGV6SNKoOLUiNC8TkOc3uIY72C2uLV4JD8JUAu5Gcf&#xa;WV0zNl1NhS5ajQ/6KwlqWyTAPpis1Fm5IwVO4IKLEszugYOWvIFsJ5nba1/t&#xa;JJdeMfHYxI7FY4IZNDK7t2Q7ay4yU/UUf/J2kTbabF4CACkIAlh0JgiqVetk&#xa;GxO7KiHFm0BbNxaTCeUM4AcV1hypUFqLZSOJbG1X8qoK/XXDQztECvezgZ4t&#xa;bDTB+91AEZcqh6tSiUR8/2fY0wQpeAL91AS7qSEFRsBuFxtPPNxXdXZCVYUu&#xa;somPBiYNKn6FQB99xYXmFR4BfcO704DAKlJtSxvM7aEMFS8cg7UfgkdNruSd&#xa;Hald1RpaptC/MSaSdpt9WbXM2OczgZKPJv9HCowAm93ZZQkpngTaemBuD3zk&#xa;eUnXuh7SgUsQrway1V3Klyn0m39piN+gQ8WEdXrwQhcDYTUW33bgshTfsW+B&#xa;CTjYwef35fzefJk2CbbZONdOK7j2H9u5fGX8ZUNgZI2PxBlUJH3nSVtw8QgU&#xa;PczugeKVtvJ0K8ztgQ8Oe+0g4E3gmMsaIJfyntWDny7bRxvLFXqLuLwyE7ZD&#xa;IMCLMHSG0E5Mm+Apnuy6hBQvAh2rYG4PdMR5sSxctwJFXKtyI5O4ofJYmUI/&#xa;uWdzN03Saq/MhO0QCLC7B/tu4k43MNhwXQoMrbQVZxCuM7ix4XnW64KrHjU3&#xa;IJA1Xl2Zo0yht3el34XY55WIQtzGojOBwobrUqB4pas81QJze2CDwnN/+AEE&#xa;KToCLfYy17UyhW4nDQS5i254LrTM9hGMQiCjwGb3lnaY3QOBK2GlHb02FmQM&#xa;YlxYa/B7c0ydDoKu8zpTwmCvtKUFyhQ6hUrF1KyldKL6Dn/OwMi3rcQ71cDg&#xa;SlZxC8ztwYwIFo8JhqvrWg3jptdvLnv8K1Pohm1jwT7XUAMq0Ef1wt3Gd7hw&#xa;YfIdqZQVJjMwtwcyMFjhMhCsXis1FhJls67KFbolDnmtGOV8JsAjw76dZQYV&#xa;n9uIYXVsdmdXJiS9CSya23miKZJ/BPh1IM9qR5KEgG3/7MjzB5cKU6bQbct+&#xa;fulBfI+YQClqUcRi6NY8XJl0G9Hl/cnC3L4cSjN7ShN2yzRGMxWibNMEisK+&#xa;6vdEYWk9ZcMzb575GyFsvGRcSijq7zyPkX3UkXwjAFcm31BKWVEiReZ2WLb8&#xa;HZtBqq7MuOtv9ajNA4EFcaayVJlCb99/fFKcN85VZsJ2xAR4quKKiGXQqHk2&#xa;u7NLE5KeBDpX0+x2mNv9G9zNVBUWj/GPp0812fP2U5VVlSl0PmgvWL+ozITt&#xa;iAmUFp1hEzxS0wQYJ79jRdKTQAuWxvJvYFdSVWv9qw41+UcgkRd/XlnbMoVu&#xa;nLe/UpkJ2xIQYP8D9v3Ek4cvgwGXJl8wSldJImGJBMzt/owLLx7T709VqMVn&#xa;AgXbPJKa+K3KWpcp9NSeg38szi+3zVcWxHYEBHiiT18E7WrYJJvd2bUJSS8C&#xa;HTC3+zOgrBngZeMPyyBqOSN+uOk+MVdZ9TKFzhnss/Z/qMyIbUkI9JIcvPAM&#xa;UlME+B0rzO5NIZSycLZDSrHUE2qARG5VT+xYSGzb9sJ5675qfa2q0NP3j98t&#xa;ztmnqhXAPgkI8CQVuOU0PRBZvGttmqFUFbC5HUtjNT8k/M6c350jyUlgVvx1&#xa;296DP6kmXFWFvpjxlPVRuLBVQybBPh41fp+Oi1dTg8Fmd3ZxQtKDQCdZrzC7&#xa;vcmxZAsHFo9pEmKAxRdE/sSRxC21Wqip0FO7D/6pPS2+Vasg9kdMAIvOND0A&#xa;fPFnFyckPQhkOzCWTY1kafEY+l0gSUjAsm1z2v5Y7+PPLPM/L0lbU6FzhvS9&#xa;42P2SfGzUmb8l4wA+6ZvlEwmxcSBi5NiA1ZTXEskWSEheSPASpytfmDojV/g&#xa;pWzbmLYfa9kz/kf1mqqr0Lng//7ZgSuNU/ZEvUpwLEIC66jtZVFxI5RHsabZ&#xa;xYldnZDUJtABc3tzA8jzcjChsDmGgZWm1VuPiz9M3j+xr1ETDRU6rxWbvGt8&#xa;2J6xv0eVwabViGjYx/nOeoA+WHTGE/nF2e4wu3tiJ1Oh1hW4NHkejx4qyVHU&#xa;kOQjYNKU9qP2vtT94x9zIlxDhV6qJH3P+LX2pPVVQQ2U9uG/JAR4chz7jDoe&#xa;TUnklkQMuDpJMhCexYC53TM6dk3r91waBYMkMG8vFI/Z703vmnjMaTOuVEB6&#xa;58RO+4j1VnHervlS3mnDyOczAY6d3udznTGpbtHVCWZ3ZUe7nZ4wMbvdw/Dx&#xa;inp4EPAALvgi9Jr74NmDC+uyeyb+HzetscHWdRrfIVoGhkd+aHfbr8dPyTW+&#xa;YAu8QNVPBtuEjrWfnRHi9CTWDFVxbHsHTZHGKyf3Q8fKvNt9MZQIkECRgpjP&#xa;ii/TWjC7vbTiSaGXGso/PnRvYpXxJZFGsMISk8j/8/wuDq9zNnJJlBKgmBfi&#xa;+AQUulKDtiisJdZdiuhqrseNIzjCQ8Y1tkALnLdPWSeL12V2P/djr+24MrlX&#xa;NpLZNfFEcXLuElr5/VjlMWxHRIBHFIvOuIZ/weUJs91dg4u4QButaAZzu8tB&#xa;4FCoG1yWQfYACdDEt1n7Rz/9yXhvM8qcBWzqCX1pDwtfG/4LY6W4nn5dvtW5&#xa;tH58d0ngNOVHIFxX0M5MGeLMVFP3uK7aQ+bmCfQOkLmdo4IhOSOQoWyX0wf+&#xa;5s54BZ0rL4rWjHUPPRx/3Y+mfLt60Sz4G8Rhc0zMiwU/BEMdTRLgu3As4egK&#xa;IlyfXOGSInMK786djwM/amHxGOe8gs552j5SOJ4f9kuZs7i+P02ffnRDT64z&#xa;949ihdEfNA/U74DAOOU54SAfsgh2yDz6NP8kfLvPBdUACeS6LNG1Hl60jhH3&#xa;UU5EanSMK7CMtISrmLW/k7p3ouaa7F7b9v3K1bnv8EzqrvEB+9iizzpeSnod&#xa;Gb/KDVBFMEk6oskvi9pXOcqKTBIQyHVDmTseBj6vocwd4wos47w9L47ZNweh&#xa;zFlm3xV6CUT6gYn788cWfdb5bS5SVATga+qKPMzurnBFmhnvzh3ixxoVDkEF&#xa;m804aY+fnjHXpnZP/FlQLflucq8U9MnbRfo1lw//kCbMXYX5qJV0Qtyepbaw&#xa;In9D4DC7N0QkRYbWTkt0b8QTesPB4Bv6K+iDuQYNUQWWgXzLjVn7i07WYm9W&#xa;hsAVeknA/BeHP5PoFV+Fz3qJSAT/X6Q24WDYEPypY4Y4NxuY8aph+8jQmEBP&#xa;nyla+MkTqT6BETqM4E31GQV59Lx90poy35l58Nkng2ymVHdoV63M7vHfLk4u&#xa;jJDP+tFS4/gfMgGe9Y6ISg2h57rw5NcQUsQZMpgX0ngE2Nccyrwxp0BykK3v&#xa;hP333/6r8VVhKXPuRmhP6EuZFZ4Y/jOjR7wHPutLqYT0vUDtPEUf/o9UlQDM&#xa;7lWxSLOzpcMSPZtw01V3QFbQUX46j+QKX1cy/Q+yb/l0cUdm97O/G3ZnQ3tC&#xa;X9qx9L3jN5mHrVFB0WSW7sf3EAjwghLsi4ofek3YPNs9hyebmnyiPtC+Esq8&#xa;7hjw4jGD9MFvvC6mQA6etl8qHCoORqHMuT+RDvnJPZu72ze0/KPoMvj0QwqT&#xa;AAdweSHMBtVqKz8nxPRzPKMISTYC6y4xhRHJo4hsJKrIw1f0y+jTVuUYdgVH&#xa;gH3LT4hvp+4Z3x5cI41rjvRn0fXYiydSO8aH7OP244JmAjYWFzl8I7CGaqKw&#xa;k0jVCcAlqjqXqPdmchaUeb1B6KODUOb1CPl/bI58y4+KG6NW5tyxSBV6iSyH&#xa;irOOF99EcdZPlfbhfwgE+qiN1hDaUbAJNru3rsA9pmxD174K5vaaY8ILx/TW&#xa;PIoDARAgjfXMqSP2mtSe8b8IoHrXVUZqcq+Uln3WX3vF8P+iGL1vpLcBUslW&#xa;Kas22/PUk5/Tx9SmR751ZOG8EDPPw+zuG1AfKlpL5vaEFI8hPnTGzyr4qfxS&#xa;+oCNn1Rr18Vxy6fFF9IPjD9YO1P4R6RUmhRn/c5ET+JrIiNS4SOJYYu81juv&#xa;+Y5URoBfAh39BRR6GZQIN1JZS6wewBP6siHgqyRHUMPiMcvQBLLjnDixcMJ8&#xa;Z9vegz8JpP4mKpXyfo6jz3AUGkHRaJroG4o6JdBNGdc5zRyffDzxil2kkOQg&#xa;0NELZV51JHhKMZR5VTT+7qSJb7P23377ewd6ZVTm3Fcpn9CXDkLhiaE/MVYa&#xa;7xUJmOCXcvH9O18rn6EPVt4vQ7twjszuL+ApvQxKRBtrt5K5HUNRTn8jba4v&#xa;34WtAAgskG/5rHlnZtfB3wugdt+qlPIJfWnv0hxijqLTkM86v+1FCooA39rx&#xa;nT77sCK9TCCDSYMvs4jySyqD2e3L+PNaCbCsLcPi+44z4lj+mDkguzLnfkv/&#xa;hF4anNnHBlZ0tCX/0egyhkv78D8AAmepzqfpA+vmy3CnnzdE/rz0974vy6vj&#xa;l+4NJnkd6Ngzj31iE7FK3LwAACo2SURBVDu/N8csI48AHRQj33JrSvynzM7x&#xa;jzrILUUWZRR6iZb5laFH7ZXGbpHC0hIlJr7/P041Pu97rcpWOE83ObMvwtYb&#xa;5QDC3L6EPt9b8uIxCE6zBIrPX+fsOTFrjab2HPyuzzUHWp1yjx0cgs46bL6R&#xa;fNZPBkomzpWzP+uqOAMo7zuiepXzCHsrkYa5vYx5H21BmZch8XOD4pY/fWIi&#xa;Qb7lailzZqDcE3pp4L4xJpLb3jL0v8RK403wWS9R8fE/T+7+Z/qQLzaSEFPP&#xa;GqIwr9z9rxZD17XexNr6pZHkFR63lDbw31cC7Fs+Y3w+vfPA53ytN8TKlFXo&#xa;JUb5Lw58KrEq9TvwWS8R8fH/AtX1FH2w6IyYOyPEiUMwu/t4djmuas2IKZJ4&#xa;VyxEOyG7hD64r3R87jjOeI4M7CcWrs3sfeH/c1xGwozKnxoc1Yaj25DP+ksS&#xa;8lVbJJ54wzPfkQTM7tGcBImUBVc1Rs83NEP0Uf6KzZ2RKS36ln+ffMtXq67M&#xa;maryT+hLT43i14a/ScvGboPP+lIqPnw/THXwJ8aJY6RPHTREMY8rapinwYp1&#xa;pmjjhY/invjJvDPuEHzuf14UxLT16dTuif/L55ojq06rqxNHuykeFjcJjn6D&#xa;5B8BXrgi5i5DvKwRVirz75RyWlO2w2lOjfNtor5Bmfs7wGfEkfyz5/t1UuYM&#xa;SCuFzh3K7hv/c45+Y59YXPeMdyE1S4DtOFh0RrTwO0yk0AgkEjC3k8URi8f4&#xa;ecaxb/lx+w9SdxzYkHvkJe3sjlqZ3CvHvfCl4c8bq8Re+KxXkvG4TcugLs58&#xa;j+miM2x2nySzuwWzu8cTyF2xzjWmaO9xV0ar3FnqDS8eg7mY/gzrnH2+OFXY&#xa;lt3//H/3p0L5atFaoTPuc18YvLKlO/k/RNviva58I6CaRFMk8HOqCe2fvOdp&#xa;9YOTR3CF9Y9o7ZrWDNPs9nTt41ofYdspK3MsPezLMNsn7Z/PvDD+xrVfFvxY&#xa;om3SzuReOVIcFYej41CUnB/QeqYxfbaspNLEdi+V5U9ME8zuIQ08m9vj7Ko2&#xa;QJyhzJs/2QrkWz5pfS69Y/wK3ZU5w9L+CX3pGZF/fPD2xMrk1ynUYJwvFUuR&#xa;ePvOi87weu9a3+tWR7Nodh8ns3tR+3vh6gBC2tux2hIdq2J6/72WIG8OCbTO&#xa;zZwVM+ap4jta9jz7M527ubRvsVLo3PHznx/clFmZ/LHoEPyzQfJKgBed+Tl9&#xa;il4rULfcuRNCnDoKs3uQI7h6yBSpOEb+41n97KIWuyuzn2eTbdsz9v9M3zNx&#xa;DdUaq7vC2D1m5B48eIhmOK6zJu0/FDTj0c/TKFZ1xXjRGbhSBX2mW/F8d87z&#xa;BXjxGChz7yfYAvmWHxW3kTK/miqJ3fU9dgq9dKYshsQ7at1APutzpX3475IA&#xa;+6ZvdFlGg+wJejhnlyqkYAi0U2Ag9vuPVeL+sjKP6yRAPwabVgtdeGmuL7Vr&#xa;/D/6UZ2KdcTtZ7NsjKZ2be3o2mT9iOKsX7rsIHY0JsD3wOP0iVnsu3MzZHaf&#xa;hNm98QniPsfqQTK3swUoTmkLdZYDryC5J8CW1mn736fun7jdfWG9SsT2Cb00&#xa;jL2PP3OGZkBeZk+Kfyko2k5pP/47JMC3hAP0idkFOIuVuxyeIG6zkbk9bu/O&#xa;VxIjKHO3J8qF/ORbbh8xr4Myv4Aj9gq9dBZxyDzrWP4qmrk9W9qH/w4JsM/A&#xa;MH1idDYtulTB7O7wBHGejReSiZW5nV3T+p3zQc6XCdj2SfGz6QPjq9N7n/2r&#xa;l/fG/EuMLsGNR5qj7XDUHXvW/j581hvzKsuRo62+sj1abyyu7U7vepH8JdDa&#xa;FaN5THz15RthvLlxdxKRb7lxzHwovePAq+PgW+4GDhtMkaoQKH5x6ONiVeLf&#xa;Upx1TFOpwqfmrufpyPGaR7U6UMxTVydwNfZvUC2x7lI7Pk/orMwRSc7d6XPW&#xa;njan7Le3fHaCnWaRKghAoVcAWbp5fv/GDZn1uR9TpCOON4bkhADPQvgFfc46&#xa;yax2HnZ6PPo0/4Rg6PJjJHPdluhaF5Mn9HVEjKOoITkjQK7l4oT4Xuru8euo&#xa;QExOEmdolubClWgpjYrvHI0ndeeBDRydBz7rFXBqbfIZxe43/F5d88Rmd3ax&#xa;QvKHQK47JtdpnlAZQ3dPz2cJ+ZZbR+3fIGX+TqojJieJN1pQ6A64Ze4f/3jx&#xa;pcL15LN+3kF2ZOFZyqzUY5ByK3B98WuY03HwlODfxiB9YBt1dNoYp+1DC5Oz&#xa;WzK7J/6zowIxz4TTysUJcGynaOvdMvwPdpdxhYti8c16lLp+SO/uw+zuz/i2&#xa;dlmie73mN0d8teXVLtr9YaZ1LexbPiX+XWrn+Ke17qfPncMTugugPKMyuWP8&#xa;VRy9R9BMSxdF45mV3xNqPuln0ewe55jdPp3ZbXGY3b6FYEGZNz5j5sQ5+4h1&#xa;LZR5Y1SVOaDQK4k42E7vnPiX5tHi62jiF3zWG/EaoAzZRpnUPh4rV6uAhirN&#xa;/tg6J55rsVrnDvrSN9s4af/06NkDvem9B//alxpjVglM7s0NuFH82tBfiR7j&#xa;HTFbDsMdNV4tn51MNLVpwOzu7nSozJ3ttMTKjRqb23mNhsvog8enyqF/Zbto&#xa;m8aU/WBy18Rjr+zEN7cEcIq5JVae305xiD6K7iM4yg9SdQKar4bFZvec5q8W&#xa;qg+sP3vbdJ7dzssU8ARRXGlrnyxn7am5o/arocxrI3J6BE/oTkk1yHfu4U3r&#xa;W3qzPxKdBhxSarF6kQ4cq3VQ7f35eSGmn+WrN5JbAusuMYWhq8IbIRpdbonE&#xa;JD/7ls+Kv0zdM3499VhjE01446nrzyg8ghdbanv40JHUneObxHHr9+GzXgM/&#xa;L6Sh6aSgWLhc1RjWZna3tFv6KnNejgrKvPrpsSDy4qj9YVLm76YMUObVKbne&#xa;C4XuGln9Ahz1h6P/wGe9Cie2B7H5UcPFdNnszq5XSO4ItK3U9Fq+gjhscMci&#xa;NrlPixfmJ09uTu2e+C+x6XNIHYXJPSDQiz7rm0f+zu4Wr6ImwHkp5zO08fTS&#xa;HXp8z9OyQ9PPw+zuZjS1NLfz4jG8UkUMVkt0M9bCtG1rxv43mfsn7nJVDpkd&#xa;E8ATumNU7jIu+qx/5sBrOCoQfNYr2HXQ9uaKfRpsau965fMYpVs1NLfzrTsH&#xa;XYEyLz9bzouz9hH7HVDm5Vj83oJC95toRX3JBw4+Yr5kv1qcsWcqDsV7cy11&#xa;f6VeCBbN7uSCheSMQMcqDc3tfdT3Nmf9j0ku9i3/p6PnDqxO75v4fkz6HFk3&#xa;YQoODz35rA//d1Ji11J8SHBn7iZ9/pk+7KeuSVo4J8TMCzC7OxnOtTS7PaHT&#xa;I0Uv9brfSc9jkqdAvuUzYm/ygfEvxaTHkXdTp59T5DAbCEA+6+PXcdQg+Kxf&#xa;JKWhj25G9xXPGpzkTg+nspqZ2/mpfIvT3scg31n7uPli4Qoo83DHGk+K4fJe&#xa;bO3cI6vWZbu7/8HuMDR8k+wBKC+gO+GhnKRFZl40xMJZ3CvXG57ujaZo5TCi&#xa;OiR+X345feIQLa7ReF3wLf8uPbzc0CgrjvtPAFcd/5k2rLFt//TR5B3jWyjO&#xa;+r/jmZ8NC+iegd+lcyAXTZK2rlg+jk8LP9HqkgapI1DmgiyPeXHE+gCUeXQn&#xa;NhR6dOwFxVn/lH3UupbeIdOb15gnXl+PZ79rkFp47W6kmgRSGY3M7Xzess95&#xa;3NMp8dzcwdMbU3sO/nHcUUTZf5jco6R/se1DXxWta9PDf2d0Ga+hXfEdE14N&#xa;/yn6aLAq/vRzhsjP4X754ile9q9rgylyOihBXgWOXdTi+4ulia1kY58Rv5O+&#xa;f/zuskHGRiQE4nwqRgK8XqPm40N77F7j8yJlxHea9FkixIvOKP4iYp4Wz5k9&#xa;FN9hrHeer91Ks9tVR8Mmdn5vHmd/c/YtP1X4tfSu535Qb7xxLDwCeIQIj3XD&#xa;ljjaEEcdop/JVMPMumbgtd41mCqY0ekdsY/nWiKlgbmdr5qxXjyGnspPWE8+&#xa;99SBVVDmPv44fKgKT+g+QAygCqPwxPB3jR5xXWx91g8SVYWX4mEDw9SzhijO&#xa;45556e+jaz2Z21UPWDJAPVq1tFcx+r7oW27vSj4w8dUY9VqZruJqI+dQ2el7&#xa;KQoRRSNanDkqp4zBStVP1Svs0813ylquhNbkqLeoHm1vNQGIqzI/a08Wj52/&#xa;DMq8yR9BgMXxhB4gXD+qPvvI6jWtXV3/YHeKPj/qU6oOijEufk4fXlFOwWSR&#xa;3MeeUf1lsX/g2dy+Ztgmo5N/dYZaE79GuZQ+cXsMIgu7PS3+In3f+I2h8kZj&#xa;rgnE7dR0DSjqAu37j08m7zzQT3HWvx47n/Us0WfzpqLJoF8Xu2ghXSDAFgtl&#xa;lTlPfuP35nG7Ys6LBfOY/X4oczV+xXE7PdUYlSpSUpz1uzhakaCZpVUO67ur&#xa;m7q2Xs3usfJq71V8ur6P6LMqrzMwRCA4LGqc0in72fNT5za07Jr4b3Hqtsp9&#xa;VdX4pTLzpmRnn/X1qZEfUJz111NF8Rg/1okH6HOqKXSRFIbZ/QJ2I2GJtVsV&#xa;fULfRH3QaCXDhj8E9i2ftr+W3jlxX8O8yCAVgXgoBKmQ+yOM+aXhB+we8QWR&#xa;jonPOi82w+/T8/7wC6sWXth3ctwQVjHexrDONaZo7wmLuo/tsIWITe1xSedt&#xa;CvRsXZ/ed/CHcemyTv2M91VG4ZHkKEYczYh81o8r3A3noqcpK19YFbsFZbN7&#xa;52qY3ZU0tys+h8P5j4tz0lP5rP2j554a74Uyd0dOptyKXR5lQieNLEbha8N/&#xa;bqwU18fCZ52X3HlOGvaOBDGL9JR+IMaz3cncvk41czs/6lxOH4VdJx2dnJyJ&#xa;fctnxf3JneO/5bgMMkpJAE/oUg6LK6HsNIcqpChHsfBZ7yU2/FEo8TKn7LIV&#xa;19RBftvKzW7vp9GKgzI/I44VJ+cugTLX49eJJ3Q9xnGxF2f2ru1t3dDxI7HC&#xa;4MuRvol14z/T57w6XTxHMd9PHYvnU/rqIZPc99QZK7GGZN2ikLxeRCULu5ix&#xa;v5O6d+IWL8VRRk4CeEKXc1w8SdXxhWNTqbvGB+zj9m9r7bPOZy2/T1coMIaS&#xa;75A9nYWVhSyR5PkPqiRNYgnUxT1vL4jD5hiUeV1KSh6EQldy2OoLzaEM7ePF&#xa;t2nts87Rrgbqc5DpaIJuPhL0LjluqV0lczvfeLC/ucZ2S+OkPX7u8Nz61N5n&#xa;vxW3czEO/dX41I3D8NXv4/gO0dI/NPwDsVJcpeBbzPqdKx09TF/4o0A6S8Fm&#xa;Tk/Gy+zeO2iKNN98qZB4WVeVF7+px9i0LfItf4J8y3fWy4ZjahOAQld7/BxJ&#xa;b35p6D67x3hcS5919ggbp89JRygizWSSL/3keJwUOs1uv1SRxWQ206mxNtLT&#xa;I7jGz9mnrWn7XZkHJ/4huEZQswwEYHKXYRQCloGjI3GUJPJZnwy4qfCr51tS&#xa;Nr0r8BTIZncRI7N720pF7EIkp57KnCa+nbD//qf/NL4KypzGOAYJT+gxGOSl&#xa;XaQ4639Gcdbfo53POs9455XkJF/D5cy0Ic4cj8d9dO8Amdt5cRaZE7umXUYf&#xa;3QwneVE0Zuz7krvGf0dm/JDNXwLxuLL4y0zp2ijO+k3mEftWQVGUlO5IpfA5&#xa;2tFfuVO+7dZOye84fENmiZTsVhO++vEkON2U+RlxpHh8fiuUuW8nszIV4Qld&#xa;maHyV9DTj27oyXXkfiS6jEF/a464tuepfYkXw+W13Y8+zT87ve+lc12W6Fov&#xa;+c0LK3M2t+uSyLfcnhF/Qjfto7p0Cf1wR0Dvq4o7FrHK3bnv8Exqx/iQPWk9&#xa;oZXPOk9uapN3KBdDqpIrl+4p1y25MufoaTop83l7Xhy1tkGZ6/7Lqt8/KPT6&#xa;fLQ/yiES7SPWWwVFWdKis3xGD9OHJ6BJmlpXSK7sfOAm9btzdk3b6EMnJanC&#xa;PiWeOXtwYX1q98E/lUQkiBERAZjcIwIvW7Pss943NPx9CvLyBkXmJtdHeJoO&#xa;/6J+lqiO6m52b11hie4Nkt608OIxV9CH/6ueiuRbPiu+TAtJ7Va9K5DfHwJQ&#xa;6P5w1KYW8lm/h3zWv6yFz/pRGpZDcg7NqUlDnJvR00DW02eKFp6kKFviqx0v&#xa;HsPLu6qeztmnrFPF6zK7n/ux6l2B/P4R0POK4h+f2NVEPutf4+hLgqIwKd95&#xa;fk/aLWcvchqb3TOyuqrx/ArllTnZd2btvyXf8l4oczl/21FKhSf0KOlL3nbh&#xa;iaE/MXqM9yrts24SZPZPn5cLtq5m95YOS/RsktDc3kPjr7o/B/mWWzPWPZld&#xa;E1+X62yGNLIQwBO6LCMhoRxpDq1IUZkER2dSNbGPMbsnSXam82z3XJeqUGvL&#xa;3b5SQmXOi8f015ZZiSNn7MOF4/lhKHMlRisyIfGEHhl6dRpmn/XWjtzfG10G&#xa;zx9XM1FgFHFQLtHzc0JMP8d3HPqkdZeYwpDp5onxXk4fWV8DNBp6i3zLZ41v&#xa;pu898L5GWXEcBGT66WE0JCXAPuvpHeMj5LP+FfJZVzMGKJtc18gFWGrXLg+o&#xa;Mm2WXMqc+zBAH1WVOfuWH7NvhjL3cDLGtAgUekwH3ku3OfSi9ZL9ZkHRm7yU&#xa;j7yMZJOi2OzOLl66pPYeyczt64mspJMiG405xS1/+vSMuTa1e+LPGuXFcRAo&#xa;EYDJvUQC/x0TePJ2kX7t5UP/U6w03qScz3qeusmT5CiUqQxpgYLKzDyvh9ld&#xa;KnN7J43uVvqodoUj33Jj1v5i8v6JfTKcn5BBLQKqne5q0dVcWvPx4R3ks/5V&#xa;kZF5XbYqg8Br4j1dZX8Eu/gFxtFfqK/Q062W6O2X5Ak9QwPJ781VWzzmnH3S&#xa;mjbfmXnw2ScjOBXRpAYEYHLXYBCj6gJHc+KoTuSzfiQqGTy1y0t/svldgsQT&#xa;yLLk6qV6al8liTLnRxSeuqmUMl/0Lf/+t7/HccuhzFX/LUQpP57Qo6SvUdvF&#xa;rw1/k4JdbFPKZ32CBmA2+kFYOEdm9xfUfkpfu9UUCRm60EfjuTr6MXUswQL7&#xa;lhd3ZHY/+7uOyyAjCNQggCf0GmCw2x2B1D3j2znaE/msS7aES51+9NMxCWZA&#xa;Z9hPWuGUaqHZ7TIo816CqJIyP22/VHipOAhlrvDJL5noeEKXbEBUF+fkns3d&#xa;beuzf290L05Jkr875Au+OEkuYqv39AuGyJ9T8/66e6MpWnkSWpSJ146/jD4q&#xa;ICTfcrIM/XHq3vEPRIkMbetHQIXTXz/qGveo67EXT6Q/c+AS+7j9uKAZu9J3&#xa;lZ+OB6KXUjqXLxdIWqKOP8/WAX5vrsLVbM6eE0fFjVDmLk4wZHVMQIWfgOPO&#xa;IKM8BDiko3W8+CbyWT8lj1Q1JFlJ+9fWOBbSbimjkznoezIjwWIygyRoiwNh&#xa;I85in7R/fmIisSa1Z/wvIhYFzWtKACZ3TQdWlm5d8Fkf/h5NmHuL1D7rPEn7&#xa;F/Rhl7aI0tRzhijMqXWP3bXejHZN+g00WPyROXHc8hnxaHrn+EMyiwnZ1CcA&#xa;ha7+GCrRg/zjQ3cmehJfk9pnnRebeYo+ES06M0c3EycOyTC7zPkptWbEFMmU&#xa;8/y+5lxBtY3QR+ar2DlxYuGE+c62vQd/4mvfURkIVCGg1uNAlQ5glxoEOEoU&#xa;R4sSFDVKWonZd5kjs0WkIFQzuydSVnSuamxiZ1N7RGNFLTdIPPHN+ptvf+9A&#xa;L5R5A1Q47BsBaX8OvvUQFUlHIP/Vof+a6DHGRIJXM5cwTZJML4QvF1v9p541&#xa;RHFejfvsFetM0RbFWul81vBKcDyzXcaUFwVr1rwz88DB35dRPMikLwE1rhz6&#xa;8o9lzzL3Tbyfo0hJ67POUdk4OlvIifVUhywrrjnoe5ZX3Isi9VOjkipz44z9&#xa;Yv6oOQhlHsWJgTb5GoIEApEQmH1sYEVHW5LjrF8aiQD1GjXp4D/Th/3UQ0wW&#xa;tXvsGfnfo7O5fc2wTQsDhgiHm+KFY/r4i2SJfMutGeO/ZO478GHJJIM4MSIQ&#xa;9s8xRmjRVacEzK8MPWqvNHaLFK9sLlHiNe84Mhsr95ASvXkVUwfJ7J6XC0Vl&#xa;91esIXN72FYM9nfnWz/Z0Jwn3/IT1mhqz8HvVnLCNgiESUC2n0aYfUdbkhDg&#xa;UJHWYfON5LN+UhKRLojBy8IOhCsRP/FKE+ikTtezYa8MxzPpJVw8hs7Yn504&#xa;yL7lUOZ1ThccCokAFHpIoNFMfQIcZYqjTdmz9veF4OdUSRJP+lofriwt7eG2&#xa;57q1BM1uD9tVjb0POCyqLInjlh+z/kV6x4FX9z7+TISrF8gCBHLIQAAmdxlG&#xa;ATKUEch/ceBTiZ7U79DqX2GrjTI5Xt7g24tn6HP65T2BfuHbmclxQ1hFOe+3&#xa;O1Zb4U7e20i4Q76pqjvA58gh7WTh6sye5/533Xw4CAIhE5DzihEyBDQnFwGO&#xa;PsVRqARFo5JCMr7tZZ/nkJ4Q2eze0SuPkaJyDFo7Q5QtAgtJZX9f2Wbfcvuv&#xa;yLd8NZT5K1TwTR4CeEKXZywgSRUC+a8M/1FilbhVCp/1syTg0/QJQZ+ZRXpK&#xa;PyDjbHdLrLs0pNntPIeB/c1lwMC+5TPWp2iBpD8giZBAQEoCeEKXclggVIlA&#xa;5n4KMUnRqQRHqYo68bvtLeEIkSAlxq5hsqV2ijkeiqsaX5n4vbkMyvyUeCH/&#xa;7Pl+KHPZzkbIU0kAT+iVRLAtJYGZh4c6u3qMH9pdxhWRC/gsSTAdvBTnZoQ4&#xa;NSmDRnulr6uHTJEK49XDILUZtlvcK9288I3jls+I/5S6b/yjlYewDQIyEoBC&#xa;l3FUIFNNAoUvD/8ro0fsi9RnnR+cedGZ8zXF9OWASUFiJsdlUughmdvXEL6Q&#xa;LCE1B2rOPm/PFG9J733uL2vmwQEQkIwATO6SDQjEqU+AQ1AuHLPeICiKVf2c&#xa;AR7lXw37RAesa9k1zCAXMVlSOz0xB25u59camyLtsW2ctH86fWB8NZR5pOOA&#xa;xj0QgEL3AA1FoiXA0as4ipWYsf46Mp/1UrSvAFFcWGQmwAZcVt3aFfBswFK0&#xa;u6iuSgX2Lbc/l9wx/rq1X6ZbRiQQUIwATO6KDRjELSeQ/9LgJxIrk18nlzJW&#xa;B+Gnw9QkfwJKxbwQxycCNgU4kj0Ec/slJEjYK9CV+n5WzJiniu9o2fPsz0q7&#xa;8B8EVCMAha7aiEHeZQTOf35wU8vKxN/aHcbmZQeD3sEPrQfocyqYhniRmaPP&#xa;0M/Uiuqx9UK/ct2W6FoX4BM6j9zaYBjWrdVm33Lxl6l7xq+nfAF2sK4UOAgC&#xa;vhCI9irhSxdQSdwJ5B48eCh5x/gWa0r834JnJoeZ+JaYZ2QHNPN70ewe9Wxv&#xa;6l6uO0CsK6mBKJT5giiI48bHSJm/myQIsINUOxIIhEAACj0EyGgiHAKLoSuP&#xa;WjcIjn4VZuIFaofpE5C9K7cial1jiTTPGQgi8eIx/UFU3KDO0+KFhcnZLamd&#xa;B/6wQU4cBgFlCEChKzNUENQJAY56xdGvjBPi/zjJ71seDu3Z51ttZRUlF2cH&#xa;RDfbvbUroNntfPXhG6Ewpwhw3PIp+/dSdx7oa9s/fbQMNDZAQHECAT1TKE4F&#xa;4mtBwPzS0MP2KuOhUH3Wnyd0x/3Hd3rSEGdnorn/XtVvikyr/31aXAmOze1h&#xa;pTkK0DtTvDm999m/CqtJtAMCYRKI5goRZg/RVmwJJB+YeNg6UriSHJBmQ4PA&#xa;k7v4ad3nFLjLWB1502wW9zvxO/PwlDn7lv/T9IEDa6DM/R5I1CcTASh0mUYD&#xa;svhOILP/+Z9ydCwxY/+PUHzW+RfFa5Dze3Uf04XlVsM3u7d2Wv4vJtNBYMJa&#xa;PIZ9yyetB8m3/Er4lvt4QqIqKQnA5C7lsECoIAgUHx+6TfQkfjcUn3V2Y+MY&#xa;6j6mU8cMcW423Hvwni2maPHT4sDzAXg1/sV5AT7CqVbVWXvanLLf3vLZiZ9X&#xa;O4x9IKAbASh03UYU/alL4Pz+jRsy63I/FCtCWC38CInyUl1xXB3Mz1NMmGfD&#xa;nEEmxLpLTFp+1pWYtTPz1YYXj+En9CDTBd/y75I72nuomahdBILsKeoGgTIC&#xa;fv1UyyrFBgjISiD3yEuHU3cd6BPH7f8YuM/6OqJAM8T9Shdcx8Izu7e0k7nd&#xa;zysEzy8IWpnnRd46av8GKfMbqDUoc79OPtSjBAE/f65KdBhCggATSN0//jH7&#xa;SPHdFGc9uJhp/EQ6QB+ffLh5kRl2IQsrta30UR/y4jgcRS3IdEo8N3/oxJbM&#xa;7on/HGQzqBsEZCUAk7usIwO5QiFwbKdo69ky/LdGl/EaajCY3wPfMnC4VR8e&#xa;rvO0ZM70c+GY3X0zt7PL22X0CUpsczFu+e/STdod1AoSCMSWAJ7QYzv06DgT&#xa;4JnPaYquxVG2BM2IDoRKjmrt86fmQFzIqoiWyflkbmclHuTiMefFucJh6xoo&#xa;8yqDiF2xIxDME0nsMKLDOhBYeGzgVckVqb8R7SKY1dNfIEqTzZM68ZIh5k4H&#xa;ey++cpMpsn6872Zl3t18n6vUYNsnrJ8cK0786qb7RLhL/VYRBrtAQAYCUOgy&#xa;jAJkkImAUXhi+LtGj7iOHLD9/X3w8/8v6HO2ue4ukAl/5vmg7NcXZFtLs9sT&#xa;zd4zrKe6NjbX16qlC7ZpT9sPpndNPFb1OHaCQEwJNPuTjSk2dFtjAnb6Xoq+&#xa;dUzcJjgal5+Jf20+LDqTCWLltiX9TGet5pU5xzXfsKRSv76etafmjtmvhjL3&#xa;Cyjq0YmAv08gOpFBX2JP4Nwjq9a1dK38O9Ep+nyFcZpq4yf1JtLMIUMsnAnm&#xa;frx7oylaWSF7TRxK9nL6+Ll4DPmW29PiL9L3jd9ENfs4/d5rJ1EOBOQjEMwV&#xa;Qb5+QiIQcE2Ao3FRVK5+cdz6fV991llZNrn0aVuA8cmbWhmOHxHYCuGnMl8Q&#xa;efOI+BAp8xupZihzgoAEAtUIQKFXo4J9ILCEQOr+idvtI+Z1NPXq3JLdzX3l&#xa;RWeaCE7SwjPnA0ipliZnt28hodp9FOyU/ez85MnNLXvG/8jHWlEVCGhJACZ3&#xa;LYcVnQqCAPus924e+b7dLV5P9Tf/2zGpFl5lnJZ09ZKmnzdE/ry/9+RdG0yR&#xa;W+FFGiqzij4DHstWFiPfcmvG/jeZ+yfuqjyEbRAAgeoEmr8oVa8Xe0FAWwLm&#xa;l4f22SuNfyXSPiyMyg5XrNQ9eMDPnxFi9pC/s93XbqXZ7V6qZIvBZfTx4/7i&#xa;vDhrz1jvSe+b+D7ViAQCIOCQgB8/P4dNIRsI6EEguXPiUfMl+9Wkdqab7hGv&#xa;oubxqTbjZxQ0EiOZ8WhuLy0e0/zVxBaz9o8OHT3QC2Xe9JmFCmJIAE/oMRx0&#xa;dNk3Akbha8N/bqwU1zfts/4iyXTMvVxTzxqiMN+8JuWWu9aTud3LWvEjXNi9&#xa;7GUlyLfcmBF7kw+Mf6lsPzZAAAQcE/DnSuC4OWQEAa0I2GmK6sXRvQRF+Wqq&#xa;Zzzr3cPKbO2r/Jv03eJlMhv7mjerzM/ax80XC1dAmTd1BqEwCPgwsQcQQQAE&#xa;xNmHe9dmV3X/HcVZ7/eMg5exeYo+LpazsWhi3bFnvLz0LpcykbLEmmGbDA3l&#xa;++tu8eQ5fjp3U2ZphRy3fMb+TureiVuW7sZ3EAABbwTwhO6NG0qBQBmB9oen&#xa;jlGc9QGKs/5vBUf/8pLYd5t9uF0oSIN0ObuaNZs66EnflTLnxWMG3claJiP5&#xa;lovD1q9DmZdRwQYINEUACr0pfCgMAuUEOOpX4ah1raAoYOVHHG6x2d3FojOs&#xa;+/0wu7sKxMKNctCVFH08JOOkPT538PTG1N6D/9VDcRQBARCoQcDFs0CNGrAb&#xa;BEBgGYFDXxWt65LD3xcrjavooPvf2UEqNbOs2qo7mjW7JxJkbt/q4gm9n8To&#xa;rSpK/Z1kuSC/gN9O7xy/p35GHAUBEPBCwP2FxksrKAMCMSVQeHxoj7HK+Dz5&#xa;rLt70U3vxsU/08dBYFA28B8/aAgz783g1rnGFO1OA8ayImeF7jadF2fsU4Ub&#xa;0rue+4HbosgPAiDgjIC3K4CzupELBGJPgKOCcXQw8lmfcgWD1T+btR3cBvC7&#xa;b34H7jU5DsTCfu9b3LZCtxsn7L9/7inyLYcydwsP+UHAFQE8obvChcwg4JkA&#xa;x1n/DsVZf48rn/UT1N544zbNohCTBxxo/8qqyNy+zom5nd+XX06flsoK6mwv&#xa;+pbbu5IPTHy1Ti4cAgEQ8IkAntB9AolqQKABAY6zfhNHDaM468591rupVg7k&#xa;0iDxcq3seuY2ddD6645mtw9SzW6U+Vl7snjs/GVQ5m5HBPlBwDsBPKF7Z4eS&#xa;IOCJwNlHVq/Jdq74oegyWE02TmxNf4Y+HEe9Tjo3K8SpY+6e0lcPmSLFLmj1&#xa;0kY6uL5ehiXHOG75jPgTunkZXbIXX0EABEIggCf0ECCjCRBYSqB9//HJ1I7x&#xa;Ieu49XVHPut8282qv4HizXKcdVfJEslGcct5FTgHFoLFZufFgnnMfj+UuatB&#xa;QGYQ8I0AFLpvKFERCLgjwKFB7SP2O8hn/WzDkg4WnVk0u9M7caepvZG5nU3s&#xa;A/RxYMezT4lnzk+d29Cya+K/OW0f+UAABPwl4OCn6m+DqA0EQKCcAPusr00O&#xa;/42x0ngDHan/mzxOOZ4vL7906yz5rp+edGZ2Xz1I5vZa78X5Vp/DoXJY1HqJ&#xa;fMuNGfuJ5P0T99fLhmMgAALBE8ATevCM0QII1CWw6T4xl757/JeNY/ZuQTPD&#xa;62ZeTUfpybpWcuyCRgHYk/VM+H3UQiNlft4+nT9mvQXKvNZoYD8IhEsACj1c&#xa;3mgNBGoS4GhjHHWMfNb5Obx26qNDNZRtgt3LHJjd22ghmZqz29dQHXVuGoQg&#xa;3/JZ+2+fe2p8dW7Pwb+j3EggAAISEKhv3pNAQIgAAjEkQD7rQ982eoz31vRZ&#xa;XyAqT9GnyvP8mWlDnDle/169d8AU6WwVshxC9RL61CrOvuWz4v7kzvHfqlIa&#xa;u0AABCIkUOtnG6FIaBoEYk+AfNYppOgR6wM1fdb53XcNp7fWzkarxlnV353z&#xa;0/0QfWpdFc6IY8XJuUugzGN/fgKApATwhC7pwEAsEGACZ/au7c2u7/ih0WXw&#xa;QrDL00u060j5bl7b/ejT/NOurplzXZboWl9F6fOTeTXXt0XfcuOb6XsPvK+8&#xa;JWyBAAjIRAAKXabRgCwgUINA4SvDv0XLxu4QyYo336yXD9DnVHnB08cNcXa6&#xa;ukJf1W+KTGt5/sWQrdX8zeftBXPW/EDL7me/XVECmyAAApIRqP6Ll0xIiAMC&#xa;cSeQvn/8bvt48W3ks36mjAXfkldZdCa3osoT+MWCy96d11he1jhlP3324MI6&#xa;KPMy4tgAAWkJ4Ald2qGBYCCwnMD4DtHSPzT01xRn/U1l89TPUV4Ot3pRj9cy&#xa;u7eusET3hiXKnifGcdCVpa7rRdsyZsRX6F35LjqCBAIgoAgBKHRFBgpigsBS&#xa;AuaXhu6ze4zHy+KsT1GO517JdWrSEOdmyo1wPX2maCm5vPEhVuZLze/n7NPW&#xa;tP2uzIMT//BKTfgGAiCgAoHyX7sKEkNGEAABwVHMOJoZ+axPvoyjl77x52Kq&#xa;ZnYve3c+QBlfVuaLvuXf/+k/ja+CMi8RxH8QUIsAntDVGi9ICwLLCBS/NvxN&#xa;sVJsW/RZ56Xcn6YPmeArze7ZDkus3HTR3L6W8my+WFVeFMm3/N7kAwf+9cU9&#xa;+AcCIKAgATyhKzhoEBkElhJI3TO+naOcCYp2tuipxr7k5FPO8+FzPOHtYmpb&#xa;eVGZd9COTRd3nhZHisfnt0KZlyjhPwioSwBP6OqOHSQHgTICpx/d0NPa3vZD&#xa;o1tsXXRje0aI/JwQ089dmPG27hJTGLwgzRX0SdHz+4z449S94x8oqwQbIAAC&#xa;yhLAE7qyQwfBQaCcQOe+wzPpzxy4xJ60nhDtpLA3iIvLu9qipc0SBut1fno3&#xa;7Xlx1NoGZV7OD1sgoDoBPKGrPoKQHwSqEDj/2OCvZLoS3xWHjc4TPzdEK/ml&#xa;Zy+j9+pZ++fnDi+8teuxF09UKYZdIAACChOAQld48CA6CNQjwD7rfVuG/9/C&#xa;QeNXUyvsIgV7eSL9wIE99crgGAiAAAiAAAiAgKQE5u7u/3h+/8BVkooHsUAA&#xa;BEAABEAABEAABEAABEAABEAABEAABEAABEAABEAABEAABEAABEAABEAABEAA&#xa;BEAABEAABEAABEAABEAABEAABEAABEAABEAABEAABEAABEAABEAABEAABEAA&#xa;BEAABEAABEAABEAABEAABEAABEAABEAABEAABEAABEAABEAABEAABEAABEAA&#xa;BEAABEAABEAABEAABEAABEAABEAABEAABEAABEAABEAABEAABEAABEAABEAA&#xa;BEAABEAABEAABEAABEAABEAABEAABEAABEAABEAABEAABEAABEAABEAABEAA&#xa;BEAABEAABEAABEAABEAABEAABEAABEAABEAABEAABEAABEAABEAABEAABEAA&#xa;BEAABEAABEAABEAABEAABEAABEAABNwQ+P8BQaL6cxv9k/4AAAAASUVORK5C&#xa;YII=&#xa;;" vertex="1" parent="1">
          <mxGeometry x="427" y="1179" width="90" height="90" as="geometry" />
        </mxCell>
        <mxCell id="AmXLDjNfCaVPL390mNVF-3" value="" style="whiteSpace=wrap;html=1;aspect=fixed;" vertex="1" parent="1">
          <mxGeometry x="660" y="980" width="760" height="760" as="geometry" />
        </mxCell>
        <mxCell id="AmXLDjNfCaVPL390mNVF-4" value="" style="edgeStyle=orthogonalEdgeStyle;rounded=0;orthogonalLoop=1;jettySize=auto;html=1;fillColor=#d5e8d4;strokeColor=#82b366;strokeWidth=2;" edge="1" parent="1">
          <mxGeometry relative="1" as="geometry">
            <mxPoint x="530" y="1214.5" as="sourcePoint" />
            <mxPoint x="624.09" y="1214.5" as="targetPoint" />
          </mxGeometry>
        </mxCell>
        <mxCell id="AmXLDjNfCaVPL390mNVF-9" value="" style="edgeStyle=orthogonalEdgeStyle;rounded=0;orthogonalLoop=1;jettySize=auto;html=1;fillColor=#f8cecc;strokeColor=#b85450;strokeWidth=2;" edge="1" parent="1" source="AmXLDjNfCaVPL390mNVF-3">
          <mxGeometry relative="1" as="geometry">
            <mxPoint x="683" y="1084.5" as="sourcePoint" />
            <mxPoint x="270" y="1160" as="targetPoint" />
            <Array as="points">
              <mxPoint x="270" y="1090" />
            </Array>
          </mxGeometry>
        </mxCell>
        <mxCell id="AmXLDjNfCaVPL390mNVF-19" value="" style="edgeStyle=orthogonalEdgeStyle;rounded=0;orthogonalLoop=1;jettySize=auto;html=1;fillColor=#d5e8d4;strokeColor=#82b366;strokeWidth=2;" edge="1" parent="1" source="AmXLDjNfCaVPL390mNVF-11" target="AmXLDjNfCaVPL390mNVF-14">
          <mxGeometry relative="1" as="geometry" />
        </mxCell>
        <mxCell id="AmXLDjNfCaVPL390mNVF-11" value="" style="rounded=1;whiteSpace=wrap;html=1;" vertex="1" parent="1">
          <mxGeometry x="999.25" y="1060" width="140.75" height="40" as="geometry" />
        </mxCell>
        <mxCell id="AmXLDjNfCaVPL390mNVF-31" value="" style="rounded=1;whiteSpace=wrap;html=1;arcSize=4;" vertex="1" parent="1">
          <mxGeometry x="717.47" y="1470" width="652.53" height="220" as="geometry" />
        </mxCell>
        <mxCell id="AmXLDjNfCaVPL390mNVF-43" value="lz-iot-cn-247-transparencysafetychinaapp-shared&amp;nbsp;" style="points=[[0,0],[0.25,0],[0.5,0],[0.75,0],[1,0],[1,0.25],[1,0.5],[1,0.75],[1,1],[0.75,1],[0.5,1],[0.25,1],[0,1],[0,0.75],[0,0.5],[0,0.25]];outlineConnect=0;gradientColor=none;html=1;whiteSpace=wrap;fontSize=12;fontStyle=0;container=1;pointerEvents=0;collapsible=0;recursiveResize=0;shape=mxgraph.aws4.group;grIcon=mxgraph.aws4.group_vpc;strokeColor=#248814;fillColor=none;verticalAlign=top;align=left;spacingLeft=30;fontColor=#AAB7B8;dashed=0;fontFamily=Helvetica;" vertex="1" parent="1">
          <mxGeometry x="681.25" y="1010" width="718.75" height="266" as="geometry" />
        </mxCell>
        <mxCell id="AmXLDjNfCaVPL390mNVF-49" value="&lt;font style=&quot;font-size: 20px;&quot;&gt;stage: code check&lt;/font&gt;" style="text;strokeColor=none;fillColor=none;html=1;fontSize=24;fontStyle=1;verticalAlign=middle;align=center;fontFamily=Helvetica;fontColor=default;" vertex="1" parent="AmXLDjNfCaVPL390mNVF-43">
          <mxGeometry x="62.75" y="49.5" width="100" height="40" as="geometry" />
        </mxCell>
        <mxCell id="AmXLDjNfCaVPL390mNVF-18" value="Elastic Container Registry&lt;br&gt;" style="sketch=0;points=[[0,0,0],[0.25,0,0],[0.5,0,0],[0.75,0,0],[1,0,0],[0,1,0],[0.25,1,0],[0.5,1,0],[0.75,1,0],[1,1,0],[0,0.25,0],[0,0.5,0],[0,0.75,0],[1,0.25,0],[1,0.5,0],[1,0.75,0]];outlineConnect=0;fontColor=#232F3E;gradientColor=#F78E04;gradientDirection=north;fillColor=#D05C17;strokeColor=#ffffff;dashed=0;verticalLabelPosition=bottom;verticalAlign=top;align=center;html=1;fontSize=12;fontStyle=0;aspect=fixed;shape=mxgraph.aws4.resourceIcon;resIcon=mxgraph.aws4.ecr;" vertex="1" parent="AmXLDjNfCaVPL390mNVF-43">
          <mxGeometry x="528.75" y="149.5" width="61" height="61" as="geometry" />
        </mxCell>
        <mxCell id="AmXLDjNfCaVPL390mNVF-14" value="" style="shape=image;verticalLabelPosition=bottom;labelBackgroundColor=default;verticalAlign=top;aspect=fixed;imageAspect=0;image=data:image/png,iVBORw0KGgoAAAANSUhEUgAAAPMAAADQCAMAAADlEKeVAAAAbFBMVEX///8k&#xa;lu0AjewAj+z7/v/A3PkYk+0AjOy82fju9/4FkewblO3n8fyFvfPi7/zd7Pt5&#xa;uPKZyPWUxfWx1Peoz/b1+v7L4vrW6Ptcq/B+uvNGou/H4PlxtPJZqfCPwvQv&#xa;mu6izPY7nu5nr/Gt0vcK1/AUAAAOWUlEQVR4nO1d64KCKhBOKUywe6aZptb7&#xa;v+PxAohc0vaoeDp++2fXReUTGIZhmFmtzOEJrTZwbLA208CxRDie6TqNDVvi&#xa;DBbOP4iF88L5V7FwXjj/KhbOC+dfxcL5/8FZXlf9PmeMBABnbbpOY8O9CHjv&#xa;TVdpwQIt1gL+dPk/hb0olRC4FZdvQLwMD8Xlo3gZJKYJ/AFnJM4+sDRlHkUD&#xa;p4Weq1+xAZ4kcvC4UnGG59Wv6CQL5zE5++54LL7DdJxfTjYai+8wGectsFB6&#xa;G5FJf0zF2a/mB/s5Jpe+mIpzjOviyQy0mIk4H+idMPVH5dMHE3EOMb0Bmyc9&#xa;DecDdyNOTXfvaTi3HgdN6+iTcPZB+57dyKQ6MAnnt7CQcczO099x/qMNMMHt&#xa;m7A1MqvPuDhAgHMqLp/ky5fisiVeRX1sgL70qZBZ3eS2FbCpLm/Ey1V3dMWr&#xa;2z7NvJHW6JY9mwXHSNhJA8WChsXY6IiwxNkCpifpkSE3czGi31O8+eXYbThh&#xa;cfUApMuP4vJNvGqDoLgcS4Wj8tGRdPnOvdgFCs54CsVEFp6W46psgPhrG+BB&#xa;nrYR9+ZAxdmyJ1C7ffnNwB1GJznIj+Y532SxXZbY/DJnxVRVPm+CKXpunHHi&#xa;3i6nXfx6veLd6RKM0dXn1rctDBCCGGKMIYQIgHT3+B3OahkmAwL0HFY9M8dZ&#xa;OVdpaNuD6mfmOCt1Eh1QOuAuvkHO4lLyM+zhFtcGOZ+/aWgL/ATnvkKswpD2&#xa;BIOcV/iLzl295wc4S0eUPgAMOF2Z5OzK9+kwqNVIwbk00Mjy5XsbYCfnVdy3&#xa;oTEekHIxqCT/l7JiW0d0lqlsgJl8ubQBppJrjb0ul6mSH07efndvtWRgK7C7&#xa;EVGNnEC8Wr/1przsq5/hSZfFFYPCJKaCYXvokHgk/SjD0HRNh4G7uUPQb66C&#xa;0TCvFP32poPvBpssLiQA7Dk7o0FMZO9cMuVNCFDQ/WZiPg7AeB19o/MZBgSX&#xa;ASivwq9Ue6PAIBxE/br1V34MA4JooGl599Wq1RQwBCAOhmHMu63MELgy/RVq&#xa;nHXcDrhzNWfOOEyS1/F5vQ28JTtjznCIaUmF13w5g8EGsIDe67fpkXfX/m+4&#xa;z5bzMOqHCvOdq1B35f+I7yysE2LEHcmremvMPEb0GdrOlDMcMSyTZgvUOOzD&#xa;eJwV1sg5YFTnGYVxdw4YcDtKgVnKbTyQzUuD3DQ/FcZt5lkqnyM3s2IryjwG&#xa;3FBXQu2jZBR4bKP9fn6Ce8y5ucbsOI+pghF857syAYbcT9fgm+39KYBOo1Ne&#xa;PWYmxNLxKc9N+xx7nqoRmabJYwIBVmJOphIMpzkP+5Uz2siwJ/DLrzAfITZR&#xa;z16pXJ6MYSrKq8dcOrc91s6FAjNpZ5BNR7mvX9bImNYHahaSG0+hgHHITRMu&#xa;nUUmjsN0Md/Q0+icPIxP0fYkJ2BbMK1/ggH97vvC8OLKTFwOo5YDNJbnyGes&#xa;DY5oZCo1TGasdw/itvo3pKYoG/S6N+T5aTb+n4klJZ7MSKCBAcpw9C2LDgRT&#xa;924UGY8GN7Xstu/dVRofrwmHNAaGhzJFNBlpkMwlaNQ6nWbHDoOraaoN/ClI&#xa;4/k0cgU/H717I2trmqWIZNzlBrQNrJU7cR9xnob2cVbdmmELRurf0IlnG3Hd&#xa;TXoeUv0GGIL7bBmX2FpoWNYY4ZN5TbMDGRxQlkE7mZ2sVuKaDtLDiz6dnmbd&#xa;qVt4vOx/2cULwtZzwu3GIeC/EwD6nkGXCCMQnUyvkP8Ef3u0APpy9sIQ2flO&#xa;ikzxX4J3ueegV9ABXLBFAIanx3+ZL8U6uDzDFIEqAkHJvol+b9FwfQCkyW7w&#xa;g6zG4QWb6/keJ1FqQWA7dvEF0jwK4935ugm8Hw+wu2DBggULFixYsGDBggUL&#xa;Fvwv8I7ScEyTpBeneTbi8/+AI8AYO+M5OOxtaFlgVkFXD05tnxztBfUhY3vw&#xa;fBb/AiTl3XhHAuqQ1FNkb+kNEl0JDJh1oYV1vYuN55RrbOE8PBbO88DCeXgs&#xa;nOeBhfPwWDjPAwvn4bFwNgT3EBy4RdRnzu7+cOjtNFAVFt1HOjivDxoHDNfz&#xa;XO2L14f2MrDipHZcWW/uuV0n4k7jS/0yPefbM6rzc9v4de1aagZF4erRNgwz&#xa;/lmfOT8d4EinbrxrnDr1i8NM5WN1Ku9yG051nnEbhZlYTe+OGlcnDBF4BXrO&#xa;/hk3/mAYIzv6YElZnyzOeaws3Hg4fuIcpOXLYTvC9iaxmWMSxhDk0jHwrHwk&#xa;TCVO5Ztf/AdcH23RtwvboafhfJIc4DDIdUazK5C8BEFKz+h/4EwdxPmTN0Eu&#xa;OVoCKITgrt8Gtitf5gRhM1Yeyswq2H5fFJz3qdKv1VH2TzdXFrbjDs43i9YI&#xa;NuHRlH7yGCR865FEZjB7qDz0mrg9Z1vjxobIOVie80bnoK868HbTOcDC3P3A&#xa;eR03NWJpvH315ytbj+tjJKcX1rnekmLHzpNxHOernFSNvdsSpezW0foE1okQ&#xa;1Zw3mGsiGmPb06ccxE5jQ6R5zDSFSXyTO0e59ElUOC82nN98K9eFm9LYarf0&#xa;xhELc4+u2k/F2X9xTcTa0OUpl9Xkn8UlYpNzt/GcSPay5vwjRiB5Xi/vc4iE&#xa;GxnnW8OikJm77PI+vbg8WrglZLlE5UXhe1k4tljhiqeC84UfhzY73p5ykh+G&#xa;z+x6Lp7VlGThPkXOAIUFp2vBqeAN0mpSDxgLZF1pM6237bFDOftMBEN0ZrPd&#xa;rTmYwcf2WnOMd6xwEJLCVfZBibObcHVGKRuozSFNELKOHBw5QaTkjNILU10e&#xa;cZjVvzVfqm1jfvP3Us4spxOIW734waQsZ51ngY2F7EpEJDt7BecrL3m4bMZb&#xa;WhuYtuZEj30imhClxVl9+PBM2hMjcX71ODFAOLMYYlJAmHVzbpReYgel7Uws&#xa;XOgVdcJFgbPHpwZDOadk0bELXiKBJ6tTIHLGllJlXtMSQNbifKmdc/p4xVER&#xa;ShpRFYGGflUFzLllRF1tcT5xjYwd/iBdRlpGFbCDyiMSaZ5vZ7WyTh8GVBtG&#xa;Hru95nwjfytj4LDRS2YDKsA+53nkOB9yvpGjlm5MmlkdQP9OONj7NmfdYpC0&#xa;nCas4BW0bqcDVJ1jhvZlknVn97GwzPnJiSMsBIOjY0oTpJcoTvWmF+OsC2/r&#xa;0XpqjgjQcCQ1Z/pmjWZNRCvZbyPSoCMAPOX84ucJ6RAwCZYBNSxI/6u1nEYn&#xa;0bySqNNQFzPgQrt+yZkEitPGdKcZJar/03HRkXeIcG5pTUjK20P+jXQrZtJb&#xa;q91TyhllmsKkA2qTQFERV3EmayykDeJFX13+TiYX7ZvpCyTlHecSM7JswPnm&#xa;osQ2Jn1qw3HWBqsmCcj02YGI8K0477jflSBhp6oCJAK/Yjro4KxoZhqJEIs5&#xa;gylIL6n6vtvVwXL8sbe2eZJsZUBbmC48yyFMUl6BDsuRgrMcAG8L5EIqVEOU&#xa;cNYHe7U6/r/KuKar2/xDYniSFgeVXayW8Z1Z5FWcpc7x7nkOteJBOWunyE7O&#xa;vJ2EcNZHmyR9EGwbzl2hKXnOzdoCtcdi31RSLc7a2AD1XIQlhY6BDstSIpLB&#xa;r08Z/uDamUwvXXnEGs4oPbCgVThtDYlLX87PPpyjmoZ+QqHDspy/iUpia4fo&#xa;mxvPZEawO84GMs7VCudC/2qnb970G8+4si50cqZiSUsjrx9Xya1nx8RG27bq&#xa;FESpRR0BOSlnsp44sVUS7zHGIsiCT7DT6hmdnEn0SqSz1Hq8GkKylemfhjnB&#xa;TuRZlxOUuJZkNhs+Fp5PP4x3+ACioHdyJr1Gm/zqzKuTe17FUz0McQ+jprgO&#xa;bzrJZtCs0DlFk/a2Pl5qnZzpF9TEtPap6ln3UKpCaxQxUjOYVX+RpAPoc8gg&#xa;2TbEFuJ2o5sQ4dArwHonZ6pnYbUUowsp0lhkQGOoHP7X1pKuWfJ+lGIy5yaA&#xa;U6Ob0AHdJ9x4N2cqEpWrXBqUGJIa0VUYVA0FusKgSh3tQp/TTClsgG5j+WJa&#xa;Lgs3qfyArW3Cbs7NajGT/vVg8whVEaghTmGu8Jj1hrYOTbiK5Nnfz+J7oOPM&#xa;JVFiOy0X4YPyeNqA30LpwZnNfVIETWbJhuyJHrWRItH5mGVjbGrVLN4ToXUC&#xa;iCB2TjrOjUG50U1yWpdclGNVsCdOyvfgvEpoV0KtXTYvpFXm5fSZzZ8WP735&#xa;d2bksJs6MSsLhLz9bL2rCyvtnjVk3YQZFAUTCt3Wcpi22odzY7K27GRbt8j6&#xa;we0XtQRHzizyIH+T9wS7xrbeMq6yz4lRSreoD0+6HVhJdM1+laybPJn+iawT&#xa;tbZvIyCOqF6cOaN+QQSkySvM+aAbdmuyaQRM8XJgJa9XjrjdhPZA52Po1YUj&#xa;2BSuzAm6fclGN6EmHPYBqwguSRy/UtDYSW0m7npxbu8qlRnhuT+lYb5HHwqL&#xa;w9zlt5TEwk7wgXOzb8F0k6j1rNZuFS/b+nEuSGt3/ORwbXt9+BHZ4O5aUFe4&#xa;7hL6PXemmzhUQkTa5RWGjRQROd+eZ6WVKFBuuZd9XWG81+yiF8saxRzv8zsT&#xa;rcI1Sz1nNjAak1qsWV+hnJsYBM7bc3AIlbO6HyoeV4gptYK7U/ULZKmXUMr9&#xa;fIip2Nefx6Cig7NTX1Sh6XDbwcEnTyR3hd4z3GtsxA9xXx4jrDVwHhLx5Ugf&#xa;398LRbcOaO+Y5lSPUmXg5X1dI4d3IohtYWhBEAmWpFrLoopr6N1jT5u87hFW&#xa;oYKqHwjs6GN2+CAuxHW53Y7rQEnZJ1vf4Y5AvTdfxhkCKR8Kbl+S0JyvCpzi&#xa;HiHAuvfEbFYpqoliSQWv76Ki5Xpyg/BDlJ/17RQneZpH8XnTHQwoyO5V4ddz&#xa;273GC673ME/T6LW7CKZiL06jTHPX4ZVGcmcrnpUUjZlGcXZTfepD8cRmgt3s&#xa;nq3q/QP1Z/K/L8QxDAAAAABJRU5ErkJggg==&#xa;;" vertex="1" parent="AmXLDjNfCaVPL390mNVF-43">
          <mxGeometry x="342.35" y="151" width="92.3" height="79" as="geometry" />
        </mxCell>
        <mxCell id="AmXLDjNfCaVPL390mNVF-52" value="" style="edgeStyle=orthogonalEdgeStyle;rounded=0;orthogonalLoop=1;jettySize=auto;html=1;fillColor=#d5e8d4;strokeColor=#82b366;strokeWidth=2;" edge="1" parent="AmXLDjNfCaVPL390mNVF-43">
          <mxGeometry relative="1" as="geometry">
            <mxPoint x="434.64999999999986" y="179.5" as="sourcePoint" />
            <mxPoint x="528.74" y="179.5" as="targetPoint" />
          </mxGeometry>
        </mxCell>
        <mxCell id="AmXLDjNfCaVPL390mNVF-50" value="&lt;font style=&quot;font-size: 20px;&quot;&gt;stage: build with docker&lt;/font&gt;" style="text;strokeColor=none;fillColor=none;html=1;fontSize=24;fontStyle=1;verticalAlign=middle;align=center;fontFamily=Helvetica;fontColor=default;" vertex="1" parent="AmXLDjNfCaVPL390mNVF-43">
          <mxGeometry x="88.75" y="160" width="100" height="40" as="geometry" />
        </mxCell>
        <mxCell id="AmXLDjNfCaVPL390mNVF-45" value="" style="group" vertex="1" connectable="0" parent="AmXLDjNfCaVPL390mNVF-43">
          <mxGeometry x="368.75" y="250" width="21" height="26" as="geometry" />
        </mxCell>
        <mxCell id="AmXLDjNfCaVPL390mNVF-46" value="" style="rounded=0;whiteSpace=wrap;html=1;labelBackgroundColor=#ffffff;fontSize=14;align=center;strokeColor=none;" vertex="1" parent="AmXLDjNfCaVPL390mNVF-45">
          <mxGeometry width="21" height="26" as="geometry" />
        </mxCell>
        <mxCell id="AmXLDjNfCaVPL390mNVF-47" value="" style="outlineConnect=0;fontColor=#232F3E;gradientColor=none;fillColor=#B3B3B3;strokeColor=none;dashed=0;verticalLabelPosition=bottom;verticalAlign=top;align=center;html=1;fontSize=12;fontStyle=0;aspect=fixed;pointerEvents=1;shape=mxgraph.aws4.encrypted_data;labelBackgroundColor=#ffffff;" vertex="1" parent="AmXLDjNfCaVPL390mNVF-45">
          <mxGeometry width="21" height="26" as="geometry" />
        </mxCell>
        <mxCell id="AmXLDjNfCaVPL390mNVF-106" value="GItlab Runner in EC2" style="dashed=0;html=1;shape=mxgraph.aws3.instance;fillColor=#F58536;gradientColor=none;dashed=0;fontFamily=Helvetica;fontSize=12;fontColor=default;" vertex="1" parent="AmXLDjNfCaVPL390mNVF-43">
          <mxGeometry x="44.129999999999995" y="20" width="40" height="41" as="geometry" />
        </mxCell>
        <mxCell id="AmXLDjNfCaVPL390mNVF-105" value="" style="rounded=1;arcSize=10;dashed=1;fillColor=none;gradientColor=none;strokeWidth=1;fontFamily=Helvetica;fontSize=12;fontColor=default;" vertex="1" parent="AmXLDjNfCaVPL390mNVF-43">
          <mxGeometry x="18.75" y="34.5" width="651.25" height="205.5" as="geometry" />
        </mxCell>
        <mxCell id="AmXLDjNfCaVPL390mNVF-10" value="" style="shape=image;verticalLabelPosition=bottom;labelBackgroundColor=default;verticalAlign=top;aspect=fixed;imageAspect=0;image=data:image/svg+xml,PD94bWwgdmVyc2lvbj0iMS4wIiBzdGFuZGFsb25lPSJubyI/Pgo8IURPQ1RZUEUgc3ZnIFBVQkxJQyAiLS8vVzNDLy9EVEQgU1ZHIDEuMS8vRU4iICJodHRwOi8vd3d3LnczLm9yZy9HcmFwaGljcy9TVkcvMS4xL0RURC9zdmcxMS5kdGQiPgo8c3ZnIHdpZHRoPSIxMDAlIiBoZWlnaHQ9IjEwMCUiIHZpZXdCb3g9IjAgMCA1MTAgMTM0IiB2ZXJzaW9uPSIxLjEiIHhtbG5zPSJodHRwOi8vd3d3LnczLm9yZy8yMDAwL3N2ZyIgeG1sbnM6eGxpbms9Imh0dHA6Ly93d3cudzMub3JnLzE5OTkveGxpbmsiIHhtbDpzcGFjZT0icHJlc2VydmUiIHN0eWxlPSJmaWxsLXJ1bGU6ZXZlbm9kZDtjbGlwLXJ1bGU6ZXZlbm9kZDtzdHJva2UtbGluZWpvaW46cm91bmQ7c3Ryb2tlLW1pdGVybGltaXQ6MS40MTQyMTsiPgogICAgPGcgaWQ9IkNhbHF1ZSAxIiB0cmFuc2Zvcm09Im1hdHJpeCg0LjE2NjY3LDAsMCw0LjE2NjY3LC0xOTguNzQ5LC0zNzQuNTQzKSI+CiAgICAgICAgPHBhdGggZD0iTTExMS45MDUsMTE0LjE2OEMxMDkuOTMzLDExNS41MDggMTA3LjI0LDExNC45OTQgMTA1Ljg5OSwxMTMuMDIyQzEwNC41NTgsMTExLjA1IDEwNS4wNzMsMTA4LjM1NiAxMDcuMDQ1LDEwNy4wMTNDMTA5LjAxNiwxMDUuNjczIDExMS43MSwxMDYuMTg4IDExMy4wNTEsMTA4LjE2QzExNC4zOTMsMTEwLjEzMSAxMTMuODc5LDExMi44MjYgMTExLjkwNSwxMTQuMTY4TTExNC41ODEsMTA3LjEyQzExMi42NjYsMTA0LjI5OCAxMDguODI0LDEwMy41NjggMTA2LjAwNSwxMDUuNDg1QzEwMy4xODQsMTA3LjQwMiAxMDIuNDUyLDExMS4yNDMgMTA0LjM3LDExNC4wNjJDMTA2LjA2NiwxMTYuNTYgMTA5LjI2OSwxMTcuNDE2IDExMS45MzcsMTE2LjI1M0wxMTQuMzI2LDEyMC4xMzNMMTE2LjIyMiwxMTguODQ1TDExMy44MzQsMTE0Ljk2NUMxMTUuODk4LDExMi45MTIgMTE2LjI4LDEwOS42MTUgMTE0LjU4MSwxMDcuMTIiIHN0eWxlPSJmaWxsOnJnYig3LDcsNyk7Ii8+CiAgICAgICAgPHBhdGggZD0iTTE2NS4zMDUsMTE2LjM5OEwxNjMuODI5LDExNi4zOThDMTYzLjgyOSwxMDQuNTA5IDE1NC4wMTksOTQuODM3IDE0MS45NjIsOTQuODM3TDE0MS45NjIsOTMuMzYxQzE1NC44MzQsOTMuMzYxIDE2NS4zMDUsMTAzLjY5MyAxNjUuMzA1LDExNi4zOTgiIHN0eWxlPSJmaWxsOnJnYig3MywxNTYsMjEwKTtmaWxsLXJ1bGU6bm9uemVybzsiLz4KICAgICAgICA8cGF0aCBkPSJNMTY2LjMyNSwxMDguNDY4QzE2NC41NTQsMTAxLjAxIDE1OC41MSw5NC43ODUgMTUwLjkzMiw5Mi42MDlMMTUxLjI3Miw5MS40MjZDMTU5LjI3LDkzLjcyMyAxNjUuNjQ5LDEwMC4yOTkgMTY3LjUyMSwxMDguMTgzTDE2Ni4zMjUsMTA4LjQ2OFoiIHN0eWxlPSJmaWxsOnJnYig3MiwxNTYsMjEwKTtmaWxsLXJ1bGU6bm9uemVybzsiLz4KICAgICAgICA8cGF0aCBkPSJNMTY3Ljk4NywxMDEuNDY5QzE2Ni4xNjEsOTcuNDg3IDE2My4wNDcsOTQuMDE0IDE1OS4yMjYsOTEuNjkxTDE1OS43MzcsOTAuODVDMTYzLjcyNyw5My4yNzYgMTY2Ljk3Miw5Ni44OTkgMTY4Ljg4LDEwMS4wNThMMTY3Ljk4NywxMDEuNDY5WiIgc3R5bGU9ImZpbGw6cmdiKDcyLDE1NiwyMTApO2ZpbGwtcnVsZTpub256ZXJvOyIvPgogICAgICAgIDxnIHRyYW5zZm9ybT0ibWF0cml4KDAuMjQsMCwwLDAuMjQsNy40NDgxNiwtOS4xMTE3NSkiPgogICAgICAgICAgICA8cGF0aCBkPSJNMTcyLjAxNSw1MjAuMzM0QzE3NS43MTUsNTIyLjMzNCAxODEuNDE1LDUyMy44MzQgMTg3LjgxNSw1MjMuODM0QzIwMS44MTUsNTIzLjgzNCAyMDguOTE1LDUxNy4xMzQgMjA4LjkxNSw1MDcuOTM0QzIwOC44MTUsNTAwLjgzNCAyMDUuMDE1LDQ5Ni4xMzQgMTk1LjcxNSw0OTIuOTM0QzE4OS43MTUsNDkwLjkzNCAxODcuODE1LDQ4OS42MzQgMTg3LjgxNSw0ODcuMzM0QzE4Ny44MTUsNDg0LjkzNCAxODkuOTE1LDQ4My40MzQgMTkzLjYxNSw0ODMuNDM0QzE5Ny43MTUsNDgzLjQzNCAyMDIuMDE1LDQ4NS4wMzQgMjA0LjIxNSw0ODYuMTM0TDIwNi44MTUsNDc1LjczNEMyMDMuODE1LDQ3NC4yMzQgMTk4LjgxNSw0NzIuODM0IDE5My4xMTUsNDcyLjgzNEMxODEuMDE1LDQ3Mi44MzQgMTczLjIxNSw0NzkuNzM0IDE3My4yMTUsNDg4LjkzNEMxNzMuMTE1LDQ5NC42MzQgMTc3LjAxNSw1MDAuMTM0IDE4Ny4yMTUsNTAzLjUzNEMxOTIuODE1LDUwNS4zMzQgMTk0LjMxNSw1MDYuNjM0IDE5NC4zMTUsNTA5LjEzNEMxOTQuMzE1LDUxMS42MzQgMTkyLjQxNSw1MTMuMTM0IDE4Ny44MTUsNTEzLjEzNEMxODMuMzE1LDUxMy4xMzQgMTc3LjUxNSw1MTEuMjM0IDE3NC43MTUsNTA5LjUzNEwxNzIuMDE1LDUyMC4zMzRaIiBzdHlsZT0iZmlsbDpyZ2IoNyw3LDcpO2ZpbGwtcnVsZTpub256ZXJvOyIvPgogICAgICAgICAgICA8cGF0aCBkPSJNMjM1LjgxNSw1MjMuOTM0QzI0OC44MTUsNTIzLjkzNCAyNjEuNTE1LDUxNS43MzQgMjYxLjUxNSw0OTcuOTM0QzI2MS41MTUsNDgzLjEzNCAyNTEuNTE1LDQ3Mi44MzQgMjM2LjYxNSw0NzIuODM0QzIyMC44MTUsNDcyLjgzNCAyMTAuNDE1LDQ4Mi45MzQgMjEwLjQxNSw0OTguNzM0QzIxMC40MTUsNTE0LjUzNCAyMjEuNDE1LDUyMy45MzQgMjM1LjcxNSw1MjMuOTM0TDIzNS44MTUsNTIzLjkzNFpNMjM2LjAxNSw1MTMuMDM0QzIyOS42MTUsNTEzLjAzNCAyMjYuMTE1LDUwNi43MzQgMjI2LjExNSw0OTguNDM0QzIyNi4xMTUsNDkxLjEzNCAyMjguOTE1LDQ4My43MzQgMjM2LjExNSw0ODMuNzM0QzI0My4wMTUsNDgzLjczNCAyNDUuODE1LDQ5MS4xMzQgMjQ1LjgxNSw0OTguMzM0QzI0NS44MTUsNTA3LjEzNCAyNDIuMTE1LDUxMy4wMzQgMjM2LjExNSw1MTMuMDM0TDIzNi4wMTUsNTEzLjAzNFoiIHN0eWxlPSJmaWxsOnJnYig3LDcsNyk7ZmlsbC1ydWxlOm5vbnplcm87Ii8+CiAgICAgICAgICAgIDxwYXRoIGQ9Ik0yNjUuOTE1LDUyMi44MzRMMjgxLjExNSw1MjIuODM0TDI4MS4xMTUsNDk0LjYzNEMyODEuMTE1LDQ5My4yMzQgMjgxLjIxNSw0OTEuODM0IDI4MS42MTUsNDkwLjgzNEMyODIuNzE1LDQ4OC4wMzQgMjg1LjIxNSw0ODUuMTM0IDI4OS40MTUsNDg1LjEzNEMyOTQuOTE1LDQ4NS4xMzQgMjk3LjExNSw0ODkuNDM0IDI5Ny4xMTUsNDk1LjczNEwyOTcuMTE1LDUyMi44MzRMMzEyLjMxNSw1MjIuODM0TDMxMi4zMTUsNDkzLjkzNEMzMTIuMzE1LDQ3OS41MzQgMzA0LjgxNSw0NzIuODM0IDI5NC44MTUsNDcyLjgzNEMyODYuNjE1LDQ3Mi44MzQgMjgxLjcxNSw0NzcuNTM0IDI3OS43MTUsNDgwLjczNEwyNzkuNDE1LDQ4MC43MzRMMjc4LjcxNSw0NzMuOTM0TDI2NS41MTUsNDczLjkzNEMyNjUuNzE1LDQ3OC4zMzQgMjY1LjkxNSw0ODMuNDM0IDI2NS45MTUsNDg5LjUzNEwyNjUuOTE1LDUyMi44MzRaIiBzdHlsZT0iZmlsbDpyZ2IoNyw3LDcpO2ZpbGwtcnVsZTpub256ZXJvOyIvPgogICAgICAgICAgICA8cGF0aCBkPSJNMzYwLjIxNSw0OTMuOTM0QzM2MC4yMTUsNDgyLjQzNCAzNTUuMTE1LDQ3Mi44MzQgMzM4LjgxNSw0NzIuODM0QzMyOS45MTUsNDcyLjgzNCAzMjMuMjE1LDQ3NS4zMzQgMzE5LjgxNSw0NzcuMjM0TDMyMi42MTUsNDg2LjkzNEMzMjUuODE1LDQ4NS4wMzQgMzMxLjExNSw0ODMuMzM0IDMzNi4xMTUsNDgzLjMzNEMzNDMuNjE1LDQ4My4zMzQgMzQ1LjAxNSw0ODcuMDM0IDM0NS4wMTUsNDg5LjYzNEwzNDUuMDE1LDQ5MC4yMzRDMzI3LjcxNSw0OTAuMjM0IDMxNi4zMTUsNDk2LjIzNCAzMTYuMzE1LDUwOC45MzRDMzE2LjMxNSw1MTYuNzM0IDMyMi4yMTUsNTIzLjkzNCAzMzIuMTE1LDUyMy45MzRDMzM3LjkxNSw1MjMuOTM0IDM0Mi45MTUsNTIxLjgzNCAzNDYuMTE1LDUxNy45MzRMMzQ2LjQxNSw1MTcuOTM0TDM0Ny4zMTUsNTIyLjgzNEwzNjEuMDE1LDUyMi44MzRDMzYwLjQxNSw1MjAuMTM0IDM2MC4yMTUsNTE1LjYzNCAzNjAuMjE1LDUxMS4wMzRMMzYwLjIxNSw0OTMuOTM0Wk0zNDUuNTE1LDUwNS4wMzRDMzQ1LjUxNSw1MDUuOTM0IDM0NS40MTUsNTA2LjgzNCAzNDUuMjE1LDUwNy42MzRDMzQ0LjIxNSw1MTAuNzM0IDM0MS4wMTUsNTEzLjIzNCAzMzcuMzE1LDUxMy4yMzRDMzMzLjkxNSw1MTMuMjM0IDMzMS4zMTUsNTExLjMzNCAzMzEuMzE1LDUwNy40MzRDMzMxLjMxNSw1MDEuNjM0IDMzNy41MTUsNDk5LjczNCAzNDUuNTE1LDQ5OS43MzRMMzQ1LjUxNSw1MDUuMDM0WiIgc3R5bGU9ImZpbGw6cmdiKDcsNyw3KTtmaWxsLXJ1bGU6bm9uemVybzsiLz4KICAgICAgICAgICAgPHBhdGggZD0iTTM2Ny4zMTUsNTIyLjgzNEwzODIuNTE1LDUyMi44MzRMMzgyLjUxNSw0OTguMTM0QzM4Mi41MTUsNDk2LjgzNCAzODIuNjE1LDQ5NS43MzQgMzgyLjgxNSw0OTQuNzM0QzM4My44MTUsNDg5LjkzNCAzODcuNjE1LDQ4Ny4wMzQgMzkzLjIxNSw0ODcuMDM0QzM5NC45MTUsNDg3LjAzNCAzOTYuMTE1LDQ4Ny4yMzQgMzk3LjMxNSw0ODcuNDM0TDM5Ny4zMTUsNDczLjEzNEMzOTYuMjE1LDQ3Mi45MzQgMzk1LjUxNSw0NzIuODM0IDM5NC4xMTUsNDcyLjgzNEMzODkuMzE1LDQ3Mi44MzQgMzgzLjQxNSw0NzUuODM0IDM4MC45MTUsNDgzLjAzNEwzODAuNTE1LDQ4My4wMzRMMzc5LjkxNSw0NzMuOTM0TDM2Ni45MTUsNDczLjkzNEMzNjcuMjE1LDQ3OC4xMzQgMzY3LjMxNSw0ODIuODM0IDM2Ny4zMTUsNDkwLjAzNEwzNjcuMzE1LDUyMi44MzRaIiBzdHlsZT0iZmlsbDpyZ2IoNyw3LDcpO2ZpbGwtcnVsZTpub256ZXJvOyIvPgogICAgICAgIDwvZz4KICAgICAgICA8ZyB0cmFuc2Zvcm09Im1hdHJpeCgwLjI0LDAsMCwwLjI0LC0yLjk0MTQxLDUuNjU2NjgpIj4KICAgICAgICAgICAgPHBhdGggZD0iTTUzOS44MjgsNDEzLjE3TDUzMS4wMjgsNDEzLjE3TDUzMS4wMjgsNDQyLjc3QzUzMS4wMjgsNDQ0LjQ3IDUzMC43MjgsNDQ2LjA3IDUzMC4yMjgsNDQ3LjI3QzUyOC42MjgsNDUxLjI3IDUyNC41MjgsNDU1LjM3IDUxOC42MjgsNDU1LjM3QzUxMC43MjgsNDU1LjM3IDUwNy44MjgsNDQ5LjA3IDUwNy44MjgsNDM5Ljg3TDUwNy44MjgsNDEzLjE3TDQ5OS4wMjgsNDEzLjE3TDQ5OS4wMjgsNDQxLjQ3QzQ5OS4wMjgsNDU4LjM3IDUwOC4xMjgsNDYyLjY3IDUxNS43MjgsNDYyLjY3QzUyNC4zMjgsNDYyLjY3IDUyOS41MjgsNDU3LjU3IDUzMS43MjgsNDUzLjY3TDUzMS45MjgsNDUzLjY3TDUzMi40MjgsNDYxLjU3TDU0MC4yMjgsNDYxLjU3QzUzOS45MjgsNDU3Ljc3IDUzOS44MjgsNDUzLjM3IDUzOS44MjgsNDQ4LjI3TDUzOS44MjgsNDEzLjE3WiIgc3R5bGU9ImZpbGw6cmdiKDcsNyw3KTtmaWxsLXJ1bGU6bm9uemVybzsiLz4KICAgICAgICAgICAgPHBhdGggZD0iTTU0OS40MjgsNDQ5LjA3QzU0OS40MjgsNDUzLjM3IDU0OS4zMjgsNDU4LjI3IDU0OS4wMjgsNDYxLjU3TDU1Ni42MjgsNDYxLjU3TDU1Ny4xMjgsNDUzLjU3TDU1Ny4zMjgsNDUzLjU3QzU2MS4wMjgsNDU5Ljk3IDU2Ni41MjgsNDYyLjY3IDU3My41MjgsNDYyLjY3QzU4NC4zMjgsNDYyLjY3IDU5NS4zMjgsNDU0LjA3IDU5NS4zMjgsNDM2LjY3QzU5NS4zMjgsNDIyLjA3IDU4Ni45MjgsNDEyLjA3IDU3NC45MjgsNDEyLjA3QzU2Ny4xMjgsNDEyLjA3IDU2MS41MjgsNDE1LjQ3IDU1OC40MjgsNDIwLjg3TDU1OC4yMjgsNDIwLjg3TDU1OC4yMjgsMzkwLjU3TDU0OS40MjgsMzkwLjU3TDU0OS40MjgsNDQ5LjA3Wk01NTguMjI4LDQzMy40N0M1NTguMjI4LDQzMi4wNyA1NTguNDI4LDQzMC44NyA1NTguNzI4LDQyOS43N0M1NjAuNDI4LDQyMy4xNyA1NjYuMDI4LDQxOC45NyA1NzIuMDI4LDQxOC45N0M1ODEuNDI4LDQxOC45NyA1ODYuNDI4LDQyNy4yNyA1ODYuNDI4LDQzNy4wN0M1ODYuNDI4LDQ0OC4xNyA1ODEuMDI4LDQ1NS42NyA1NzEuNzI4LDQ1NS42N0M1NjUuNDI4LDQ1NS42NyA1NjAuMjI4LDQ1MS40NyA1NTguNTI4LDQ0NS4zN0M1NTguMzI4LDQ0NC4zNyA1NTguMjI4LDQ0My4yNyA1NTguMjI4LDQ0Mi4xN0w1NTguMjI4LDQzMy40N1oiIHN0eWxlPSJmaWxsOnJnYig3LDcsNyk7ZmlsbC1ydWxlOm5vbnplcm87Ii8+CiAgICAgICAgICAgIDxwYXRoIGQ9Ik02NDAuMjI4LDQzOC45N0M2NDAuNDI4LDQzNy45NyA2NDAuNTI4LDQzNi42NyA2NDAuNTI4LDQzNC44N0M2NDAuNTI4LDQyNS45NyA2MzYuNDI4LDQxMi4wNyA2MjAuNjI4LDQxMi4wN0M2MDYuNTI4LDQxMi4wNyA1OTcuODI4LDQyMy41NyA1OTcuODI4LDQzOC4xN0M1OTcuODI4LDQ1Mi42NyA2MDYuODI4LDQ2Mi41NyA2MjEuNjI4LDQ2Mi41N0M2MjkuMzI4LDQ2Mi41NyA2MzQuNzI4LDQ2MC44NyA2MzcuODI4LDQ1OS40N0w2MzYuMjI4LDQ1My4xN0M2MzMuMDI4LDQ1NC41NyA2MjkuMTI4LDQ1NS42NyA2MjIuODI4LDQ1NS42N0M2MTQuMDI4LDQ1NS42NyA2MDYuNTI4LDQ1MC43NyA2MDYuMzI4LDQzOC45N0w2NDAuMjI4LDQzOC45N1pNNjA2LjQyOCw0MzIuNjdDNjA3LjEyOCw0MjYuNTcgNjEwLjkyOCw0MTguMzcgNjE5LjkyOCw0MTguMzdDNjI5LjcyOCw0MTguMzcgNjMyLjEyOCw0MjcuMDcgNjMyLjAyOCw0MzIuNjdMNjA2LjQyOCw0MzIuNjdaIiBzdHlsZT0iZmlsbDpyZ2IoNyw3LDcpO2ZpbGwtcnVsZTpub256ZXJvOyIvPgogICAgICAgIDwvZz4KICAgIDwvZz4KPC9zdmc+Cg==;" vertex="1" parent="AmXLDjNfCaVPL390mNVF-43">
          <mxGeometry x="342.35" y="49.5" width="115.83" height="30.5" as="geometry" />
        </mxCell>
        <mxCell id="AmXLDjNfCaVPL390mNVF-48" value="" style="outlineConnect=0;fontColor=#232F3E;gradientColor=none;fillColor=#B3B3B3;strokeColor=none;dashed=0;verticalLabelPosition=bottom;verticalAlign=top;align=center;html=1;fontSize=12;fontStyle=0;aspect=fixed;pointerEvents=1;shape=mxgraph.aws4.encrypted_data;labelBackgroundColor=#ffffff;" vertex="1" parent="1">
          <mxGeometry x="262.50000000000006" y="414.5" width="21" height="26" as="geometry" />
        </mxCell>
        <mxCell id="AmXLDjNfCaVPL390mNVF-53" value="lz-iot-cn-247-transparencysafetychinaapp-dev/qa/prod&amp;nbsp;" style="points=[[0,0],[0.25,0],[0.5,0],[0.75,0],[1,0],[1,0.25],[1,0.5],[1,0.75],[1,1],[0.75,1],[0.5,1],[0.25,1],[0,1],[0,0.75],[0,0.5],[0,0.25]];outlineConnect=0;gradientColor=none;html=1;whiteSpace=wrap;fontSize=12;fontStyle=0;container=1;pointerEvents=0;collapsible=0;recursiveResize=0;shape=mxgraph.aws4.group;grIcon=mxgraph.aws4.group_vpc;strokeColor=#248814;fillColor=none;verticalAlign=top;align=left;spacingLeft=30;fontColor=#AAB7B8;dashed=0;fontFamily=Helvetica;" vertex="1" parent="1">
          <mxGeometry x="681.25" y="1290" width="728.75" height="420" as="geometry" />
        </mxCell>
        <mxCell id="AmXLDjNfCaVPL390mNVF-54" value="&lt;font style=&quot;font-size: 20px;&quot;&gt;stage: deploy&lt;/font&gt;" style="text;strokeColor=none;fillColor=none;html=1;fontSize=24;fontStyle=1;verticalAlign=middle;align=center;fontFamily=Helvetica;fontColor=default;" vertex="1" parent="AmXLDjNfCaVPL390mNVF-53">
          <mxGeometry x="45.75" y="49.5" width="100" height="40" as="geometry" />
        </mxCell>
        <mxCell id="AmXLDjNfCaVPL390mNVF-21" value="AWS CloudFormation&lt;br&gt;" style="sketch=0;points=[[0,0,0],[0.25,0,0],[0.5,0,0],[0.75,0,0],[1,0,0],[0,1,0],[0.25,1,0],[0.5,1,0],[0.75,1,0],[1,1,0],[0,0.25,0],[0,0.5,0],[0,0.75,0],[1,0.25,0],[1,0.5,0],[1,0.75,0]];points=[[0,0,0],[0.25,0,0],[0.5,0,0],[0.75,0,0],[1,0,0],[0,1,0],[0.25,1,0],[0.5,1,0],[0.75,1,0],[1,1,0],[0,0.25,0],[0,0.5,0],[0,0.75,0],[1,0.25,0],[1,0.5,0],[1,0.75,0]];outlineConnect=0;fontColor=#232F3E;gradientColor=#F34482;gradientDirection=north;fillColor=#BC1356;strokeColor=#ffffff;dashed=0;verticalLabelPosition=bottom;verticalAlign=top;align=center;html=1;fontSize=12;fontStyle=0;aspect=fixed;shape=mxgraph.aws4.resourceIcon;resIcon=mxgraph.aws4.cloudformation;" vertex="1" parent="AmXLDjNfCaVPL390mNVF-53">
          <mxGeometry x="338.75" y="40" width="80" height="80" as="geometry" />
        </mxCell>
        <mxCell id="AmXLDjNfCaVPL390mNVF-29" value="CloudWatch&lt;br&gt;" style="sketch=0;points=[[0,0,0],[0.25,0,0],[0.5,0,0],[0.75,0,0],[1,0,0],[0,1,0],[0.25,1,0],[0.5,1,0],[0.75,1,0],[1,1,0],[0,0.25,0],[0,0.5,0],[0,0.75,0],[1,0.25,0],[1,0.5,0],[1,0.75,0]];points=[[0,0,0],[0.25,0,0],[0.5,0,0],[0.75,0,0],[1,0,0],[0,1,0],[0.25,1,0],[0.5,1,0],[0.75,1,0],[1,1,0],[0,0.25,0],[0,0.5,0],[0,0.75,0],[1,0.25,0],[1,0.5,0],[1,0.75,0]];outlineConnect=0;fontColor=#232F3E;gradientColor=#F34482;gradientDirection=north;fillColor=#BC1356;strokeColor=#ffffff;dashed=0;verticalLabelPosition=bottom;verticalAlign=top;align=center;html=1;fontSize=12;fontStyle=0;aspect=fixed;shape=mxgraph.aws4.resourceIcon;resIcon=mxgraph.aws4.cloudwatch_2;" vertex="1" parent="AmXLDjNfCaVPL390mNVF-53">
          <mxGeometry x="64.38" y="320" width="40" height="40" as="geometry" />
        </mxCell>
        <mxCell id="AmXLDjNfCaVPL390mNVF-24" value="S3" style="sketch=0;points=[[0,0,0],[0.25,0,0],[0.5,0,0],[0.75,0,0],[1,0,0],[0,1,0],[0.25,1,0],[0.5,1,0],[0.75,1,0],[1,1,0],[0,0.25,0],[0,0.5,0],[0,0.75,0],[1,0.25,0],[1,0.5,0],[1,0.75,0]];outlineConnect=0;fontColor=#232F3E;gradientColor=#60A337;gradientDirection=north;fillColor=#277116;strokeColor=#ffffff;dashed=0;verticalLabelPosition=bottom;verticalAlign=top;align=center;html=1;fontSize=12;fontStyle=0;aspect=fixed;shape=mxgraph.aws4.resourceIcon;resIcon=mxgraph.aws4.s3;" vertex="1" parent="AmXLDjNfCaVPL390mNVF-53">
          <mxGeometry x="55.63" y="220" width="48.75" height="48.75" as="geometry" />
        </mxCell>
        <mxCell id="AmXLDjNfCaVPL390mNVF-123" value="" style="edgeStyle=orthogonalEdgeStyle;orthogonalLoop=1;jettySize=auto;html=1;fontFamily=Helvetica;fontSize=12;fontColor=default;endArrow=classic;" edge="1" parent="AmXLDjNfCaVPL390mNVF-53" source="AmXLDjNfCaVPL390mNVF-28">
          <mxGeometry relative="1" as="geometry">
            <mxPoint x="328.75" y="307" as="targetPoint" />
          </mxGeometry>
        </mxCell>
        <mxCell id="AmXLDjNfCaVPL390mNVF-28" value="Loadbalancer" style="outlineConnect=0;dashed=0;verticalLabelPosition=bottom;verticalAlign=top;align=center;html=1;shape=mxgraph.aws3.application_load_balancer;fillColor=#F58534;gradientColor=none;" vertex="1" parent="AmXLDjNfCaVPL390mNVF-53">
          <mxGeometry x="378.75" y="250" width="61.25" height="70" as="geometry" />
        </mxCell>
        <mxCell id="AmXLDjNfCaVPL390mNVF-98" value="" style="group" vertex="1" connectable="0" parent="AmXLDjNfCaVPL390mNVF-53">
          <mxGeometry x="618.75" y="380" width="21" height="26" as="geometry" />
        </mxCell>
        <mxCell id="AmXLDjNfCaVPL390mNVF-99" value="" style="rounded=0;whiteSpace=wrap;html=1;labelBackgroundColor=#ffffff;fontSize=14;align=center;strokeColor=none;" vertex="1" parent="AmXLDjNfCaVPL390mNVF-98">
          <mxGeometry width="21" height="26" as="geometry" />
        </mxCell>
        <mxCell id="AmXLDjNfCaVPL390mNVF-100" value="" style="outlineConnect=0;fontColor=#232F3E;gradientColor=none;fillColor=#B3B3B3;strokeColor=none;dashed=0;verticalLabelPosition=bottom;verticalAlign=top;align=center;html=1;fontSize=12;fontStyle=0;aspect=fixed;pointerEvents=1;shape=mxgraph.aws4.encrypted_data;labelBackgroundColor=#ffffff;" vertex="1" parent="AmXLDjNfCaVPL390mNVF-98">
          <mxGeometry width="21" height="26" as="geometry" />
        </mxCell>
        <mxCell id="AmXLDjNfCaVPL390mNVF-124" value="" style="edgeStyle=orthogonalEdgeStyle;orthogonalLoop=1;jettySize=auto;html=1;fontFamily=Helvetica;fontSize=12;fontColor=default;endArrow=classic;" edge="1" parent="AmXLDjNfCaVPL390mNVF-53" source="AmXLDjNfCaVPL390mNVF-103" target="AmXLDjNfCaVPL390mNVF-111">
          <mxGeometry relative="1" as="geometry">
            <Array as="points">
              <mxPoint x="244" y="230" />
              <mxPoint x="244" y="230" />
            </Array>
          </mxGeometry>
        </mxCell>
        <mxCell id="AmXLDjNfCaVPL390mNVF-103" value="Secret Manager&lt;br&gt;" style="sketch=0;points=[[0,0,0],[0.25,0,0],[0.5,0,0],[0.75,0,0],[1,0,0],[0,1,0],[0.25,1,0],[0.5,1,0],[0.75,1,0],[1,1,0],[0,0.25,0],[0,0.5,0],[0,0.75,0],[1,0.25,0],[1,0.5,0],[1,0.75,0]];outlineConnect=0;fontColor=#232F3E;gradientColor=#F54749;gradientDirection=north;fillColor=#C7131F;strokeColor=#ffffff;dashed=0;verticalLabelPosition=bottom;verticalAlign=top;align=center;html=1;fontSize=12;fontStyle=0;aspect=fixed;shape=mxgraph.aws4.resourceIcon;resIcon=mxgraph.aws4.secrets_manager;fontFamily=Helvetica;" vertex="1" parent="AmXLDjNfCaVPL390mNVF-53">
          <mxGeometry x="278.75" y="190" width="30" height="30" as="geometry" />
        </mxCell>
        <mxCell id="AmXLDjNfCaVPL390mNVF-119" value="" style="edgeStyle=orthogonalEdgeStyle;orthogonalLoop=1;jettySize=auto;html=1;fontFamily=Helvetica;fontSize=12;fontColor=default;endArrow=classic;" edge="1" parent="AmXLDjNfCaVPL390mNVF-53" source="AmXLDjNfCaVPL390mNVF-111" target="AmXLDjNfCaVPL390mNVF-29">
          <mxGeometry relative="1" as="geometry" />
        </mxCell>
        <mxCell id="AmXLDjNfCaVPL390mNVF-120" value="" style="edgeStyle=orthogonalEdgeStyle;orthogonalLoop=1;jettySize=auto;html=1;fontFamily=Helvetica;fontSize=12;fontColor=default;endArrow=classic;" edge="1" parent="AmXLDjNfCaVPL390mNVF-53" source="AmXLDjNfCaVPL390mNVF-111" target="AmXLDjNfCaVPL390mNVF-29">
          <mxGeometry relative="1" as="geometry" />
        </mxCell>
        <mxCell id="AmXLDjNfCaVPL390mNVF-111" value="Elastic Container Service" style="points=[[0,0],[0.25,0],[0.5,0],[0.75,0],[1,0],[1,0.25],[1,0.5],[1,0.75],[1,1],[0.75,1],[0.5,1],[0.25,1],[0,1],[0,0.75],[0,0.5],[0,0.25]];outlineConnect=0;gradientColor=none;html=1;whiteSpace=wrap;fontSize=12;fontStyle=0;container=1;pointerEvents=0;collapsible=0;recursiveResize=0;shape=mxgraph.aws4.group;grIcon=mxgraph.aws4.group_elastic_beanstalk;strokeColor=#D86613;fillColor=none;verticalAlign=top;align=left;spacingLeft=30;fontColor=#D86613;dashed=0;fontFamily=Helvetica;" vertex="1" parent="AmXLDjNfCaVPL390mNVF-53">
          <mxGeometry x="187.75" y="240" width="140" height="120" as="geometry" />
        </mxCell>
        <mxCell id="AmXLDjNfCaVPL390mNVF-108" value="" style="sketch=0;outlineConnect=0;fontColor=#232F3E;gradientColor=none;fillColor=#D45B07;strokeColor=none;dashed=0;verticalLabelPosition=bottom;verticalAlign=top;align=center;html=1;fontSize=12;fontStyle=0;aspect=fixed;pointerEvents=1;shape=mxgraph.aws4.container_1;fontFamily=Helvetica;" vertex="1" parent="AmXLDjNfCaVPL390mNVF-111">
          <mxGeometry x="22" y="53" width="41.8" height="27" as="geometry" />
        </mxCell>
        <mxCell id="AmXLDjNfCaVPL390mNVF-121" value="" style="edgeStyle=orthogonalEdgeStyle;orthogonalLoop=1;jettySize=auto;html=1;fontFamily=Helvetica;fontSize=12;fontColor=default;endArrow=classic;entryX=1;entryY=0.5;entryDx=0;entryDy=0;entryPerimeter=0;" edge="1" parent="AmXLDjNfCaVPL390mNVF-53" source="AmXLDjNfCaVPL390mNVF-111" target="AmXLDjNfCaVPL390mNVF-24">
          <mxGeometry relative="1" as="geometry">
            <mxPoint x="197.75" y="320" as="sourcePoint" />
            <mxPoint x="114.38000000000011" y="350" as="targetPoint" />
            <Array as="points">
              <mxPoint x="150.75" y="290" />
              <mxPoint x="150.75" y="244" />
            </Array>
          </mxGeometry>
        </mxCell>
        <mxCell id="AmXLDjNfCaVPL390mNVF-83" value="&lt;font style=&quot;font-size: 12px;&quot;&gt;Route53&lt;/font&gt;" style="outlineConnect=0;dashed=0;verticalLabelPosition=bottom;verticalAlign=top;align=center;html=1;shape=mxgraph.aws3.route_53;fillColor=#F58536;gradientColor=none;fontFamily=Helvetica;fontSize=16;fontColor=default;" vertex="1" parent="AmXLDjNfCaVPL390mNVF-53">
          <mxGeometry x="599" y="247.5" width="60.5" height="75" as="geometry" />
        </mxCell>
        <mxCell id="AmXLDjNfCaVPL390mNVF-102" value="" style="edgeStyle=orthogonalEdgeStyle;orthogonalLoop=1;jettySize=auto;html=1;fontFamily=Helvetica;fontSize=12;fontColor=default;endArrow=classic;" edge="1" parent="AmXLDjNfCaVPL390mNVF-53" source="AmXLDjNfCaVPL390mNVF-100" target="AmXLDjNfCaVPL390mNVF-83">
          <mxGeometry relative="1" as="geometry" />
        </mxCell>
        <mxCell id="AmXLDjNfCaVPL390mNVF-112" value="" style="sketch=0;outlineConnect=0;fontColor=#232F3E;gradientColor=none;fillColor=#D45B07;strokeColor=none;dashed=0;verticalLabelPosition=bottom;verticalAlign=top;align=center;html=1;fontSize=12;fontStyle=0;aspect=fixed;pointerEvents=1;shape=mxgraph.aws4.container_1;fontFamily=Helvetica;" vertex="1" parent="AmXLDjNfCaVPL390mNVF-53">
          <mxGeometry x="258.75" y="293" width="41.8" height="27" as="geometry" />
        </mxCell>
        <mxCell id="AmXLDjNfCaVPL390mNVF-62" value="&lt;font style=&quot;font-size: 16px;&quot;&gt;build failed, commit again&lt;/font&gt;" style="text;strokeColor=none;fillColor=none;html=1;fontSize=24;fontStyle=1;verticalAlign=middle;align=center;fontFamily=Helvetica;fontColor=default;" vertex="1" parent="1">
          <mxGeometry x="372" y="1040" width="100" height="40" as="geometry" />
        </mxCell>
        <mxCell id="AmXLDjNfCaVPL390mNVF-63" value="&lt;font style=&quot;font-size: 16px;&quot;&gt;code push/merge&lt;/font&gt;" style="text;strokeColor=none;fillColor=none;html=1;fontSize=24;fontStyle=1;verticalAlign=middle;align=center;fontFamily=Helvetica;fontColor=default;" vertex="1" parent="1">
          <mxGeometry x="314" y="1160" width="100" height="40" as="geometry" />
        </mxCell>
        <mxCell id="AmXLDjNfCaVPL390mNVF-64" value="&lt;font style=&quot;font-size: 16px;&quot;&gt;trigger pipeline&lt;/font&gt;" style="text;strokeColor=none;fillColor=none;html=1;fontSize=24;fontStyle=1;verticalAlign=middle;align=center;fontFamily=Helvetica;fontColor=default;" vertex="1" parent="1">
          <mxGeometry x="525" y="1169" width="100" height="40" as="geometry" />
        </mxCell>
        <mxCell id="AmXLDjNfCaVPL390mNVF-94" value="" style="edgeStyle=orthogonalEdgeStyle;orthogonalLoop=1;jettySize=auto;html=1;fontFamily=Helvetica;fontSize=12;fontColor=default;endArrow=classic;" edge="1" parent="1" source="AmXLDjNfCaVPL390mNVF-81" target="AmXLDjNfCaVPL390mNVF-28">
          <mxGeometry relative="1" as="geometry" />
        </mxCell>
        <mxCell id="AmXLDjNfCaVPL390mNVF-81" value="&lt;font style=&quot;font-size: 12px;&quot;&gt;CloudFront&lt;/font&gt;" style="outlineConnect=0;dashed=0;verticalLabelPosition=bottom;verticalAlign=top;align=center;html=1;shape=mxgraph.aws3.cloudfront;fillColor=#F58536;gradientColor=none;fontFamily=Helvetica;fontSize=16;fontColor=default;" vertex="1" parent="1">
          <mxGeometry x="1158.75" y="1570" width="71" height="70" as="geometry" />
        </mxCell>
        <mxCell id="AmXLDjNfCaVPL390mNVF-97" value="" style="edgeStyle=orthogonalEdgeStyle;orthogonalLoop=1;jettySize=auto;html=1;fontFamily=Helvetica;fontSize=12;fontColor=default;endArrow=classic;" edge="1" parent="1" source="AmXLDjNfCaVPL390mNVF-83" target="AmXLDjNfCaVPL390mNVF-81">
          <mxGeometry relative="1" as="geometry" />
        </mxCell>
        <mxCell id="AmXLDjNfCaVPL390mNVF-101" value="" style="edgeStyle=orthogonalEdgeStyle;orthogonalLoop=1;jettySize=auto;html=1;fontFamily=Helvetica;fontSize=12;fontColor=default;endArrow=classic;" edge="1" parent="1" source="AmXLDjNfCaVPL390mNVF-84" target="AmXLDjNfCaVPL390mNVF-100">
          <mxGeometry relative="1" as="geometry">
            <Array as="points">
              <mxPoint x="1184" y="1770" />
              <mxPoint x="1311" y="1770" />
            </Array>
          </mxGeometry>
        </mxCell>
        <mxCell id="AmXLDjNfCaVPL390mNVF-84" value="external user" style="shape=umlActor;verticalLabelPosition=bottom;verticalAlign=top;html=1;outlineConnect=0;fontFamily=Helvetica;fontSize=16;fontColor=default;" vertex="1" parent="1">
          <mxGeometry x="1170" y="1780" width="30" height="60" as="geometry" />
        </mxCell>
        <mxCell id="AmXLDjNfCaVPL390mNVF-125" value="KONE China Apps Gitlab CI/CD &lt;br&gt;&amp;nbsp;process with AWS" style="text;strokeColor=none;fillColor=none;html=1;fontSize=24;fontStyle=1;verticalAlign=middle;align=center;fontFamily=Helvetica;fontColor=default;" vertex="1" parent="1">
          <mxGeometry x="350" y="1570" width="100" height="40" as="geometry" />
        </mxCell>
        <mxCell id="AmXLDjNfCaVPL390mNVF-128" value="" style="edgeStyle=orthogonalEdgeStyle;orthogonalLoop=1;jettySize=auto;html=1;fontFamily=Helvetica;fontSize=12;fontColor=default;endArrow=classic;fillColor=#d5e8d4;strokeColor=#82b366;strokeWidth=2;" edge="1" parent="1" source="AmXLDjNfCaVPL390mNVF-47" target="AmXLDjNfCaVPL390mNVF-21">
          <mxGeometry relative="1" as="geometry" />
        </mxCell>
        <mxCell id="AmXLDjNfCaVPL390mNVF-129" value="" style="edgeStyle=orthogonalEdgeStyle;orthogonalLoop=1;jettySize=auto;html=1;fontFamily=Helvetica;fontSize=12;fontColor=default;endArrow=classic;fillColor=#d5e8d4;strokeColor=#82b366;strokeWidth=2;" edge="1" parent="1" source="AmXLDjNfCaVPL390mNVF-21" target="AmXLDjNfCaVPL390mNVF-31">
          <mxGeometry relative="1" as="geometry" />
        </mxCell>
        <mxCell id="AmXLDjNfCaVPL390mNVF-134" value="" style="edgeStyle=orthogonalEdgeStyle;orthogonalLoop=1;jettySize=auto;html=1;fontFamily=Helvetica;fontSize=12;fontColor=default;endArrow=classic;startArrow=none;" edge="1" parent="1" source="AmXLDjNfCaVPL390mNVF-130" target="AmXLDjNfCaVPL390mNVF-21">
          <mxGeometry relative="1" as="geometry" />
        </mxCell>
        <mxCell id="AmXLDjNfCaVPL390mNVF-130" value="" style="aspect=fixed;html=1;points=[];align=center;image;fontSize=12;image=img/lib/azure2/azure_stack/User_Subscriptions.svg;fontFamily=Helvetica;fontColor=default;" vertex="1" parent="1">
          <mxGeometry x="1050.3899999999999" y="1280" width="20.61" height="20" as="geometry" />
        </mxCell>
        <mxCell id="AmXLDjNfCaVPL390mNVF-135" value="" style="edgeStyle=orthogonalEdgeStyle;orthogonalLoop=1;jettySize=auto;html=1;fontFamily=Helvetica;fontSize=12;fontColor=default;endArrow=none;" edge="1" parent="1" source="AmXLDjNfCaVPL390mNVF-47" target="AmXLDjNfCaVPL390mNVF-130">
          <mxGeometry relative="1" as="geometry">
            <mxPoint x="1060.5" y="1276" as="sourcePoint" />
            <mxPoint x="1060" y="1330" as="targetPoint" />
          </mxGeometry>
        </mxCell>
      </root>
    </mxGraphModel>
  </diagram>
</mxfile>
